<?xml version="1.0" standalone="no"?>
<!DOCTYPE svg PUBLIC "-//W3C//DTD SVG 20010904//EN"
 "http://www.w3.org/TR/2001/REC-SVG-20010904/DTD/svg10.dtd">
<svg version="1.0" xmlns="http://www.w3.org/2000/svg"
 width="512.000000pt" height="512.000000pt" viewBox="0 0 512.000000 512.000000"
 preserveAspectRatio="xMidYMid meet">
<metadata>
Created by potrace 1.16, written by Peter Selinger 2001-2019
</metadata>
<g transform="translate(0.000000,512.000000) scale(0.100000,-0.100000)"
fill="#000000" stroke="none">
<path d="M2255 4796 c-119 -27 -295 -112 -406 -196 -37 -27 -146 -133 -243
-234 -148 -154 -187 -189 -245 -220 -91 -48 -150 -114 -233 -262 -37 -66 -80
-137 -97 -158 -39 -48 -39 -69 -2 -95 56 -40 180 -93 244 -104 57 -9 76 -8
157 12 82 20 94 21 114 7 19 -12 24 -26 28 -83 2 -37 4 -93 4 -123 -1 -50 -4
-56 -35 -77 -44 -30 -93 -43 -161 -43 -144 -1 -266 -34 -290 -79 -14 -28 -12
-73 5 -114 25 -61 19 -108 -20 -167 -40 -60 -48 -58 88 -20 76 22 92 32 146
100 l20 25 1 -54 c0 -41 8 -68 37 -123 24 -45 39 -66 46 -59 6 6 3 28 -12 63
-30 76 -35 111 -21 155 15 46 96 133 125 133 17 0 14 -7 -20 -38 -22 -20 -51
-44 -65 -53 -14 -9 -22 -20 -19 -23 8 -9 83 21 132 52 22 13 41 21 43 19 12
-11 -64 -59 -117 -74 -32 -9 -59 -20 -59 -24 0 -4 13 -4 29 1 l28 8 -14 -29
c-10 -21 -14 -54 -11 -111 l3 -81 -49 -26 c-38 -20 -65 -26 -113 -26 -35 0
-63 -3 -63 -7 0 -11 56 -54 87 -67 29 -12 30 -14 20 -51 -11 -41 6 -150 24
-150 5 0 9 21 10 48 0 66 19 116 45 120 20 3 20 0 -11 -93 -40 -118 -91 -177
-169 -195 l-31 -7 36 -16 c20 -9 58 -18 85 -20 76 -7 72 -30 -21 -128 -111
-119 -160 -229 -189 -423 l-11 -78 -160 -86 c-186 -99 -261 -147 -288 -184
-23 -31 -37 -173 -19 -203 9 -17 10 -17 21 2 27 51 418 319 437 300 11 -11 -6
-25 -69 -60 -95 -54 -207 -129 -262 -177 -45 -39 -114 -120 -102 -120 3 0 60
29 128 64 122 63 318 151 323 144 3 -3 61 -215 72 -263 6 -27 8 -23 19 35 26
140 26 141 109 182 57 28 74 41 71 55 -2 10 -7 35 -10 56 -7 43 -11 43 -99 1
-59 -28 -56 -28 -56 -9 0 9 20 25 48 36 47 21 135 50 137 46 1 -1 6 -44 11
-96 l9 -93 -75 -38 c-63 -32 -117 -70 -98 -70 12 0 118 39 147 55 38 19 37 20
45 -21 7 -32 7 -32 -61 -54 -37 -12 -71 -25 -75 -29 -5 -4 29 -24 75 -44 l82
-37 54 -98 c73 -132 129 -217 223 -344 80 -107 108 -138 70 -75 -35 57 -128
249 -162 335 -18 45 -48 106 -66 135 -55 87 -101 179 -117 237 -26 92 -43 266
-37 380 1 28 3 31 9 15 7 -16 12 -9 26 37 10 32 20 56 22 54 2 -2 -6 -37 -18
-77 -15 -47 -23 -101 -23 -149 -1 -77 19 -170 36 -170 6 0 7 10 3 23 -4 12 -8
63 -10 112 l-3 90 7 -80 c10 -94 34 -189 69 -263 31 -69 40 -60 13 13 -34 89
-51 215 -49 354 0 69 3 110 5 91 2 -19 6 -42 10 -50 3 -8 5 -30 3 -49 -1 -19
1 -71 5 -115 6 -64 10 -76 16 -57 6 14 5 46 0 80 -13 73 -7 170 12 207 16 29
16 29 11 -26 -3 -30 -7 -64 -9 -74 -4 -17 5 -107 20 -206 l6 -35 -14 30 -14
30 -7 -29 c-4 -15 -5 -31 -1 -34 3 -3 5 3 6 14 0 15 2 14 10 -6 6 -13 8 -34 4
-47 -5 -23 9 -110 26 -153 8 -22 8 -23 -4 -8 -8 10 -16 15 -20 12 -3 -3 -23
25 -46 63 -47 77 -48 78 -22 0 40 -116 119 -249 204 -347 79 -90 248 -250 340
-321 41 -33 40 -32 -13 27 -85 93 -182 271 -224 413 -16 53 -22 162 -10 174 3
3 30 -13 59 -36 41 -32 56 -52 65 -82 22 -85 60 -143 175 -269 142 -157 196
-227 253 -325 24 -42 41 -67 38 -56 -4 17 -27 153 -40 243 -2 13 0 20 4 15 18
-20 81 -176 96 -239 9 -38 20 -77 23 -87 4 -12 20 29 45 115 61 214 148 405
226 495 56 65 58 48 6 -54 -44 -88 -69 -187 -64 -261 4 -69 35 -152 77 -202
l21 -25 -17 40 c-11 26 -17 69 -17 125 -1 75 2 90 26 131 15 25 67 83 117 128
127 116 172 194 206 359 9 43 23 73 45 98 40 46 79 108 95 153 l14 36 0 -68
c1 -66 -1 -72 -47 -140 -76 -113 -86 -130 -70 -125 11 4 73 84 98 128 19 34
22 -5 8 -94 -19 -116 -51 -188 -152 -335 -42 -62 -92 -144 -112 -182 -58 -116
-70 -160 -21 -76 40 66 120 150 246 256 145 123 228 211 263 281 23 45 62 183
92 322 5 20 10 25 26 21 11 -3 20 -9 20 -13 0 -18 -63 -288 -80 -345 -31 -100
-60 -222 -59 -247 0 -16 4 -12 13 17 7 22 31 83 53 135 23 52 47 114 54 137 6
24 19 45 28 47 27 8 170 26 214 27 l42 1 -35 15 c-19 8 -72 23 -117 32 -45 9
-85 19 -88 22 -3 3 1 21 8 39 12 26 15 29 19 13 4 -15 30 -24 134 -46 71 -16
133 -29 139 -30 5 -1 11 8 13 21 5 31 -36 67 -145 126 -59 32 -89 54 -86 62 6
16 77 -18 223 -106 74 -45 291 -172 354 -208 6 -3 0 8 -12 25 -44 62 -193 159
-419 272 -68 34 -123 64 -123 69 0 4 4 13 8 20 15 22 388 -172 586 -304 85
-57 112 -63 55 -14 -90 80 -242 172 -465 284 l-150 75 4 86 c5 98 -9 184 -44
263 -13 30 -22 57 -20 59 8 9 92 -40 129 -75 50 -48 51 -95 5 -149 l-33 -37
32 20 c115 71 109 186 -16 325 -39 44 -101 151 -101 175 0 2 33 1 73 -2 45 -4
89 -2 117 6 48 13 47 15 -13 25 -42 7 -107 58 -107 84 0 49 -34 126 -76 171
-24 26 -44 50 -44 54 0 3 15 6 33 6 54 1 97 49 97 110 0 36 -29 97 -59 124
-26 24 -27 12 -1 -21 54 -69 26 -183 -45 -183 -23 0 -25 4 -25 42 0 23 -5 67
-11 97 -10 49 -9 64 10 125 26 83 26 119 2 172 -25 55 -86 104 -163 132 -86
30 -94 45 -67 127 13 41 29 69 42 76 21 12 76 9 226 -11 105 -14 231 -1 350
37 82 26 141 62 141 88 0 21 -132 264 -190 350 -97 144 -262 359 -334 433 -39
40 -100 93 -136 117 -36 24 -99 73 -140 109 -145 128 -346 245 -520 302 -94
31 -153 34 -250 14 -57 -11 -77 -11 -160 4 -140 26 -140 26 -205 12z m81 -24
c6 -4 20 -28 31 -53 25 -56 67 -79 148 -79 80 0 121 22 151 81 22 44 28 49 58
49 56 0 164 -38 301 -106 218 -108 389 -245 507 -405 76 -103 78 -108 43 -85
-60 38 -102 73 -195 162 -125 119 -241 204 -353 258 -135 66 -158 66 -37 1
146 -79 213 -129 363 -272 84 -80 160 -142 215 -176 67 -41 113 -81 213 -187
171 -181 202 -220 253 -320 46 -89 88 -191 82 -198 -13 -13 -65 44 -231 255
-218 276 -273 337 -334 364 -74 33 -146 95 -251 219 -113 134 -160 176 -315
285 -60 42 -109 81 -107 87 1 5 -3 8 -10 6 -16 -3 -78 22 -78 31 0 4 -8 7 -18
8 -13 1 -21 -10 -29 -40 -55 -205 -317 -226 -415 -34 -10 21 -18 48 -18 60 4
45 1 52 -12 35 -7 -9 -31 -19 -53 -23 -73 -12 -177 -54 -251 -100 -41 -26 -76
-51 -80 -56 -3 -6 13 2 37 17 52 33 169 87 175 81 3 -2 -19 -14 -48 -26 -142
-59 -241 -136 -398 -312 -161 -180 -244 -249 -301 -249 -44 0 -177 -158 -244
-291 -28 -54 -65 -104 -65 -87 0 11 55 138 87 203 75 148 124 206 210 245 74
34 127 82 279 252 69 76 149 153 202 193 161 122 439 240 488 207z m500 -214
c-8 -86 -32 -143 -77 -183 -19 -16 -26 -21 -18 -10 32 39 57 101 75 183 9 45
20 82 22 82 3 0 2 -32 -2 -72z m-580 -101 c15 -29 15 -31 1 -19 -9 8 -19 23
-23 34 -4 14 -9 17 -13 9 -4 -6 -8 19 -8 56 l-1 68 14 -58 c7 -31 21 -72 30
-90z m-138 -109 c8 -7 18 -22 23 -35 16 -43 -14 -71 -41 -38 -7 8 -25 15 -41
15 -15 0 -31 5 -34 10 -7 11 -45 13 -69 4 -18 -7 -21 -55 -5 -85 5 -11 22 -24
37 -30 21 -8 31 -6 56 12 24 18 31 20 35 8 2 -8 28 -39 58 -70 29 -31 53 -59
53 -62 0 -11 -50 12 -86 39 -32 25 -34 25 -34 6 0 -20 24 -44 90 -85 19 -13
36 -30 38 -39 3 -15 -1 -16 -30 -7 -63 18 -81 12 -110 -37 -51 -83 -135 -94
-171 -22 -14 29 -15 41 -6 64 l11 29 10 -25 c6 -14 14 -35 19 -47 18 -47 99
-18 99 36 0 14 6 38 14 53 12 23 12 29 1 38 -8 6 -15 23 -17 38 -2 17 -9 27
-21 28 -12 1 -13 1 -2 -3 21 -6 19 -20 -5 -28 -26 -8 -57 10 -75 45 -34 66 -8
129 76 179 56 32 95 35 127 9z m504 -8 c53 -19 104 -63 127 -107 17 -33 13
-73 -14 -157 -14 -42 -25 -98 -25 -125 0 -58 -7 -67 -34 -42 -22 19 -66 37
-66 26 0 -4 7 -13 15 -22 14 -14 14 -17 0 -32 -8 -10 -15 -27 -15 -38 0 -29
-22 -34 -37 -9 l-12 21 -1 -22 c0 -32 -16 -29 -28 5 l-10 27 -1 -28 c-1 -35
-24 -32 -30 4 l-4 24 -6 -24 c-9 -34 -31 -39 -31 -7 0 14 -4 26 -10 26 -5 0
-10 -11 -10 -25 0 -31 -20 -33 -21 -2 0 21 -1 21 -11 -3 -10 -24 -10 -24 -18
-5 -5 11 -9 14 -9 8 -1 -7 -8 -13 -17 -13 -8 0 -12 5 -9 11 4 5 4 21 1 35 -5
19 -13 24 -39 24 l-32 1 30 25 c29 25 29 25 5 19 -14 -4 -33 -14 -42 -22 -27
-24 -41 -6 -33 42 4 30 -1 69 -15 127 -25 94 -22 143 9 187 66 92 249 125 393
71z m353 -1 c71 -37 96 -67 102 -123 4 -35 1 -47 -22 -74 -20 -24 -35 -32 -53
-30 -32 4 -40 24 -12 33 12 4 19 9 17 12 -13 12 -47 -10 -47 -29 0 -26 -27
-58 -48 -58 -13 0 -13 -2 1 -12 9 -7 21 -35 26 -62 10 -53 23 -68 61 -64 18 2
30 14 45 46 23 49 35 46 35 -9 0 -30 -6 -43 -32 -64 -47 -40 -89 -30 -150 36
-45 49 -49 51 -92 47 -59 -4 -61 14 -3 43 65 33 107 68 107 90 0 18 -3 18 -43
-10 -24 -16 -57 -33 -73 -37 -28 -7 -27 -4 22 48 28 30 55 64 58 76 l7 22 26
-20 c30 -24 54 -25 92 -5 43 22 54 64 24 97 -17 19 -68 25 -78 8 -3 -5 -18
-10 -33 -10 -15 0 -38 -7 -50 -16 -25 -17 -42 -11 -42 16 0 33 13 52 44 66 42
18 43 18 111 -17z m676 -138 c78 -78 248 -283 308 -371 l24 -35 -25 25 c-295
296 -487 516 -416 479 13 -7 62 -51 109 -98z m-1878 -246 c-29 -25 -89 -85
-134 -133 -59 -63 -73 -75 -51 -42 32 47 132 148 192 193 54 41 50 32 -7 -18z
m1802 -248 c61 -54 144 -121 185 -149 93 -62 98 -67 34 -35 -86 43 -236 148
-289 202 -27 28 -86 98 -129 155 l-80 105 85 -89 c46 -49 134 -134 194 -189z
m-2033 162 c-105 -150 -221 -229 -337 -229 -34 0 -65 3 -68 7 -9 8 32 63 92
126 62 64 72 59 17 -9 -52 -63 -59 -84 -18 -56 46 32 59 36 27 8 -16 -14 -40
-29 -52 -32 -13 -3 -23 -13 -23 -21 0 -13 8 -14 43 -9 104 17 201 85 303 214
37 45 68 82 70 82 2 0 -22 -37 -54 -81z m1796 -103 c20 -13 70 -43 111 -66 74
-43 104 -69 144 -124 15 -21 0 -12 -54 31 -41 33 -92 70 -114 83 -48 28 -235
160 -235 166 0 3 25 -11 56 -31 30 -20 72 -46 92 -59z m-1058 65 c0 -10 5 -31
10 -47 14 -39 62 -53 194 -58 81 -3 107 0 142 15 45 20 54 34 54 81 0 47 25
28 28 -22 3 -41 1 -46 -54 -98 -32 -30 -60 -49 -62 -43 -2 7 2 20 10 29 30 34
30 44 1 22 -23 -16 -37 -20 -54 -14 -27 8 -154 8 -168 -1 -5 -3 -12 -1 -16 5
-3 5 -13 10 -21 10 -12 0 -13 -4 -4 -21 7 -11 10 -23 7 -25 -9 -10 -70 51 -83
83 -19 45 -18 103 1 103 8 0 15 -8 15 -19z m-503 -16 c-33 -31 -34 -45 -4 -46
16 0 12 -5 -20 -19 -24 -11 -43 -22 -43 -25 0 -3 8 -2 18 3 19 11 274 82 288
81 5 0 -47 -20 -115 -44 -68 -25 -153 -58 -188 -74 -66 -31 -78 -30 -40 4 29
25 1 8 -32 -20 -30 -25 -19 -5 28 54 32 40 116 111 130 111 3 0 -7 -11 -22
-25z m2018 -150 c90 -74 97 -82 56 -59 -18 10 -75 60 -126 109 -50 50 -71 72
-46 49 25 -23 78 -67 116 -99z m-1437 112 c2 -12 -1 -15 -12 -11 -19 7 -22 38
-3 32 6 -3 13 -12 15 -21z m243 -10 c-8 -8 -11 -7 -11 4 0 20 13 34 18 19 3
-7 -1 -17 -7 -23z m668 -16 c44 -27 108 -72 140 -100 51 -44 153 -160 176
-199 14 -25 -27 3 -69 47 -22 22 -42 38 -46 36 -4 -3 -20 13 -35 35 -15 22
-81 82 -146 132 -66 50 -119 93 -119 95 0 10 25 -2 99 -46z m-879 19 c0 -11
-4 -20 -10 -20 -5 0 -10 9 -10 20 0 11 5 20 10 20 6 0 10 -9 10 -20z m40 1 c0
-23 -16 -36 -25 -21 -9 14 1 40 15 40 5 0 10 -9 10 -19z m50 -6 c0 -16 -6 -25
-15 -25 -9 0 -15 9 -15 25 0 16 6 25 15 25 9 0 15 -9 15 -25z m48 3 c-2 -13
-7 -23 -13 -23 -5 0 -11 10 -13 23 -2 15 2 22 13 22 11 0 15 -7 13 -22z m52
-2 c0 -13 -7 -26 -15 -30 -11 -4 -15 2 -15 24 0 20 5 30 15 30 9 0 15 -9 15
-24z m398 -22 c91 -22 214 -81 290 -138 100 -77 92 -87 -21 -30 -56 28 -162
73 -236 99 -73 27 -129 51 -123 53 10 3 147 -29 187 -44 11 -4 17 -4 14 0 -4
4 -49 22 -100 41 -106 38 -108 42 -11 19z m-956 -24 c-124 -43 -279 -123 -350
-180 -55 -44 -61 -47 -48 -22 31 60 230 171 378 211 106 29 116 24 20 -9z
m228 -8 c0 -4 -39 -16 -87 -25 -210 -43 -438 -142 -525 -229 -10 -10 -18 -14
-18 -9 0 15 105 97 179 141 124 73 293 127 404 129 26 1 47 -2 47 -7z m43 -69
l32 -18 -95 -6 c-52 -4 -146 -17 -208 -29 -62 -12 -118 -20 -125 -17 -6 2 8
14 31 26 109 56 300 79 365 44z m1151 -153 c38 -70 19 -56 -40 28 -26 37 -58
83 -72 102 -16 23 -6 16 29 -21 30 -31 67 -80 83 -109z m-474 125 c47 -9 126
-32 175 -51 91 -36 137 -62 74 -43 -68 20 -377 78 -482 90 -59 6 -107 16 -107
22 0 14 234 2 340 -18z m-957 -75 c-84 -16 -169 -33 -188 -39 -60 -16 -28 6
40 29 84 28 143 38 230 38 67 0 64 -1 -82 -28z m1067 -5 c105 -22 128 -37 48
-30 -285 23 -1061 35 -933 15 66 -11 468 -30 648 -31 78 0 160 -4 182 -8 36
-8 37 -9 10 -10 -26 -1 -14 -10 80 -62 121 -67 235 -145 235 -160 0 -14 0 -13
-88 45 -117 79 -236 134 -312 146 -36 5 -135 10 -220 10 -85 0 -261 7 -390 16
-366 24 -471 10 -628 -85 -45 -27 -82 -45 -82 -41 0 16 86 82 145 110 81 40
161 60 275 69 52 5 84 9 70 11 -74 9 110 15 480 17 313 1 431 -2 480 -12z
m440 -68 c0 -7 -11 2 -25 18 -32 39 -32 58 0 22 14 -15 25 -33 25 -40z m-1269
-47 c97 -17 160 -20 416 -20 261 0 304 -2 317 -16 9 -8 16 -22 16 -30 0 -13
-3 -13 -22 0 -37 26 -68 19 -191 -44 -85 -43 -129 -60 -158 -60 -21 0 -39 4
-39 8 0 5 17 28 38 52 l37 44 -34 -19 c-18 -11 -51 -40 -73 -65 -31 -35 -41
-41 -48 -30 -6 8 -7 31 -4 50 l5 35 -15 -25 c-20 -33 -20 -80 0 -108 19 -28
14 -35 -26 -35 -48 0 -64 23 -62 92 1 33 -3 63 -8 66 -6 4 -10 -10 -10 -33 0
-55 -36 -106 -78 -110 -37 -4 -39 1 -12 35 23 30 27 100 7 127 -11 15 -12 12
-9 -21 3 -27 -2 -46 -15 -62 l-19 -23 -67 46 c-42 29 -64 39 -58 28 5 -10 17
-24 25 -32 41 -33 8 -28 -61 10 -90 49 -203 127 -203 140 0 26 204 26 351 0z
m-457 -88 c-31 -57 -36 -73 -30 -105 4 -20 17 -49 29 -63 l23 -26 -4 40 c-3
34 1 46 22 66 29 30 53 32 104 9 30 -13 33 -17 17 -20 -54 -10 -65 -14 -63
-21 1 -4 -4 -18 -11 -31 -7 -13 -11 -34 -8 -48 4 -24 3 -25 -39 -18 -55 8 -58
-8 -4 -24 48 -14 52 -31 8 -31 -18 0 -40 -5 -48 -11 -11 -8 -7 -9 18 -5 17 3
32 1 32 -4 0 -14 33 1 48 22 15 21 53 23 85 6 14 -8 64 -12 142 -10 l120 1
-60 -20 c-102 -33 -144 -38 -194 -23 -41 12 -44 11 -26 -2 37 -28 90 -38 145
-27 42 8 48 8 39 -3 -23 -28 -110 -45 -195 -38 -61 5 -83 3 -89 -6 -5 -9 -4
-11 3 -6 6 4 40 -1 74 -10 105 -27 205 -3 304 73 l31 23 -1 -62 c0 -35 3 -82
8 -105 l8 -41 -40 5 c-57 8 -87 -14 -220 -157 l-112 -120 0 57 c0 67 -25 126
-55 131 -56 10 -115 88 -115 152 0 40 13 65 59 114 27 28 30 35 13 27 -12 -7
-36 -30 -52 -52 l-29 -41 -7 27 c-10 40 14 341 30 380 13 30 50 65 69 65 4 0
-9 -31 -29 -68z m1244 26 c14 -27 33 -88 27 -88 -5 0 -32 51 -45 85 -12 31 2
33 18 3z m-1093 -16 c17 -8 50 -29 75 -45 24 -17 69 -42 100 -55 44 -19 48
-22 21 -18 -19 4 -79 33 -134 66 -55 33 -111 60 -124 60 -13 0 -35 -11 -48
-25 -14 -13 -25 -20 -25 -15 0 4 14 20 31 34 33 28 46 28 104 -2z m1168 -14
c26 -19 27 -22 27 -111 0 -52 7 -113 15 -140 15 -49 12 -93 -10 -137 -8 -15
-11 -44 -8 -71 7 -64 -21 -124 -86 -180 -50 -43 -51 -45 -51 -99 0 -54 -15
-100 -35 -107 -5 -1 -27 24 -49 57 -21 33 -53 70 -70 83 -17 12 -64 52 -104
90 -76 70 -136 107 -172 107 -32 0 -70 -44 -70 -81 l0 -32 25 27 c33 36 74 33
93 -7 22 -46 9 -73 -38 -80 -32 -4 -54 -17 -95 -56 -46 -44 -59 -51 -94 -51
-59 0 -101 40 -108 103 -5 45 -17 61 -26 35 -3 -10 -11 -10 -33 -3 -22 8 -30
17 -32 41 -3 30 18 64 38 64 11 0 37 -26 43 -42 2 -7 7 -11 10 -8 14 13 39
202 41 302 l1 107 34 19 34 20 31 -33 c17 -17 37 -34 43 -36 10 -3 10 -13 2
-44 -13 -47 -6 -254 10 -282 7 -13 8 11 4 83 -3 55 -2 118 2 140 l8 39 9 -32
c10 -39 25 -43 30 -8 l3 26 55 -42 c82 -62 134 -83 210 -82 36 0 80 6 99 14
33 14 31 14 -42 11 -81 -4 -135 8 -161 37 -16 18 -14 18 52 13 55 -4 77 0 120
18 65 28 63 34 -3 14 -54 -16 -99 -13 -180 13 -79 25 -73 31 25 25 56 -3 119
0 160 8 60 11 73 11 109 -4 23 -9 51 -16 64 -15 12 1 2 6 -23 11 l-45 10 37
19 c20 10 40 24 43 30 4 6 -7 3 -25 -6 -48 -25 -49 -10 -2 30 48 41 61 93 45
175 -11 53 -11 53 40 18z m-155 3 c9 -5 -1 -10 -30 -13 -25 -3 -88 -26 -141
-52 -102 -49 -172 -66 -203 -47 -15 8 -7 10 43 11 54 0 73 6 150 46 116 62
153 73 181 55z m-1274 -93 c-56 -111 -137 -137 -323 -102 -95 18 -143 14 -204
-18 -30 -15 -38 -16 -29 -5 35 42 175 76 240 57 24 -6 38 -6 40 0 2 6 18 10
35 10 38 0 100 27 163 70 57 40 67 33 18 -14 -36 -35 -80 -55 -164 -75 -44
-10 -43 -10 25 -7 46 2 84 10 111 24 46 23 94 74 95 100 0 10 3 12 5 5 3 -6
-2 -27 -12 -45z m1561 -103 c13 -38 33 -95 44 -125 22 -59 29 -194 11 -205
-16 -10 -42 63 -35 96 4 16 11 27 16 23 16 -9 10 15 -36 152 -25 73 -45 148
-44 166 l1 33 10 -35 c5 -19 20 -66 33 -105z m-255 103 c52 -36 56 -62 16
-105 l-33 -36 -36 22 c-22 13 -69 27 -124 35 l-88 13 39 16 c54 23 121 22 162
-4 19 -11 34 -17 34 -12 0 20 -28 45 -65 57 l-40 14 35 10 c53 15 64 14 100
-10z m-785 -8 c3 -5 1 -10 -4 -10 -6 0 -11 5 -11 10 0 6 2 10 4 10 3 0 8 -4
11 -10z m1136 -91 c27 -33 62 -58 134 -94 86 -43 100 -54 117 -89 16 -35 18
-36 13 -11 -9 41 -28 60 -110 113 -91 58 -145 101 -145 115 0 6 10 1 23 -10
12 -12 58 -38 102 -58 88 -40 110 -56 133 -100 16 -31 20 -125 8 -183 -7 -31
-8 -31 -32 -15 -18 11 -22 18 -13 24 13 8 7 125 -8 140 -4 4 -41 15 -82 24
-41 8 -91 25 -113 37 -35 20 -98 97 -98 121 0 6 10 -5 23 -24 27 -40 102 -99
125 -99 11 1 6 7 -13 17 -47 24 -95 74 -121 125 -42 82 -33 77 57 -33z m-1298
49 c38 -15 34 -28 -10 -28 -21 -1 -62 -9 -90 -19 -54 -18 -61 -15 -43 19 24
45 75 55 143 28z m-37 -105 c-6 -7 -46 16 -46 27 0 18 35 15 43 -4 4 -10 5
-21 3 -23z m153 10 c-41 -17 -40 -17 -28 11 10 21 14 23 36 13 l24 -11 -32
-13z m554 10 c3 -16 4 -29 3 -30 -1 -1 -20 2 -41 8 l-39 11 23 19 c32 26 48
24 54 -8z m64 21 c-3 -3 -12 -4 -19 -1 -8 3 -5 6 6 6 11 1 17 -2 13 -5z m33
-4 c0 -5 -2 -10 -4 -10 -3 0 -8 5 -11 10 -3 6 -1 10 4 10 6 0 11 -4 11 -10z
m60 -26 c0 -8 -4 -14 -9 -14 -5 0 -17 -3 -26 -6 -13 -6 -14 -3 -4 19 12 26 39
27 39 1z m-1236 -26 c-2 -24 -5 -79 -8 -123 -6 -121 -46 -189 -156 -268 -14
-10 4 -3 39 15 41 21 75 47 97 76 l34 45 1 -39 c2 -82 10 -139 19 -142 15 -6
12 -36 -10 -83 -11 -24 -20 -62 -21 -84 0 -22 -4 -51 -8 -65 l-8 -25 -6 30
c-19 88 -14 169 19 324 l7 34 -37 -33 c-95 -87 -187 -122 -268 -103 l-43 10
30 7 c114 28 210 97 260 187 28 51 30 60 28 147 -3 87 6 132 26 132 5 0 7 -19
5 -42z m-304 -9 c-62 -28 -105 -62 -140 -114 -32 -46 -37 -61 -18 -49 7 4 8 3
4 -5 -4 -6 -11 -9 -16 -6 -4 3 -10 -2 -14 -10 -3 -8 -10 -15 -15 -15 -10 0 42
85 84 137 26 32 116 83 144 83 9 0 -4 -10 -29 -21z m2185 -129 c16 -30 21 -91
7 -74 -8 8 -32 83 -32 98 0 14 10 4 25 -24z m-22 -102 c83 -82 111 -131 121
-213 l6 -50 -43 82 c-24 45 -69 112 -100 150 -56 69 -87 119 -86 138 0 6 6 1
12 -10 7 -11 47 -55 90 -97z m-18 86 c9 -15 12 -23 6 -20 -11 7 -35 46 -28 46
3 0 12 -12 22 -26z m106 -328 c85 -96 90 -105 35 -66 -79 57 -135 128 -187
235 -78 162 -68 171 24 20 46 -77 104 -162 128 -189z m-2080 227 c-9 -16 -10
-15 -11 9 0 14 3 35 8 45 6 15 8 14 10 -9 2 -15 -1 -35 -7 -45z m1705 -105
c-9 -88 -36 -149 -82 -185 -40 -30 -49 -26 -39 18 5 23 10 28 16 18 7 -11 10
-9 15 9 8 26 21 29 26 5 2 -10 17 33 33 95 17 61 32 112 34 112 2 0 0 -33 -3
-72z m118 -39 c3 -32 24 -114 45 -181 22 -68 47 -152 55 -188 19 -77 19 -239
2 -295 -11 -37 -12 -32 -12 70 1 62 -5 134 -13 165 -13 55 -65 173 -97 220 -9
14 -2 9 15 -10 l31 -35 -10 30 c-6 17 -22 49 -36 72 -23 40 -36 97 -14 63 18
-28 10 -3 -14 42 -19 35 -22 54 -18 96 l4 51 28 -20 c23 -17 28 -31 34 -80z
m-1598 -1 c20 -63 67 -121 84 -105 10 10 11 3 6 -33 -5 -38 -4 -42 6 -22 16
31 32 28 23 -5 -10 -44 -20 -47 -58 -14 -46 41 -79 120 -83 201 -2 36 -1 56 2
45 3 -11 12 -41 20 -67z m428 0 c6 -27 5 -28 -31 -28 l-37 0 29 30 c16 16 29
29 30 27 1 -1 5 -14 9 -29z m602 -49 c5 -8 -93 -3 -104 6 -1 1 3 16 9 33 l11
32 39 -31 c21 -17 41 -35 45 -40z m480 -83 c-12 -40 -27 -64 -61 -95 -25 -23
-57 -46 -71 -51 -39 -15 -125 -11 -167 8 -42 19 -210 165 -196 170 19 7 77
-20 124 -59 27 -22 63 -48 80 -57 38 -20 121 -20 162 1 48 25 113 105 126 156
12 45 12 45 15 13 2 -18 -4 -56 -12 -86z m-1178 35 c-25 -16 -63 -50 -84 -77
-103 -128 -156 -158 -234 -135 -53 16 -79 57 -78 124 l0 49 15 -29 c8 -15 22
-36 31 -47 16 -18 16 -18 -5 -7 -13 6 -23 17 -23 23 0 6 -3 8 -6 5 -12 -11 24
-54 55 -67 54 -22 95 -6 175 70 76 72 147 120 180 120 14 0 5 -9 -26 -29z
m137 19 c-11 -4 -34 -13 -51 -20 -18 -6 -78 -59 -134 -117 -118 -122 -164
-149 -230 -134 -55 12 -65 24 -14 15 73 -11 113 16 216 146 56 70 137 120 193
119 31 0 36 -2 20 -9z m-96 -117 c-104 -101 -154 -143 -172 -143 -4 0 9 14 28
32 20 17 63 64 95 103 51 62 120 115 152 115 4 0 -43 -48 -103 -107z m-624 50
l-28 -48 37 34 c47 45 46 31 -2 -33 -67 -89 -67 -98 0 -38 25 22 37 29 30 17
-13 -26 -136 -135 -182 -164 -19 -11 -46 -21 -60 -20 -23 1 -23 1 5 10 48 13
93 66 142 164 41 82 69 125 81 125 2 0 -8 -21 -23 -47z m1328 -42 c115 -110
142 -125 229 -126 47 0 60 -3 45 -8 -40 -15 -101 -10 -152 12 -52 23 -255 211
-228 211 8 0 55 -40 106 -89z m-553 76 c0 -1 -30 -32 -66 -67 -37 -36 -62 -56
-56 -45 16 31 122 129 122 112z m655 -217 c43 -17 45 -20 15 -14 -51 9 -110
46 -150 96 -100 122 -104 135 -13 40 74 -77 111 -107 148 -122z m588 124 c17
-33 93 -104 110 -104 5 0 32 -14 59 -30 49 -31 51 -29 17 20 -10 14 -21 45
-24 70 l-7 45 31 -30 c20 -19 37 -49 47 -85 9 -30 24 -69 34 -86 l18 -31 -46
9 c-53 9 -136 46 -172 76 -17 14 -4 10 45 -13 39 -19 84 -36 100 -40 17 -3 -6
12 -50 34 -89 44 -158 98 -180 142 -8 15 -14 50 -14 76 1 46 2 47 8 13 4 -19
15 -49 24 -66z m-791 -28 c6 -12 -14 6 -45 39 -31 33 -56 65 -56 70 0 13 86
-81 101 -109z m-108 57 c23 -26 65 -70 94 -99 28 -29 52 -55 52 -58 0 -20 -38
1 -81 47 -27 28 -54 52 -59 52 -10 0 -70 84 -70 98 0 20 28 2 64 -40z m-313
10 c-14 -26 -88 -95 -155 -143 -91 -66 -180 -103 -251 -104 -65 -1 -144 24
-167 52 -9 11 -1 9 25 -7 50 -30 158 -32 232 -4 63 25 205 117 270 176 56 52
59 54 46 30z m284 -60 c48 -80 27 -76 -25 4 -15 23 -30 40 -33 37 -3 -3 -3 3
0 15 3 12 7 21 8 21 2 0 24 -35 50 -77z m-53 -7 c16 -22 17 -27 5 -20 -20 11
-67 74 -67 88 0 11 19 -9 62 -68z m995 52 c-3 -8 -6 -5 -6 6 -1 11 2 17 5 13
3 -3 4 -12 1 -19z m79 -55 c13 -31 22 -58 20 -60 -7 -8 -53 69 -60 100 -11 45
12 22 40 -40z m-1321 -4 c-56 -57 -29 -50 37 9 30 27 38 31 29 15 -16 -31 -73
-72 -116 -84 -20 -6 -39 -8 -42 -6 -5 5 124 117 135 117 3 0 -16 -23 -43 -51z
m125 38 c0 -2 -14 -16 -32 -33 l-32 -29 25 32 c20 27 39 41 39 30z m895 -48
c53 -104 67 -187 66 -381 -1 -177 -1 -177 -40 -295 -34 -105 -66 -183 -74
-183 -2 0 8 33 21 73 35 99 37 266 5 345 -22 53 -148 232 -164 232 -10 0 16
-68 59 -155 59 -119 101 -306 86 -388 -7 -38 -9 -32 -21 66 -16 135 -38 200
-119 359 l-64 128 40 20 c22 11 55 34 74 51 l35 30 22 -51 c12 -28 23 -49 25
-47 3 2 -5 27 -17 56 -24 57 -18 79 11 41 22 -28 25 -24 10 14 -5 14 -6 36 -1
47 6 19 12 10 35 -52 16 -41 37 -112 47 -159 l19 -85 -5 68 c-4 42 -20 106
-41 165 -55 149 -59 202 -9 101z m-655 -21 l23 -33 -26 24 c-15 14 -27 28 -27
33 0 14 5 9 30 -24z m-1144 -36 c-8 -16 -31 -43 -51 -61 -43 -38 -39 -39 26
-5 65 32 74 25 18 -16 -47 -34 -81 -45 -105 -36 -12 5 -1 22 53 80 37 40 69
72 71 71 2 -2 -3 -16 -12 -33z m939 -30 c-115 -3 -141 5 -102 31 20 13 31 14
54 5 24 -9 34 -8 53 5 21 15 25 14 63 -11 l41 -27 -109 -3z m710 18 c-16 -17
-51 -41 -79 -55 -85 -42 -210 -29 -281 30 -28 23 -26 23 38 -6 109 -50 227
-38 308 31 44 38 50 38 14 0z m-1505 -41 c0 -11 5 -17 10 -14 15 10 12 -1 -19
-63 -41 -82 -53 -126 -60 -217 l-7 -80 -13 57 c-12 51 -12 68 3 143 17 91 58
195 75 195 6 0 11 -9 11 -21z m930 -24 c-16 -19 2 -20 49 -4 38 13 49 6 30
-17 -12 -15 -12 -16 6 -11 61 18 78 20 73 6 -2 -8 -19 -24 -38 -36 -41 -29
-93 -29 -160 -3 -62 24 -136 26 -199 3 -58 -20 -109 -12 -142 24 -21 23 -22
25 -4 18 11 -4 29 -10 40 -12 l20 -5 -20 16 c-19 15 -19 15 11 10 21 -4 34 -1
43 10 11 13 38 16 158 16 128 0 144 -2 133 -15z m-1063 -42 c-31 -45 -117
-131 -117 -118 0 22 44 82 88 122 26 22 49 39 51 37 2 -2 -8 -21 -22 -41z
m183 8 c0 -9 -11 -48 -25 -87 l-25 -69 6 50 c3 28 2 47 -2 42 -11 -10 -17
-118 -16 -257 1 -93 -1 -110 -10 -90 -6 14 -12 80 -12 150 -1 97 3 137 18 179
14 40 21 50 28 40 8 -11 9 -10 4 4 -7 21 13 69 25 61 5 -3 9 -13 9 -23z m88
-34 l50 -23 -20 -45 c-31 -68 -48 -120 -38 -114 5 3 33 39 61 80 28 41 56 75
61 75 11 0 6 -8 -50 -85 -49 -66 -32 -55 29 20 54 66 87 85 73 43 -12 -39 -65
-141 -104 -198 -51 -75 -79 -133 -107 -215 l-23 -70 6 55 c6 55 46 189 79 265
16 36 16 38 0 25 -51 -42 -84 -167 -92 -340 l-6 -135 -14 50 c-12 39 -14 98
-11 275 4 198 7 233 27 293 12 37 23 67 25 67 2 0 27 -10 54 -23z m1054 -73
c3 -49 11 -100 17 -114 l12 -25 -6 25 c-3 14 -8 63 -10 110 -5 84 -5 85 9 39
26 -91 77 -167 189 -284 119 -124 159 -149 59 -36 -48 53 -57 68 -39 64 15 -4
8 5 -23 29 -55 43 -94 97 -116 160 -28 83 -12 86 38 7 26 -41 66 -94 88 -119
l41 -45 -41 55 c-43 58 -106 177 -98 185 2 3 19 -15 37 -39 18 -24 47 -54 63
-66 34 -25 32 -20 -21 55 -20 28 -28 44 -19 37 27 -21 113 -153 136 -208 12
-29 29 -94 38 -145 14 -81 15 -115 5 -237 -11 -136 -34 -239 -61 -266 -6 -6
-3 9 6 34 25 66 26 310 1 310 -5 0 -7 7 -3 15 3 8 2 15 -3 15 -5 0 -14 13 -20
29 -7 15 -31 46 -53 67 l-41 39 31 -40 c92 -119 122 -307 69 -437 -10 -25 -12
-10 -13 109 -1 76 -6 152 -11 168 -8 25 -9 20 -9 -35 0 -83 -14 -220 -22 -219
-23 1 -56 68 -68 137 -13 78 -53 216 -61 209 -2 -2 5 -42 16 -88 28 -121 34
-187 21 -244 -11 -50 -52 -115 -72 -115 -6 0 -4 8 5 18 42 46 58 154 38 247
-6 27 -7 28 -15 10 -8 -19 -8 -19 -18 5 -5 14 -13 84 -18 155 -11 149 -13 160
-69 275 -49 102 -59 160 -37 214 25 60 40 41 48 -60z m-656 -21 c10 -38 -4
-88 -39 -134 l-32 -44 -5 40 -5 40 -24 -54 c-38 -88 -51 -144 -66 -275 -8 -79
-21 -142 -36 -175 -12 -28 -23 -50 -25 -48 -2 2 3 38 11 81 8 43 14 92 14 109
-1 23 -4 18 -10 -20 -5 -29 -18 -85 -29 -125 -25 -90 -35 -217 -22 -283 6 -27
9 -51 7 -53 -2 -2 -16 23 -31 55 -42 85 -43 161 -5 352 17 84 34 179 37 210 5
52 4 54 -9 31 -27 -47 -75 -206 -87 -289 -7 -46 -10 -113 -8 -149 l6 -67 -20
45 c-70 163 -62 345 26 534 27 58 51 92 104 143 39 38 77 82 86 98 19 38 21
16 2 -30 -8 -19 -13 -35 -11 -35 10 0 28 45 35 89 7 38 8 32 6 -39 -1 -47 -6
-94 -9 -105 -4 -11 2 0 14 23 11 24 23 60 25 80 3 21 8 53 11 72 l5 35 39 -44
c22 -24 42 -55 45 -68z m1490 45 c-15 28 -22 52 -16 52 5 0 28 -38 50 -85 25
-52 63 -110 100 -151 32 -37 63 -80 69 -94 8 -25 5 -24 -33 14 -24 24 -88 66
-151 99 -110 57 -137 75 -165 112 -8 11 4 5 27 -13 35 -27 100 -62 117 -62 3
0 -13 17 -35 38 -23 22 -47 58 -59 90 -11 28 -19 52 -17 52 2 0 25 -29 51 -65
26 -36 49 -65 52 -65 11 0 1 22 -36 81 l-40 64 56 -60 56 -60 -26 53z m-1679
-19 c-8 -19 -22 -43 -31 -54 -9 -11 -4 6 11 37 28 61 44 74 20 17z m471 -49
c3 -8 8 5 12 30 l5 45 8 -65 c4 -36 16 -98 27 -138 25 -90 25 -120 0 -206 -11
-38 -18 -71 -16 -73 2 -2 15 26 30 62 31 78 33 133 6 235 -26 98 -25 115 4 60
12 -25 35 -67 50 -93 37 -62 37 -116 1 -227 -23 -73 -28 -105 -30 -225 -3
-164 -19 -233 -27 -118 -5 69 -38 152 -63 159 -5 2 -23 -27 -40 -64 l-30 -67
-11 86 c-6 47 -19 100 -28 117 -18 35 -31 43 -21 14 3 -11 9 -60 14 -110 5
-58 15 -104 28 -129 81 -151 78 -142 78 -240 -1 -51 0 -91 1 -90 0 1 26 58 57
127 54 122 67 172 81 325 2 22 2 -5 0 -60 -2 -55 -6 -111 -9 -125 -3 -14 6 -1
21 28 34 71 40 139 19 240 -14 70 -15 93 -5 156 7 40 11 92 8 116 -4 41 -4 42
14 20 10 -12 23 -40 29 -62 5 -22 13 -38 15 -35 12 12 -19 87 -57 137 -45 59
-94 156 -104 205 -6 29 -6 29 7 7 8 -12 17 -19 21 -16 4 4 7 -5 7 -20 0 -52
58 -147 120 -196 l39 -31 -9 28 c-4 15 -13 41 -19 57 -23 58 -3 34 47 -56 92
-167 101 -263 37 -397 -19 -39 -36 -71 -37 -71 -2 0 -2 39 0 87 1 51 -3 109
-11 138 -13 48 -14 43 -13 -100 1 -141 -1 -155 -27 -227 -16 -43 -59 -129 -97
-192 -37 -63 -75 -134 -83 -158 -20 -56 -29 -135 -17 -143 6 -3 10 3 10 13 0
45 43 153 92 232 28 47 67 112 85 145 l34 60 -7 -40 c-10 -65 -34 -136 -69
-200 -115 -209 -130 -260 -145 -471 -6 -81 -12 -150 -14 -151 -3 -3 -32 182
-45 287 l-8 65 -2 -90 -2 -90 -23 63 c-25 66 -48 114 -111 227 l-38 70 37 -40
36 -40 -20 36 c-15 27 -22 61 -25 127 -3 65 -10 104 -26 136 -31 67 -40 65
-14 -2 42 -107 40 -123 -6 -52 -45 71 -62 112 -73 179 l-7 44 43 -34 c63 -51
95 -123 108 -241 5 -53 18 -118 28 -143 l18 -45 -2 163 c-1 179 0 176 -88 322
-38 62 -48 91 -86 259 -22 95 -24 173 -6 231 4 11 -1 4 -11 -15 -13 -28 -18
-74 -22 -220 l-6 -185 -24 55 c-58 132 -33 314 64 476 30 50 55 96 55 104 0 7
3 10 6 7 4 -4 -3 -34 -15 -68 -23 -62 -22 -81 3 -60 10 8 9 1 -4 -26 -10 -21
-21 -54 -25 -73 -6 -32 -4 -31 18 15 14 28 32 59 42 70 16 20 16 20 11 -5 -14
-71 -15 -99 -7 -145 l9 -50 1 74 c1 57 11 108 44 214 31 102 43 132 46 111 3
-26 4 -27 11 -9 7 16 9 16 9 4 1 -10 -15 -58 -34 -108 -28 -72 -35 -103 -34
-153 l2 -63 7 71 c6 51 20 97 51 165 23 52 47 99 52 104 14 15 1 -62 -28 -162
-27 -93 -30 -134 -14 -202 10 -46 49 -144 55 -138 2 1 -3 27 -11 57 -19 71
-19 206 0 295 8 38 15 95 16 125 1 54 1 54 11 20 6 -19 13 -42 16 -50z m-1003
-40 c-17 -51 -25 -90 -20 -107 l6 -25 34 38 34 39 -4 -35 c-4 -34 -19 -50 -75
-84 l-27 -15 4 52 c7 81 22 148 45 196 32 66 34 33 3 -59z m-98 53 c-2 -5 -27
-47 -56 -95 -66 -111 -95 -188 -122 -329 -23 -118 -30 -286 -17 -389 l7 -55
-20 70 c-32 112 -35 239 -10 377 12 65 32 148 46 184 28 75 103 193 142 224
27 21 37 25 30 13z m1398 -134 c43 -85 42 -111 -3 -43 -39 61 -62 116 -62 147
0 39 14 41 22 3 4 -20 24 -68 43 -107z m-1264 58 c-11 -29 -51 -95 -51 -84 0
4 7 24 15 44 22 53 54 89 36 40z m-121 -107 c0 -106 -1 -112 -26 -137 -29 -29
-38 -26 -28 12 5 20 9 23 15 13 6 -7 7 25 3 79 -6 77 -4 96 10 118 9 14 19 25
21 25 3 0 5 -50 5 -110z m2256 -184 c4 -45 0 -38 -30 57 -48 150 -53 189 -10
83 19 -49 37 -112 40 -140z m-2339 117 c-12 -23 -57 -156 -57 -169 0 -1 19 6
43 16 54 25 87 26 87 3 0 -12 -23 -29 -70 -51 -87 -41 -90 -49 -97 -274 -3
-93 -8 -168 -12 -168 -14 0 -4 336 13 415 30 140 47 198 74 260 26 58 27 59
30 28 2 -17 -3 -44 -11 -60z m2413 -4 c25 -74 41 -205 31 -265 -7 -45 -58
-178 -81 -214 -8 -13 -10 -13 -10 2 0 50 23 170 40 204 28 53 28 197 1 284
-24 76 -9 66 19 -11z m-173 -134 c-2 -5 -14 20 -26 56 -15 45 -20 76 -15 95 6
25 10 16 26 -56 10 -47 17 -89 15 -95z m-2073 99 c3 -8 2 -12 -4 -9 -19 12
-52 -128 -58 -254 -5 -86 -11 -126 -19 -129 -10 -3 -13 23 -13 110 0 100 3
121 28 183 28 70 50 115 56 115 2 0 7 -7 10 -16z m2225 -134 c0 -41 -4 -82 -9
-90 -7 -10 -10 17 -10 85 0 55 -3 111 -5 125 -3 16 0 12 9 -10 8 -19 15 -69
15 -110z m-188 40 c19 -62 21 -88 16 -208 -4 -120 -8 -148 -35 -226 -29 -81
-75 -176 -120 -244 -9 -15 -11 -23 -4 -18 7 4 33 38 57 74 54 81 58 74 9 -19
-25 -47 -54 -83 -93 -116 -34 -29 -49 -38 -38 -23 25 35 87 162 87 177 0 7 4
13 10 13 5 0 6 7 3 17 -5 12 -3 14 7 8 10 -6 12 -4 7 9 -4 9 2 49 13 89 23 82
25 100 9 95 -6 -2 -35 -75 -65 -163 -58 -170 -102 -267 -146 -318 -22 -27 -19
-17 17 55 24 47 48 113 54 145 6 32 18 71 27 87 11 21 17 74 21 185 5 112 9
148 16 130 5 -13 6 -73 3 -134 -3 -63 -2 -104 3 -95 13 23 32 113 41 193 l7
72 2 -57 c1 -59 14 -77 25 -35 3 12 7 76 7 142 l2 120 8 -135 c4 -74 5 -153 3
-175 -4 -37 -4 -38 7 -15 7 14 12 75 13 142 0 68 5 114 10 111 9 -6 3 92 -10
155 -12 58 5 34 27 -38z m93 -26 c22 -82 21 -96 -6 -92 -22 3 -23 9 -26 88 -3
95 6 97 32 4z m-2094 21 c4 3 6 -4 3 -15 -8 -32 -23 -12 -22 28 2 31 3 32 6 9
2 -15 8 -25 13 -22z m-151 -148 c-101 -69 -158 -95 -108 -48 26 24 101 63 108
56 2 -3 2 -6 0 -8z m2245 3 c28 -10 37 -50 12 -50 -30 0 -46 13 -46 36 0 27 0
27 34 14z m20 -102 c5 -4 7 -10 4 -14 -8 -7 -68 24 -68 36 0 10 46 -6 64 -22z
m-1464 -173 c5 -34 21 -93 35 -129 14 -37 25 -86 25 -109 0 -23 6 -67 14 -97
14 -54 14 -54 -5 -30 -42 55 -74 117 -80 160 l-6 45 -2 -51 c-2 -76 31 -170
122 -346 45 -87 78 -160 75 -164 -4 -3 -13 8 -22 24 -8 16 -69 84 -134 149
-134 135 -172 196 -172 276 0 45 1 48 17 36 15 -12 16 -12 9 6 -5 11 -18 43
-29 70 -23 58 -29 213 -9 255 12 24 12 24 6 -7 -8 -46 12 -173 36 -224 11 -24
18 -37 16 -28 -20 72 -28 150 -22 215 9 108 25 129 26 34 1 -41 8 -91 16 -110
l14 -35 -5 38 c-4 21 -3 76 1 122 l7 84 28 -60 c16 -33 33 -89 39 -124z m726
8 c4 -33 10 -43 23 -43 24 0 69 36 91 73 l18 29 13 -23 c8 -14 15 -69 17 -134
3 -99 1 -117 -22 -178 -31 -84 -80 -158 -142 -217 l-48 -45 37 45 c47 57 100
150 123 215 23 67 24 197 1 245 l-17 35 8 -35 c4 -19 7 -73 6 -120 0 -78 -4
-92 -42 -173 -36 -78 -138 -224 -148 -214 -2 2 22 53 53 113 55 105 58 112 58
184 0 82 -26 164 -39 125 -23 -64 -55 -116 -129 -208 -46 -57 -103 -141 -127
-188 l-42 -84 6 59 c8 70 61 190 128 287 52 76 74 135 84 229 8 77 16 102 52
154 l27 40 2 -65 c2 -35 5 -83 9 -106z m41 60 c-2 -21 -4 -4 -4 37 0 41 2 58
4 38 2 -21 2 -55 0 -75z m-733 11 c3 -8 2 -12 -4 -9 -6 3 -10 10 -10 16 0 14
7 11 14 -7z m1509 -9 c-3 -9 -8 -14 -10 -11 -3 3 -2 9 2 15 9 16 15 13 8 -4z
m-796 -17 c-3 -8 -6 -5 -6 6 -1 11 2 17 5 13 3 -3 4 -12 1 -19z m-1150 -150
l40 -63 -6 -95 -6 -95 -22 50 c-40 94 -64 190 -69 275 -4 84 -4 85 9 38 7 -25
32 -75 54 -110z m1924 115 c-12 -20 -14 -14 -5 12 4 9 9 14 11 11 3 -2 0 -13
-6 -23z m-2064 -115 c-3 -8 -6 -5 -6 6 -1 11 2 17 5 13 3 -3 4 -12 1 -19z m77
-196 c9 -18 14 -37 11 -42 -3 -5 0 -7 8 -5 7 3 20 -2 29 -12 17 -19 89 -143
83 -143 -2 0 -20 24 -41 53 -43 59 -54 68 -68 60 -5 -3 -6 -1 -2 6 4 6 12 9
17 6 5 -3 6 1 2 10 -4 12 -8 13 -13 5 -10 -17 -24 -7 -49 36 -12 19 -16 32
-10 28 7 -4 10 -1 7 7 -3 8 -10 13 -16 12 -7 -2 -9 4 -5 14 4 9 2 14 -3 11 -5
-4 -10 4 -10 15 -1 12 -4 45 -8 72 -7 50 -7 50 22 -25 16 -41 36 -90 46 -108z
m51 -149 c38 -43 54 -64 36 -48 -33 30 -116 125 -109 125 2 0 35 -35 73 -77z
m1065 -107 c0 -2 -7 -9 -15 -16 -13 -11 -14 -10 -9 4 5 14 24 23 24 12z"/>
<path d="M2320 4678 c0 -46 81 -119 153 -139 82 -22 185 20 222 90 22 43 19
47 -11 11 -91 -107 -262 -98 -341 19 -13 19 -23 27 -23 19z"/>
<path d="M2355 4282 c-36 -5 -76 -45 -85 -85 l-8 -38 41 24 c25 14 50 39 61
61 20 41 20 43 -9 38z"/>
<path d="M2557 4262 c-19 -21 -22 -32 -7 -32 6 0 28 -13 51 -29 34 -25 69 -32
69 -14 0 24 -63 92 -86 93 -6 0 -18 -8 -27 -18z"/>
<path d="M2669 4234 c12 -15 21 -34 21 -43 0 -10 7 -26 15 -37 14 -18 14 -18
15 11 0 37 -34 95 -56 95 -13 0 -12 -4 5 -26z"/>
<path d="M2236 4143 c-6 -14 -5 -15 5 -6 7 7 10 15 7 18 -3 3 -9 -2 -12 -12z"/>
<path d="M2316 4140 c-49 -15 -69 -40 -62 -78 7 -47 32 -82 59 -82 38 0 86 38
109 85 20 40 20 47 7 60 -19 20 -75 27 -113 15z"/>
<path d="M2531 4132 l-25 -19 21 -49 c22 -50 66 -84 110 -84 31 0 63 45 63 91
0 33 -5 41 -30 54 -52 27 -112 30 -139 7z"/>
<path d="M2442 4025 c-31 -39 -47 -85 -35 -103 16 -27 32 -25 51 7 l18 30 11
-30 c12 -32 34 -37 53 -14 10 13 10 23 -5 55 -19 41 -50 80 -65 80 -5 0 -17
-11 -28 -25z"/>
<path d="M2980 2969 c0 -5 6 -9 14 -9 8 0 28 -13 45 -29 33 -31 40 -29 16 6
-16 23 -75 48 -75 32z"/>
<path d="M3270 2894 c0 -6 7 -19 16 -30 14 -18 14 -18 3 6 -14 31 -19 36 -19
24z"/>
<path d="M1625 2579 c-4 -6 -5 -12 -2 -15 2 -3 7 2 10 11 7 17 1 20 -8 4z"/>
<path d="M3150 2226 c0 -2 8 -10 18 -17 15 -13 16 -12 3 4 -13 16 -21 21 -21
13z"/>
<path d="M3219 2130 c43 -66 81 -166 82 -214 0 -17 5 -40 10 -51 18 -38 1 110
-19 162 -16 43 -95 163 -107 163 -3 0 13 -27 34 -60z"/>
<path d="M1755 2149 c-4 -6 -5 -12 -2 -15 2 -3 7 2 10 11 7 17 1 20 -8 4z"/>
<path d="M1726 2081 c-8 -23 -18 -60 -21 -83 -4 -36 -3 -34 10 15 8 32 20 67
26 78 6 12 9 23 6 25 -2 3 -12 -13 -21 -35z"/>
<path d="M3001 1604 c0 -11 3 -14 6 -6 3 7 2 16 -1 19 -3 4 -6 -2 -5 -13z"/>
<path d="M3012 1560 c0 -14 2 -19 5 -12 2 6 2 18 0 25 -3 6 -5 1 -5 -13z"/>
<path d="M1810 1723 c-12 -37 -23 -104 -25 -148 l-4 -80 10 70 c5 39 18 104
28 145 11 41 18 76 16 78 -2 2 -13 -27 -25 -65z"/>
<path d="M2444 1810 c0 -96 2 -136 3 -87 2 48 2 126 0 175 -1 48 -3 8 -3 -88z"/>
<path d="M2175 1725 c2 -16 11 -75 20 -130 13 -91 22 -114 92 -254 71 -139 78
-159 81 -223 3 -45 8 -65 13 -57 5 9 9 -14 10 -61 1 -41 5 -104 9 -140 l7 -65
1 95 c1 52 -3 140 -8 195 -10 106 -10 107 -123 320 -39 73 -52 110 -67 195
-10 58 -23 116 -29 130 -11 24 -11 24 -6 -5z"/>
<path d="M2661 1624 c0 -11 3 -14 6 -6 3 7 2 16 -1 19 -3 4 -6 -2 -5 -13z"/>
<path d="M2669 1509 c-4 -86 -9 -104 -47 -185 -23 -49 -35 -80 -26 -69 33 40
83 158 89 209 4 29 3 72 -2 97 -9 41 -10 38 -14 -52z"/>
<path d="M2274 1480 c9 -33 129 -271 134 -265 3 2 -28 68 -68 147 -40 79 -69
132 -66 118z"/>
<path d="M3407 1249 c-18 -62 -16 -95 3 -45 11 30 25 106 19 106 -2 0 -12 -28
-22 -61z"/>
<path d="M2046 1037 c-6 -32 -4 -63 3 -87 14 -46 81 -138 147 -200 41 -39 44
-40 20 -10 -119 151 -136 184 -153 290 l-9 55 -8 -48z"/>
<path d="M2802 1300 c0 -14 2 -19 5 -12 2 6 2 18 0 25 -3 6 -5 1 -5 -13z"/>
<path d="M2812 1220 c0 -19 2 -27 5 -17 2 9 2 25 0 35 -3 9 -5 1 -5 -18z"/>
<path d="M1541 1264 c0 -11 3 -14 6 -6 3 7 2 16 -1 19 -3 4 -6 -2 -5 -13z"/>
<path d="M1161 974 c0 -11 3 -14 6 -6 3 7 2 16 -1 19 -3 4 -6 -2 -5 -13z"/>
<path d="M1840 947 c0 -34 20 -75 50 -102 l22 -20 -22 38 c-13 21 -29 55 -36
75 -12 35 -13 35 -14 9z"/>
</g>
</svg>