<?xml version="1.0" standalone="no"?>
<!DOCTYPE svg PUBLIC "-//W3C//DTD SVG 20010904//EN"
 "http://www.w3.org/TR/2001/REC-SVG-20010904/DTD/svg10.dtd">
<svg version="1.0" xmlns="http://www.w3.org/2000/svg"
 width="512.000000pt" height="512.000000pt" viewBox="0 0 512.000000 512.000000"
 preserveAspectRatio="xMidYMid meet">
<metadata>
Created by potrace 1.16, written by Peter Selinger 2001-2019
</metadata>
<g transform="translate(0.000000,512.000000) scale(0.100000,-0.100000)"
fill="#000000" stroke="none">
<path d="M2259 4906 c-78 -21 -145 -81 -180 -163 -12 -28 -25 -43 -36 -43 -10
0 -47 -16 -83 -35 -35 -19 -67 -35 -70 -35 -4 0 -13 18 -20 40 -18 55 -52 90
-88 90 -110 0 -301 -262 -458 -629 -70 -164 -162 -261 -248 -261 -73 -1 -119
-17 -153 -54 -68 -74 -63 -151 18 -258 132 -177 364 -340 637 -448 45 -18 82
-34 82 -35 0 -2 -31 -26 -69 -53 -80 -59 -104 -89 -124 -157 -12 -42 -19 -51
-43 -56 -28 -6 -27 -7 30 -34 49 -23 67 -27 113 -22 53 6 55 5 48 -16 -3 -12
-9 -51 -12 -88 -4 -54 -2 -72 16 -106 l21 -42 -26 -20 c-34 -27 -98 -27 -141
-2 -42 26 -81 95 -97 173 -18 85 -30 55 -24 -65 3 -70 10 -102 27 -135 51 -99
138 -159 216 -150 19 2 34 1 33 -3 -2 -4 -42 -41 -90 -83 -48 -42 -92 -85 -98
-96 -6 -11 -37 -38 -70 -60 -33 -22 -60 -42 -60 -43 0 -1 69 -2 153 -2 146 0
154 1 200 27 97 55 38 -15 -73 -86 -51 -33 -70 -52 -94 -97 -22 -41 -42 -62
-72 -78 -61 -33 -106 -74 -132 -120 l-23 -41 53 53 c29 29 73 63 98 75 40 19
170 55 170 47 0 -2 -26 -18 -57 -35 -105 -59 -182 -120 -239 -190 -66 -82
-108 -105 -228 -125 -110 -17 -183 -51 -245 -113 -70 -70 -103 -139 -110 -233
l-6 -75 -52 -47 c-29 -25 -62 -51 -74 -57 -21 -12 -20 -12 12 -41 114 -97 393
-278 533 -345 l71 -34 7 62 c17 151 70 300 125 348 18 16 22 18 12 5 -50 -61
-90 -199 -105 -359 -5 -64 -4 -78 7 -74 8 3 15 15 17 29 13 118 48 283 68 328
13 29 44 82 69 117 48 67 55 94 29 115 -16 13 -19 13 -152 -18 -19 -5 -23 -2
-20 12 3 19 138 64 195 65 68 0 98 -104 52 -180 -71 -115 -145 -302 -169 -428
-9 -45 -17 -62 -29 -63 -21 -1 75 -44 164 -74 111 -37 303 -84 416 -101 229
-34 623 -29 939 12 150 19 496 91 486 101 -2 2 -77 -10 -167 -26 -173 -31
-405 -61 -476 -61 l-43 0 30 48 c16 26 74 99 128 163 l99 115 102 39 c116 43
109 35 166 195 30 84 77 193 90 208 1 1 34 -14 74 -33 39 -19 97 -45 129 -56
58 -22 82 -36 82 -48 0 -19 -155 -199 -268 -313 -69 -70 -124 -130 -121 -133
7 -6 128 76 218 148 35 28 113 109 172 181 l109 130 0 95 c0 115 4 125 136
311 52 74 106 156 120 183 l25 47 47 -27 c56 -32 107 -68 146 -102 27 -25 28
-25 17 -3 -15 28 -92 89 -154 122 -44 23 -47 27 -41 55 3 17 8 32 10 34 5 6
246 -133 355 -205 53 -35 122 -86 152 -114 30 -27 63 -50 74 -50 44 0 125 -33
171 -70 63 -50 91 -112 75 -171 -12 -45 -3 -50 26 -13 24 31 27 74 7 113 -24
45 -102 110 -177 146 -38 18 -100 58 -137 88 -90 73 -249 176 -414 267 -130
72 -136 76 -142 111 -6 40 -43 82 -96 109 l-35 18 27 11 c71 27 142 42 172 37
38 -7 73 -41 86 -82 20 -69 9 21 -15 119 -26 103 -71 194 -94 189 -7 -1 -10 2
-6 7 5 10 -7 24 -47 53 -15 11 -10 13 37 15 68 2 133 37 165 88 29 47 45 145
36 219 l-8 60 -17 -51 c-25 -74 -47 -103 -99 -125 -34 -16 -58 -19 -98 -15
-78 8 -112 29 -119 75 -33 207 -68 303 -135 376 l-43 46 33 0 c18 0 92 14 164
31 181 44 265 44 364 0 45 -20 80 -30 93 -26 101 32 73 397 -51 663 -82 173
-170 278 -255 302 -37 10 -50 21 -81 69 -299 454 -729 782 -1187 907 -185 50
-363 66 -458 40z m351 -46 c501 -111 923 -414 1264 -905 42 -60 103 -148 137
-195 33 -47 74 -113 90 -146 35 -70 64 -222 73 -374 l5 -95 -13 75 c-7 41 -28
111 -46 155 -18 44 -43 109 -57 145 -30 81 -71 155 -191 345 -214 338 -343
486 -584 666 -205 154 -334 219 -443 223 -27 1 -99 19 -160 38 -139 46 -217
60 -330 62 -98 1 -129 -10 -176 -61 -56 -59 -61 -82 -53 -232 5 -112 4 -147
-10 -193 -18 -64 -58 -118 -87 -118 -25 0 -25 1 15 43 47 50 61 114 51 236 -5
53 -8 113 -8 133 2 74 94 187 174 214 59 19 225 12 349 -16z m-95 -40 c78 -12
268 -72 258 -80 -5 -4 -26 -12 -49 -18 -53 -15 -116 -62 -153 -113 -17 -22
-44 -80 -62 -129 -36 -101 -74 -152 -148 -200 -112 -71 -296 -129 -350 -109
-14 6 -41 25 -60 42 l-34 32 22 -33 c12 -17 32 -37 44 -44 75 -40 344 41 465
139 31 25 56 61 89 126 25 51 57 106 70 124 33 42 21 43 -19 1 l-30 -33 21 41
c63 127 220 175 386 119 197 -66 494 -299 672 -527 143 -183 295 -411 376
-566 l50 -94 -20 -26 c-36 -48 -80 -66 -158 -66 -186 1 -322 161 -417 488 -15
55 -27 100 -25 102 1 1 34 -58 72 -132 103 -200 180 -274 281 -274 l39 1 -30
21 c-112 80 -204 223 -271 424 -34 103 -36 111 -24 160 7 28 10 57 6 63 -19
31 -134 -1 -188 -51 -50 -48 -63 -85 -64 -188 0 -108 -7 -136 -34 -145 -29 -9
-71 18 -129 81 -101 111 -162 215 -187 321 -23 96 -13 298 16 327 18 19 22 19
75 4 67 -19 61 -8 -11 21 -108 42 -231 36 -306 -15 -40 -28 -87 -110 -132
-231 -34 -90 -60 -128 -114 -170 -65 -49 -215 -94 -335 -101 l-98 -5 -48 50
c-48 50 -86 128 -97 198 -3 16 4 4 15 -29 11 -32 25 -64 31 -70 6 -6 4 5 -4
24 -8 19 -26 91 -41 160 -36 171 -87 279 -134 281 -9 0 -6 4 9 10 57 23 103
-57 140 -246 26 -131 61 -215 107 -255 42 -37 65 -37 177 -5 106 31 174 64
227 112 45 40 49 48 78 122 l21 51 -53 -41 c-28 -23 -53 -45 -55 -50 -6 -16
-41 -9 -52 10 -20 38 -10 81 40 176 28 52 50 104 50 115 0 11 6 20 13 21 22 2
-37 17 -70 18 -55 2 -132 -20 -163 -45 -17 -15 -35 -45 -44 -72 l-14 -47 -1
48 c-1 26 5 60 13 75 19 35 74 88 106 101 33 13 179 14 255 1z m-861 -232 c-4
-7 -26 -38 -49 -68 -66 -88 -111 -168 -189 -339 -120 -262 -152 -305 -278
-378 -43 -25 -78 -49 -78 -53 0 -31 100 -70 181 -70 50 0 61 3 73 23 25 37 43
99 76 254 37 172 55 222 115 314 59 92 164 204 171 185 3 -8 -13 -68 -35 -133
-22 -65 -56 -188 -76 -273 -82 -358 -108 -400 -248 -400 -116 0 -287 57 -287
96 0 30 33 64 105 109 99 62 143 114 201 242 107 237 187 373 269 458 43 44
64 58 49 33z m358 -78 c19 0 44 7 56 16 26 18 29 8 5 -18 -9 -11 -30 -18 -50
-18 -37 0 -97 22 -107 39 -4 6 9 4 28 -4 20 -8 50 -15 68 -15z m793 13 c26
-26 13 -82 -26 -114 -37 -30 -40 -64 -14 -139 21 -58 21 -129 1 -167 -34 -67
-129 -120 -320 -178 -230 -69 -284 -78 -441 -70 -174 9 -204 8 -256 -10 l-41
-15 17 26 c30 47 9 36 -44 -22 -54 -59 -81 -104 -113 -189 l-18 -50 4 61 c5
79 31 136 105 232 91 118 103 151 111 317 4 77 8 126 8 109 1 -18 12 -63 23
-100 40 -131 102 -227 177 -275 41 -26 43 -29 17 -23 -43 10 -62 21 -113 68
-25 22 -42 34 -37 26 51 -92 113 -123 245 -123 145 1 285 56 391 153 l44 40
-65 -39 c-36 -21 -76 -42 -90 -46 -20 -6 -15 3 31 51 105 110 154 183 186 279
13 39 13 39 10 -37 -2 -43 -3 -78 -1 -78 14 0 33 71 39 150 7 103 23 152 52
169 29 17 99 13 118 -6z m-958 -75 c-3 -8 -6 -5 -6 6 -1 11 2 17 5 13 3 -3 4
-12 1 -19z m-80 -55 c-3 -10 -5 -2 -5 17 0 19 2 27 5 18 2 -10 2 -26 0 -35z
m90 5 c-3 -8 -6 -5 -6 6 -1 11 2 17 5 13 3 -3 4 -12 1 -19z m524 -296 c-27
-38 -93 -97 -128 -115 -36 -18 -117 -31 -108 -17 3 5 14 10 24 10 23 0 122 61
180 110 25 21 47 39 49 40 2 0 -6 -13 -17 -28z m-742 -113 c-13 -61 -59 -182
-66 -175 -3 3 12 57 33 120 21 64 39 114 41 112 2 -2 -2 -27 -8 -57z m1388
-163 c35 -32 62 -61 59 -63 -5 -5 -141 98 -141 107 0 4 -11 18 -25 30 l-25 21
34 -18 c19 -10 63 -45 98 -77z m522 -263 c7 -10 -3 0 -23 22 -47 52 -82 124
-131 270 -3 11 27 -46 67 -127 41 -80 80 -154 87 -165z m516 246 c70 -62 154
-208 203 -354 79 -236 79 -467 -1 -483 -14 -3 -14 2 0 45 28 91 2 302 -57 460
-45 121 -104 218 -234 382 -18 23 48 -15 89 -50z m-1425 21 c50 -4 -6 -7 -165
-7 -132 0 -222 3 -200 7 52 9 268 9 365 0z m-1634 -42 c-72 -84 -44 -139 127
-256 57 -39 144 -106 193 -149 49 -44 114 -98 144 -122 59 -47 52 -47 -54 -5
-215 87 -436 287 -470 428 -10 39 10 91 45 121 47 39 55 30 15 -17z m857 -32
c-79 -37 -154 -101 -184 -155 -14 -26 -18 -29 -13 -11 10 37 60 106 95 131 36
25 136 69 159 68 8 0 -17 -15 -57 -33z m582 15 c47 -6 30 -7 -77 -8 -142 -2
-179 -5 -316 -30 -86 -15 -171 -41 -139 -42 11 -1 62 8 115 18 137 28 332 45
433 38 162 -12 278 -43 382 -104 48 -29 62 -44 88 -96 18 -34 39 -73 49 -87
11 -16 19 -52 22 -102 4 -56 12 -89 31 -127 30 -56 36 -139 14 -177 -6 -12
-28 -50 -49 -85 -20 -36 -43 -96 -52 -138 -10 -41 -24 -86 -32 -100 l-15 -26
8 25 c12 39 8 127 -7 145 -12 14 -16 13 -41 -15 -15 -16 -37 -30 -48 -30 -12
0 -21 -4 -21 -10 0 -5 10 -10 21 -10 20 0 19 -2 -9 -30 -20 -19 -42 -30 -60
-30 -48 0 -125 47 -218 132 -49 44 -103 87 -121 94 -69 30 -143 8 -162 -47
-15 -45 -15 -45 23 -5 54 58 124 42 129 -30 2 -27 -1 -29 -43 -35 -31 -4 -67
-20 -113 -52 -74 -51 -111 -58 -146 -29 -32 26 -40 69 -25 127 7 28 20 97 29
154 11 78 23 118 48 165 l32 62 -28 45 c-17 29 -29 65 -33 100 -9 87 -12 96
-47 120 l-32 22 27 -29 c22 -24 27 -40 30 -97 2 -37 2 -67 1 -67 -1 0 -18 27
-38 60 -42 69 -59 84 -49 44 l7 -28 -38 37 c-21 20 -42 34 -46 31 -5 -3 -9 -1
-9 4 0 4 -18 19 -41 31 -26 15 -38 28 -35 37 18 43 18 49 2 30 -9 -11 -16 -26
-16 -33 0 -7 -7 -13 -16 -13 -13 0 -15 7 -9 37 9 50 9 50 65 78 128 65 382 98
575 76z m118 -18 c-7 -2 -19 -2 -25 0 -7 3 -2 5 12 5 14 0 19 -2 13 -5z m287
-53 c22 -11 40 -23 40 -25 0 -5 -79 32 -89 41 -11 10 14 2 49 -16z m-1193
-162 c-3 -8 -6 -5 -6 6 -1 11 2 17 5 13 3 -3 4 -12 1 -19z m1350 -71 c19 -38
29 -66 22 -62 -13 9 -69 129 -68 147 0 8 3 8 6 -2 3 -8 21 -46 40 -83z m-1181
47 c13 -9 34 -31 46 -48 18 -26 14 -24 -28 14 -27 25 -51 46 -53 48 -2 1 -1 2
3 2 4 0 18 -7 32 -16z m1251 -69 c66 -129 156 -213 264 -246 37 -11 77 -31 90
-45 l22 -24 -25 0 c-15 0 -63 19 -107 41 -124 64 -254 214 -286 329 -9 33 7
13 42 -55z m554 -15 c29 -17 43 -28 29 -24 -35 9 -110 51 -145 81 l-30 25 46
-26 c25 -14 70 -39 100 -56z m-2231 35 c39 -19 70 -37 70 -40 0 -6 -41 10 -87
34 -96 51 -81 55 17 6z m1708 -21 c4 -6 58 -52 120 -103 61 -51 112 -95 112
-96 0 -2 -5 -7 -12 -11 -7 -4 -8 -3 -4 4 7 12 -98 84 -126 86 -15 1 -67 56
-53 56 4 0 -2 8 -13 18 -10 9 -29 35 -42 57 -18 33 -5 25 18 -11z m132 -39 c7
4 95 -91 114 -124 8 -13 -135 105 -203 167 -33 31 -32 31 23 -7 32 -22 62 -39
66 -36z m-1388 13 c27 -18 48 -35 48 -38 0 -3 -14 -13 -30 -22 -32 -18 -69
-83 -55 -95 4 -5 10 -2 13 5 8 25 62 80 82 85 12 3 30 -3 43 -14 16 -13 18
-19 7 -19 -9 0 -5 -6 10 -15 15 -9 19 -14 10 -15 -36 -1 -94 -24 -116 -45 -44
-44 -34 -49 86 -42 64 3 108 2 105 -3 -9 -15 -76 -30 -129 -30 -71 0 -50 -11
36 -19 l73 -6 -28 -19 c-17 -12 -47 -19 -77 -20 -55 -1 -64 -11 -24 -26 37
-14 85 -12 118 5 16 9 30 14 31 13 7 -9 13 -95 7 -103 -4 -6 -33 -30 -65 -54
-32 -24 -76 -67 -99 -95 -23 -28 -47 -56 -53 -61 -7 -6 -15 -21 -20 -34 -11
-36 -26 -12 -51 86 -21 82 -23 85 -24 43 0 -37 -2 -42 -11 -26 -7 11 -10 56
-7 115 5 109 28 169 76 196 l27 15 -28 -4 c-26 -5 -27 -3 -21 32 3 24 -2 57
-15 96 -23 66 -26 98 -11 127 15 27 38 24 92 -13z m1209 -45 c13 -16 12 -17
-3 -4 -10 7 -18 15 -18 17 0 8 8 3 21 -13z m1014 -13 c-11 -17 -108 -40 -164
-39 l-56 1 71 14 c40 8 87 20 105 28 34 14 54 12 44 -4z m-1975 -10 c0 -5 -15
-10 -32 -9 -31 1 -32 1 -8 9 35 11 40 11 40 0z m1061 -193 l33 -42 -37 34
c-44 42 -50 23 -7 -21 35 -34 38 -43 10 -28 -11 6 -29 28 -40 50 -21 40 -27
67 -10 40 6 -9 10 -10 10 -3 0 7 -6 16 -13 20 -12 7 -47 82 -47 100 0 4 16
-19 35 -51 19 -31 49 -76 66 -99z m-1131 83 c0 -5 -4 -10 -10 -10 -5 0 -10 5
-10 10 0 6 5 10 10 10 6 0 10 -4 10 -10z m2008 -63 c-113 -106 -208 -159 -310
-172 -42 -6 -42 -5 12 13 88 30 168 77 265 157 49 41 94 75 100 75 5 -1 -24
-33 -67 -73z m-2122 35 c-22 -5 -30 3 -21 18 5 8 11 7 22 -2 15 -12 14 -13 -1
-16z m1974 -58 c0 -3 -21 -15 -47 -26 -35 -15 -66 -21 -118 -20 -118 2 -137
17 -22 18 67 1 116 6 142 17 49 19 45 18 45 11z m-606 -16 c-31 -51 -53 -76
-59 -70 -4 4 -5 -32 -1 -80 6 -70 4 -93 -9 -118 -8 -16 -13 -30 -10 -30 17 0
66 33 89 60 33 40 34 79 1 110 -29 28 -31 37 -8 62 22 25 30 23 49 -14 30 -58
21 -134 -23 -198 -17 -24 -17 -25 1 -10 50 39 70 147 41 217 -18 43 -13 53 15
28 54 -49 47 -151 -18 -265 -20 -36 -44 -78 -52 -95 -35 -68 -109 -71 -143 -5
-23 46 -14 189 14 236 10 17 26 50 34 73 28 80 47 111 67 111 13 0 17 -4 12
-12z m185 -34 c10 -9 -35 -3 -49 6 -11 8 -7 9 15 4 17 -4 32 -8 34 -10z m-340
-95 c-22 -14 -69 -11 -63 4 3 8 17 11 40 9 25 -3 32 -7 23 -13z m-1491 -81
c-27 -50 -89 -96 -138 -103 l-35 -5 33 12 c43 15 113 77 137 122 11 20 21 32
23 26 2 -5 -7 -29 -20 -52z m-48 42 c0 -26 -42 -89 -72 -108 -39 -25 -45 -16
-22 33 24 51 94 107 94 75z m1486 -32 c4 -7 3 -8 -4 -4 -13 8 -16 -14 -4 -30
4 -5 -1 -2 -12 7 -10 10 -15 22 -12 28 9 14 23 14 32 -1z m-1038 -46 c-11 -44
-22 -53 -32 -26 -6 16 10 54 28 66 16 10 16 6 4 -40z m1578 -24 c4 -7 -9 1
-29 16 -20 16 -37 30 -37 33 0 7 58 -36 66 -49z m-551 2 c27 -30 12 -34 -15
-5 -13 14 -19 25 -13 25 5 0 18 -9 28 -20z m406 -27 c33 -53 73 -172 67 -200
-2 -10 -17 20 -32 67 -16 47 -39 106 -53 133 -13 26 -21 47 -18 47 3 0 19 -21
36 -47z m194 5 c22 -23 31 -35 19 -25 -11 9 -23 15 -26 12 -3 -3 -11 1 -18 10
-7 8 -9 15 -5 15 4 0 2 7 -5 15 -26 31 -2 13 35 -27z m6 -75 c39 -56 76 -140
84 -189 5 -33 0 -27 -33 41 -21 44 -60 108 -86 142 -56 74 -82 96 -39 32 42
-60 120 -219 108 -219 -2 0 -20 30 -41 68 -21 37 -58 99 -84 137 -25 39 -50
76 -54 84 -5 8 19 -1 53 -19 42 -23 72 -48 92 -77z m-1188 26 c4 -15 -2 -18
-47 -16 l-52 2 23 34 c13 19 23 39 23 45 1 15 47 -43 53 -65z m583 16 c8 -20
12 -40 9 -45 -3 -4 0 -10 7 -12 6 -2 8 -9 4 -16 -5 -8 -14 -5 -31 10 -26 23
-33 43 -12 35 6 -2 11 -11 9 -18 -3 -11 -1 -11 9 -2 9 9 8 17 -5 37 -16 25
-21 46 -10 46 3 0 12 -16 20 -35z m498 -65 c28 -53 76 -170 71 -170 -2 0 -36
62 -74 138 -40 78 -59 124 -45 107 14 -16 36 -50 48 -75z m-1944 75 c0 -6 -56
-35 -67 -35 -4 1 8 9 27 20 39 22 40 22 40 15z m384 -21 c10 -27 7 -34 -17
-34 -13 0 -52 -18 -86 -40 -75 -49 -95 -53 -26 -6 28 19 63 48 79 65 34 35 41
38 50 15z m-471 -21 c-7 -2 -19 -2 -25 0 -7 3 -2 5 12 5 14 0 19 -2 13 -5z
m124 -30 c-3 -10 -5 -4 -5 12 0 17 2 24 5 18 2 -7 2 -21 0 -30z m1197 -15
c-37 -53 -78 -77 -142 -85 -46 -5 -57 -2 -151 48 -114 60 -130 80 -21 25 98
-50 146 -61 200 -46 51 14 101 49 120 85 7 14 16 23 18 20 3 -3 -8 -24 -24
-47z m562 -111 c29 -56 51 -81 100 -116 l49 -35 -53 57 c-29 31 -59 72 -67 92
-24 55 -18 53 18 -5 43 -73 98 -109 205 -136 l87 -22 -55 -2 c-51 -2 -53 -3
-21 -10 19 -5 48 -6 65 -4 17 3 45 0 61 -5 28 -9 26 -9 -25 -12 -124 -6 -227
16 -261 57 -6 8 -16 14 -22 14 -21 0 57 -69 100 -90 52 -24 93 -25 178 -4 44
11 72 13 91 7 24 -8 22 -9 -22 -10 -27 -1 -69 -8 -93 -17 -60 -22 -97 -20
-156 8 -98 45 -205 202 -219 321 l-6 50 15 -53 c8 -29 22 -67 31 -85z m-359
58 c2 -22 -5 -13 -34 40 l-16 30 24 -25 c14 -14 25 -34 26 -45z m-388 -45 c33
0 71 4 85 10 35 13 33 4 -4 -15 -37 -19 -130 -19 -175 -1 -19 8 -35 13 -35 10
0 -7 -44 25 -90 66 -31 27 -24 25 63 -20 85 -43 105 -50 156 -50z m-957 26
c26 -26 35 -29 81 -27 29 2 62 3 74 3 14 0 20 4 16 11 -3 6 -1 7 5 3 7 -4 12
-3 12 2 0 11 75 62 91 62 18 0 -82 -80 -126 -101 -22 -10 -49 -18 -60 -18 -11
0 -1 7 23 16 58 20 49 26 -12 8 -41 -12 -53 -13 -80 -1 -32 13 -76 70 -76 97
0 8 5 6 12 -6 6 -11 24 -33 40 -49z m733 14 c80 -54 108 -67 170 -80 37 -7 37
-8 9 -9 -52 -2 -120 25 -188 73 -61 43 -85 66 -71 66 3 0 39 -23 80 -50z m614
-75 c0 -5 -13 15 -29 45 -16 30 -29 60 -29 65 0 6 13 -15 29 -45 16 -30 29
-59 29 -65z m44 53 c-2 -5 -1 -8 4 -8 4 0 9 -17 10 -38 l2 -37 -13 38 c-8 20
-20 45 -27 54 -10 12 -10 14 -1 9 8 -5 12 -1 13 11 0 16 1 16 8 -2 5 -11 7
-23 4 -27z m-1094 6 c-28 -30 -74 -59 -109 -69 -14 -3 9 16 50 44 41 28 77 51
79 51 3 0 -6 -12 -20 -26z m306 -14 c21 -22 36 -40 32 -40 -10 0 -77 61 -77
71 0 14 3 12 45 -31z m157 -56 c27 -16 34 -23 18 -19 -39 11 -82 40 -120 81
l-35 38 47 -37 c26 -21 67 -49 90 -63z m-337 77 c-8 -14 -125 -91 -138 -91 -5
0 8 12 29 26 21 15 53 37 69 50 31 24 51 31 40 15z m880 -31 c26 -41 48 -90
40 -90 -8 0 -46 59 -60 94 -20 48 -11 45 20 -4z m-135 26 c0 -2 -8 -10 -17
-17 -16 -13 -17 -12 -4 4 13 16 21 21 21 13z m211 -68 c30 -80 30 -164 0 -231
-13 -29 -54 -82 -105 -135 -46 -48 -95 -100 -107 -117 -36 -48 -43 -52 -25
-17 10 18 51 70 93 115 41 45 87 106 101 134 18 36 29 49 35 40 5 -7 6 2 3 23
-4 25 -3 29 3 15 24 -55 0 153 -25 219 -3 9 -4 16 -1 16 2 0 15 -28 28 -62z
m-845 -18 c-50 -6 -106 2 -109 15 -1 6 8 11 20 13 12 2 27 9 33 17 9 11 19 9
54 -13 l44 -27 -42 -5z m1310 -20 c39 -44 41 -48 10 -20 -21 19 -47 49 -58 65
-25 35 -18 29 48 -45z m-581 5 c4 -30 11 -55 15 -55 5 0 6 -19 4 -42 -3 -39
-2 -40 6 -13 8 25 8 23 4 -15 -3 -25 -9 -65 -14 -90 -6 -40 -7 -35 -9 40 0 47
-5 101 -10 120 -17 66 -22 110 -12 110 5 0 13 -25 16 -55z m-1326 -35 c0 -9
-6 -4 -14 10 -8 14 -14 34 -14 45 1 15 4 13 14 -10 8 -16 14 -37 14 -45z
m1296 -71 c6 -46 3 -69 -15 -124 -16 -49 -25 -64 -32 -54 -7 10 -8 8 -5 -9 3
-14 1 -20 -6 -15 -7 4 -8 0 -4 -11 4 -11 3 -15 -4 -10 -7 4 -9 0 -5 -13 3 -11
-1 -28 -9 -39 -15 -19 -15 -19 -9 1 6 20 5 20 -10 1 -9 -11 -16 -24 -16 -30 0
-5 -3 -7 -6 -4 -3 3 7 29 21 58 15 29 35 84 45 124 15 58 19 64 20 36 0 -31 2
-33 12 -16 7 13 9 59 5 135 -5 110 0 102 18 -30z m-392 104 c-7 -2 -19 -2 -25
0 -7 3 -2 5 12 5 14 0 19 -2 13 -5z m-183 -18 c0 -18 17 -20 22 -3 3 7 12 9
22 5 25 -10 18 -62 -9 -63 -11 -1 -28 -5 -38 -9 -9 -4 -26 -5 -37 -2 -11 3
-23 1 -26 -5 -8 -12 -169 -4 -206 11 -20 8 -28 17 -28 36 0 31 8 32 20 3 l9
-23 0 23 c1 31 25 23 30 -9 l4 -24 6 25 c9 34 58 41 69 10 8 -21 8 -21 20 5
16 34 61 32 78 -4 l12 -23 7 31 c5 22 12 31 26 31 10 0 19 -7 19 -15z m660
-40 c10 -37 10 -57 1 -100 -7 -30 -16 -57 -21 -60 -5 -3 -5 9 1 27 12 43 12
130 -1 163 -5 14 -6 24 -1 21 4 -3 14 -26 21 -51z m267 33 c-3 -8 -6 -5 -6 6
-1 11 2 17 5 13 3 -3 4 -12 1 -19z m-447 -149 c0 -31 -9 -85 -19 -120 -11 -35
-24 -89 -30 -119 -6 -30 -13 -64 -15 -75 -2 -11 -4 -3 -5 17 0 20 13 94 30
164 31 127 32 144 15 254 -4 23 -1 18 9 -15 8 -27 15 -75 15 -106z m-370 127
c0 -15 -24 -28 -34 -19 -13 14 -5 33 14 33 11 0 20 -6 20 -14z m169 -23 c-5
-21 -12 -50 -15 -65 -4 -16 -10 -28 -15 -28 -5 0 -9 -8 -9 -18 0 -22 -42 -82
-89 -129 l-32 -32 -45 19 c-57 25 -63 25 -57 0 8 -29 -9 -25 -43 11 -19 21
-25 33 -16 36 6 3 10 8 7 13 -3 5 32 26 78 49 78 37 132 83 178 148 8 11 26
23 39 26 14 2 26 5 26 6 1 0 -2 -16 -7 -36z m724 -99 c40 -47 115 -92 177
-105 147 -31 274 -147 294 -269 l6 -35 -15 39 c-45 118 -160 199 -324 230 -82
15 -161 54 -161 79 0 6 9 2 19 -7 21 -19 103 -46 135 -45 18 1 18 2 -4 8 -52
16 -110 52 -134 84 -28 37 -65 115 -66 137 0 8 11 -7 24 -35 12 -27 35 -64 49
-81z m762 84 c-19 -111 -88 -153 -183 -111 l-37 16 46 8 c73 11 119 38 148 86
14 23 28 43 29 43 2 0 1 -19 -3 -42z m-2345 -9 c-14 -49 -12 -86 9 -169 25
-94 19 -104 -8 -15 -23 74 -27 145 -10 194 15 42 21 35 9 -10z m204 -11 c27
-62 68 -113 111 -139 16 -11 24 -19 17 -19 -7 0 -10 -4 -7 -10 3 -5 -6 -26
-21 -45 l-26 -35 -19 24 c-11 13 -19 31 -19 40 0 9 -5 16 -11 16 -7 0 -9 10
-5 25 4 17 0 31 -13 44 -10 10 -21 32 -24 47 -14 73 -17 104 -12 104 3 0 16
-24 29 -52z m520 37 c-4 -8 -8 -15 -10 -15 -2 0 -4 7 -4 15 0 8 4 15 10 15 5
0 7 -7 4 -15z m300 -35 l7 -25 -15 25 c-17 28 -21 50 -7 35 5 -6 12 -21 15
-35z m-1152 0 c-26 -24 -41 -30 -75 -29 l-42 0 47 13 c25 7 57 20 70 29 36 25
36 19 0 -13z m828 1 c0 -17 -33 -44 -78 -63 -28 -13 -76 -21 -145 -25 -119 -6
-182 6 -192 38 -11 33 5 38 78 27 50 -8 92 -7 155 2 48 7 99 13 115 14 15 0
27 4 27 9 0 4 9 7 20 7 11 0 20 -4 20 -9z m813 -159 c38 -58 97 -90 193 -102
111 -15 141 -27 191 -73 38 -35 73 -83 73 -101 0 -3 -21 8 -46 24 -26 16 -75
39 -110 50 -70 24 -82 33 -31 24 58 -10 101 -27 137 -52 28 -20 26 -16 -12 20
-62 59 -105 79 -200 89 -44 5 -96 18 -116 28 -77 40 -134 126 -147 221 -6 42
-5 40 17 -21 13 -37 36 -85 51 -107z m-1810 89 c39 -15 87 -14 136 4 50 17 55
10 6 -11 -77 -32 -183 -6 -221 55 -15 23 -12 22 17 -6 19 -17 47 -37 62 -42z
m1305 -21 l0 -35 -9 40 c-4 22 -8 49 -7 60 0 16 2 15 8 -5 4 -14 8 -41 8 -60z
m642 35 c19 -19 32 -35 29 -35 -3 0 -20 16 -39 35 -19 19 -32 35 -29 35 3 0
20 -16 39 -35z m-1568 -17 c-11 -18 -22 -40 -25 -48 -5 -13 -6 -13 -6 0 -1 16
35 80 45 80 3 0 -3 -15 -14 -32z m1273 -197 c-22 -75 -64 -139 -136 -206 -54
-49 -170 -135 -183 -135 -12 0 67 198 92 230 14 19 63 71 108 115 64 63 85 92
102 138 12 32 23 65 24 75 1 9 4 -23 5 -72 3 -60 -1 -106 -12 -145z m375 153
c0 -2 -9 0 -20 6 -11 6 -20 13 -20 16 0 2 9 0 20 -6 11 -6 20 -13 20 -16z
m-1639 -41 c-59 -120 -73 -174 -69 -270 4 -104 31 -169 102 -248 25 -27 51
-62 57 -77 6 -15 29 -36 53 -48 46 -24 86 -58 86 -74 0 -5 -12 2 -27 16 -16
14 -47 35 -70 47 -23 11 -44 30 -48 41 -3 11 -27 44 -52 72 -93 109 -133 220
-119 331 8 56 54 181 87 234 32 52 32 39 0 -24z m2024 41 c25 -10 60 -14 101
-12 71 3 76 -7 8 -18 -49 -7 -106 5 -139 30 -26 20 -16 20 30 0z m-1188 -56
c-2 -13 -4 -3 -4 22 0 25 2 35 4 23 2 -13 2 -33 0 -45z m1058 32 c13 -6 15 -9
5 -9 -8 0 -22 4 -30 9 -18 12 -2 12 25 0z m-1580 -67 c-10 -53 -18 -32 -9 24
4 26 10 40 12 30 2 -11 1 -35 -3 -54z m557 -83 c1 -47 -3 -95 -8 -107 -6 -14
-9 24 -10 120 0 100 2 132 8 107 5 -19 9 -73 10 -120z m-493 70 c0 -23 -15 7
-22 45 l-6 30 14 -30 c8 -16 14 -37 14 -45z m448 -75 c7 -84 -10 -150 -66
-270 -45 -95 -77 -126 -151 -150 -30 -10 -75 -33 -100 -51 -41 -30 -131 -74
-148 -74 -4 0 20 15 53 33 33 18 80 46 105 63 25 17 68 39 97 48 32 11 63 30
81 51 33 37 106 216 116 283 6 37 -5 136 -19 189 -3 10 2 2 11 -17 9 -19 18
-66 21 -105z m1078 116 c60 -11 110 -29 102 -37 -3 -3 -44 4 -92 16 -49 11
-89 19 -91 18 -1 -2 26 -28 61 -57 35 -30 74 -68 86 -85 13 -17 -20 7 -72 53
-52 47 -97 88 -101 91 -13 10 55 11 107 1z m-1630 -48 c-9 -15 -13 -19 -10 -8
4 11 10 29 13 40 3 11 7 14 9 8 3 -7 -3 -24 -12 -40z m65 -43 l-11 -25 6 25
c2 14 6 39 6 55 l2 30 4 -30 c2 -17 -1 -42 -7 -55z m-337 24 c-23 -52 -23
-228 0 -299 9 -27 14 -51 12 -53 -2 -2 -13 26 -24 63 -28 91 -28 205 0 280 12
31 23 55 25 52 2 -2 -3 -21 -13 -43z m-275 4 c-16 -25 -119 -101 -126 -94 -2
3 11 18 29 34 19 16 48 41 64 55 37 32 52 34 33 5z m97 -5 c-42 -66 -67 -92
-108 -112 -24 -12 -52 -21 -63 -21 -11 1 4 12 33 26 31 15 72 47 100 79 54 61
63 67 38 28z m201 -10 c-8 -15 -15 -25 -16 -21 0 12 23 58 27 54 3 -2 -2 -17
-11 -33z m741 -45 c-5 -65 -34 -175 -43 -166 -2 2 3 28 11 57 7 29 17 81 20
117 10 88 19 81 12 -8z m-40 -5 c-2 -16 -4 -5 -4 22 0 28 2 40 4 28 2 -13 2
-35 0 -50z m1259 26 c41 -28 66 -67 79 -124 5 -21 -1 -15 -20 22 -14 29 -50
74 -78 100 -54 48 -50 49 19 2z m138 -119 c9 -29 14 -55 12 -58 -3 -2 -9 13
-15 34 -6 22 -29 64 -52 94 -64 85 -66 89 -11 34 37 -37 54 -65 66 -104z
m-2070 72 c-37 -92 -35 -182 5 -269 17 -36 30 -68 28 -70 -2 -2 -19 25 -38 59
-31 58 -34 70 -34 148 0 72 4 94 28 144 36 77 44 68 11 -12z m513 11 c-3 -10
-5 -4 -5 12 0 17 2 24 5 18 2 -7 2 -21 0 -30z m-171 -75 c-9 -21 -14 -43 -11
-49 4 -5 -8 -39 -26 -76 -18 -38 -39 -86 -46 -108 l-13 -40 6 55 c3 30 7 78 8
106 3 38 15 73 47 133 41 76 44 79 47 50 2 -17 -4 -49 -12 -71z m313 24 c1
-36 -29 -166 -36 -158 -3 2 2 38 10 78 9 41 14 94 12 118 -4 35 -3 39 4 20 5
-14 9 -40 10 -58z m611 30 c-26 -98 -145 -208 -386 -357 -48 -29 -49 -31 -64
-106 -18 -85 -47 -169 -60 -169 -14 0 -23 87 -12 117 27 70 60 143 72 158 7 9
65 50 127 91 115 76 234 185 295 270 17 24 33 42 35 40 3 -2 -1 -22 -7 -44z
m-864 -119 c-13 -26 -39 -64 -56 -83 l-32 -35 28 50 c54 97 64 119 71 169 l8
51 3 -52 c2 -39 -3 -63 -22 -100z m94 84 c0 -57 -22 -98 -96 -178 -37 -41 -80
-94 -96 -118 -15 -25 -28 -38 -28 -30 1 30 39 97 92 160 31 36 65 81 77 100
11 18 21 29 21 24 0 -6 -12 -28 -27 -50 -24 -36 -24 -38 -4 -20 39 34 54 74
48 128 -2 28 -1 43 4 35 5 -7 9 -30 9 -51z m126 -42 c-3 -5 -5 -1 -6 10 l-1
20 -8 -20 c-5 -13 -8 0 -8 40 l0 60 13 -50 c8 -27 12 -54 10 -60z m-434 68
c-49 -71 -54 -144 -18 -273 l7 -25 -14 25 c-23 40 -36 121 -28 172 7 41 52
128 67 128 3 0 -3 -12 -14 -27z m711 10 c-3 -7 -9 -10 -14 -7 -14 8 -11 21 5
21 8 0 12 -6 9 -14z m-687 -30 c-25 -67 -26 -115 -6 -201 14 -59 20 -114 18
-185 l-1 -102 -7 105 c-5 69 -15 123 -29 158 -33 84 -24 195 20 249 18 21 20
15 5 -24z m-176 -14 c-6 -18 -10 -70 -11 -114 -1 -71 -2 -76 -11 -45 -12 42
-5 134 13 173 16 36 21 29 9 -14z m505 -68 c-21 -64 -68 -136 -139 -212 -70
-75 -55 -40 30 71 61 81 98 151 111 215 l8 40 3 -33 c2 -18 -4 -54 -13 -81z
m-815 95 c0 -2 -17 -15 -38 -30 -32 -22 -48 -26 -103 -25 l-64 2 66 7 c41 4
79 15 100 28 36 23 39 24 39 18z m747 -33 c-3 -10 -5 -4 -5 12 0 17 2 24 5 18
2 -7 2 -21 0 -30z m-358 -19 c-6 -21 -9 -70 -6 -108 2 -40 1 -62 -4 -55 -12
20 -11 140 2 178 16 44 21 34 8 -15z m159 14 c-7 -13 -20 -52 -30 -88 -17 -63
-18 -64 -12 -15 5 45 37 125 50 125 2 0 -1 -10 -8 -22z m-201 -10 c-3 -8 -6
-5 -6 6 -1 11 2 17 5 13 3 -3 4 -12 1 -19z m279 -15 c-8 -15 -15 -25 -16 -21
0 12 23 58 27 54 3 -2 -2 -17 -11 -33z m1287 -87 c34 -25 37 -31 37 -75 0 -35
-9 -67 -32 -112 -46 -89 -275 -403 -378 -517 -117 -130 -159 -189 -169 -242
l-9 -45 -1 50 c-1 64 17 99 128 239 128 163 324 441 361 513 19 37 34 82 36
110 l4 48 -10 -38 c-22 -83 -113 -220 -401 -601 -82 -108 -131 -182 -135 -203
-5 -24 -18 -41 -48 -62 -53 -37 -253 -243 -292 -301 -52 -77 -50 -77 37 1 46
41 110 95 142 119 60 45 77 66 77 96 0 18 57 84 72 84 4 0 8 -16 8 -35 0 -20
9 -54 20 -76 12 -22 18 -49 15 -59 -3 -10 -54 -54 -113 -98 -59 -43 -138 -108
-176 -143 -114 -104 -53 -18 87 125 107 110 132 146 108 160 -4 3 -6 -5 -4
-17 3 -17 -5 -28 -34 -47 -72 -48 -296 -276 -410 -417 -101 -126 -143 -165
-143 -134 0 39 182 397 298 586 75 122 201 309 249 370 22 28 100 102 174 165
105 90 125 104 94 66 -21 -26 -66 -72 -99 -102 -33 -30 -55 -54 -50 -54 14 0
108 80 152 130 67 78 221 289 268 369 53 91 56 124 14 200 -17 30 -30 56 -30
58 0 1 26 -16 58 -40 31 -24 74 -56 95 -71z m-1551 -81 c8 -16 33 -64 56 -105
58 -108 62 -138 7 -50 -86 136 -102 181 -95 280 3 39 4 36 9 -25 4 -38 14 -83
23 -100z m498 63 c-39 -80 -94 -145 -173 -204 -59 -45 -58 -43 29 43 75 73 99
104 130 170 22 44 40 75 42 68 2 -7 -11 -42 -28 -77z m-825 42 c-3 -5 -27 -22
-53 -36 -26 -15 -60 -36 -77 -47 l-30 -20 23 24 c12 13 48 38 80 56 65 36 65
36 57 23z m1539 -32 c-76 -148 -248 -380 -361 -489 -97 -93 -179 -150 -295
-206 -78 -38 -95 -53 -58 -53 23 0 26 -10 8 -29 -11 -11 -9 -11 12 -1 14 7 37
21 52 31 52 37 38 18 -33 -43 -156 -136 -202 -184 -225 -233 -13 -27 -24 -63
-24 -78 0 -16 -5 -38 -11 -50 -27 -50 -193 -269 -197 -258 -5 15 35 114 107
265 32 66 89 191 126 276 38 85 72 160 77 167 5 7 46 24 91 38 45 15 93 33
108 41 39 19 97 91 105 128 9 45 35 69 163 153 129 86 242 194 315 301 54 78
66 91 40 40z m614 -141 c28 -26 29 -82 3 -158 -29 -85 -63 -146 -173 -310
-114 -170 -127 -199 -128 -282 l0 -57 -27 6 c-86 20 -229 86 -291 133 l-24 17
49 39 c293 237 415 389 452 563 14 67 14 74 -1 95 -11 15 -13 8 -14 -43 -2
-85 -60 -203 -145 -291 -67 -70 -67 -68 13 41 107 146 140 230 120 303 l-10
35 77 -36 c42 -19 86 -44 99 -55z m-2118 79 c0 -2 -8 -10 -17 -17 -16 -13 -17
-12 -4 4 13 16 21 21 21 13z m1059 -26 c-6 -16 -41 -60 -78 -97 -84 -84 -97
-125 -80 -233 14 -86 4 -102 -74 -121 -157 -37 -233 -124 -307 -357 -38 -119
-97 -248 -108 -237 -3 3 13 42 36 86 23 44 42 83 42 86 0 3 -16 -14 -36 -38
-19 -24 -63 -101 -97 -172 -66 -136 -82 -144 -66 -32 4 33 6 61 5 63 -2 1 -11
-28 -19 -65 -26 -109 -27 -111 -22 -53 6 74 34 157 47 139 7 -11 8 -9 4 4 -3
10 1 28 9 41 18 27 51 159 60 240 5 47 13 65 40 95 30 32 36 35 54 24 17 -11
21 -9 27 10 13 36 7 131 -11 192 -9 31 -14 59 -12 62 9 8 86 -119 93 -153 9
-50 20 -50 27 -1 5 37 -9 138 -29 199 -5 16 -2 18 23 12 95 -24 120 -93 69
-192 -17 -33 -17 -33 3 -23 31 17 74 86 110 178 23 56 58 116 111 186 69 91
162 187 182 187 4 0 2 -13 -3 -30z m311 0 c-32 -45 -111 -120 -166 -159 -34
-24 -14 0 66 77 63 61 116 111 118 111 2 1 -6 -13 -18 -29z m-1410 -4 c0 -2
-15 -14 -34 -25 -24 -15 -49 -21 -87 -20 l-54 1 77 17 c43 10 81 21 85 24 7 8
13 9 13 3z m78 -70 c-53 -49 -170 -113 -279 -152 -41 -14 -91 -35 -111 -45
-21 -11 -38 -16 -38 -11 0 15 105 71 165 88 84 24 170 66 240 119 33 25 62 45
65 45 3 -1 -16 -20 -42 -44z m37 -66 c-21 -28 -33 -55 -29 -61 4 -8 3 -9 -4
-5 -7 4 -12 3 -12 -3 0 -9 32 -22 130 -52 40 -13 46 -19 64 -64 11 -27 37 -90
58 -138 22 -51 41 -112 44 -145 10 -96 -12 -230 -58 -352 -39 -104 -56 -126
-59 -77 -1 12 -5 -5 -10 -38 -4 -33 -6 -73 -3 -89 10 -46 -12 -22 -35 40 -23
61 -27 124 -9 157 6 12 33 46 59 75 78 85 114 218 89 324 -11 44 -23 62 -73
110 -43 41 -65 71 -76 105 -15 45 -20 50 -88 83 -40 19 -72 41 -73 48 0 12
107 132 117 132 3 0 -12 -22 -32 -50z m-187 -148 c-99 -126 -176 -262 -202
-362 -4 -14 15 16 41 65 58 109 116 195 173 255 47 51 40 37 -42 -76 -63 -87
-111 -171 -133 -233 -25 -70 7 -51 142 87 82 84 108 107 77 67 -58 -73 -124
-176 -124 -192 0 -9 -17 -13 -52 -13 -29 -1 -78 -9 -108 -20 -31 -10 -59 -15
-64 -10 -12 12 60 156 134 270 56 85 207 256 217 246 3 -2 -24 -40 -59 -84z
m-128 6 c-22 -19 -179 -98 -194 -98 -3 0 -6 4 -6 10 0 10 197 110 215 110 5
-1 -1 -10 -15 -22z m-430 -218 c-19 -11 -42 -19 -50 -19 -8 0 1 8 20 19 19 11
42 19 50 19 8 0 -1 -8 -20 -19z m-181 -57 c-69 -71 -96 -110 -126 -182 -23
-54 -24 -54 -18 -16 8 51 36 115 70 160 23 30 108 95 124 95 3 0 -20 -26 -50
-57z m435 -60 c-50 -92 -152 -249 -170 -264 -17 -14 65 167 97 214 21 31 100
117 107 117 1 0 -14 -30 -34 -67z m546 15 c-11 -28 -34 -70 -51 -92 -55 -70
-55 -73 4 -16 31 30 57 51 57 47 0 -4 -9 -39 -20 -79 -45 -167 -62 -304 -67
-550 -4 -183 -8 -238 -18 -238 -13 0 -22 31 -75 250 l-30 125 5 -140 c3 -77 8
-158 11 -179 6 -39 6 -39 -22 -32 -36 9 -39 14 -67 101 -17 55 -22 93 -21 175
0 126 16 185 86 325 43 86 212 355 224 355 2 0 -5 -23 -16 -52z m290 17 c-13
-14 -26 -23 -28 -20 -3 3 5 16 18 30 13 14 26 23 28 20 3 -3 -5 -16 -18 -30z
m-1046 13 c-4 -7 -22 -35 -40 -63 -42 -67 -105 -194 -139 -283 -16 -39 -30
-70 -33 -68 -8 8 48 160 86 233 34 66 119 193 129 193 2 0 1 -6 -3 -12z m856
-178 c-6 -23 -27 -58 -46 -78 l-34 -37 24 55 c13 30 32 82 42 115 19 59 19 60
22 23 2 -20 -2 -55 -8 -78z m-1124 -41 c-8 -35 -15 -54 -15 -41 -1 26 20 115
25 109 2 -2 -3 -32 -10 -68z m1798 -110 c-30 -32 -108 -87 -179 -128 -39 -22
-39 -22 16 31 43 41 161 121 188 127 3 1 -8 -13 -25 -30z m-80 -138 c-28 -37
-65 -66 -158 -121 -66 -41 -143 -89 -171 -109 l-50 -36 48 62 c68 89 120 131
243 194 60 31 112 57 117 58 4 0 -9 -21 -29 -48z m-94 -122 c-14 -11 -72 -52
-130 -91 -66 -45 -142 -108 -204 -172 -99 -100 -106 -92 -18 20 49 63 174 159
289 221 87 48 100 52 63 22z m530 16 c0 -2 -15 -12 -32 -20 l-33 -16 24 21
c22 19 41 26 41 15z m-1498 -77 c-12 -58 -13 -90 -4 -153 6 -44 9 -81 8 -83
-2 -1 -20 4 -42 11 -47 17 -52 35 -29 114 17 57 70 183 78 183 2 0 -3 -33 -11
-72z m366 -38 l0 -35 -8 30 c-4 17 -8 44 -8 60 0 29 0 29 8 5 4 -14 8 -41 8
-60z"/>
<path d="M3092 4394 c-19 -13 -22 -24 -20 -57 2 -33 9 -44 31 -57 24 -13 30
-13 55 0 36 21 43 79 13 109 -25 25 -49 27 -79 5z"/>
<path d="M3106 4109 c-8 -12 -12 -28 -9 -35 6 -16 47 -29 62 -19 6 3 11 1 11
-4 0 -6 -13 -11 -30 -11 -37 0 -38 -10 -4 -49 37 -44 57 -41 50 7 -4 20 -9 53
-11 72 -4 31 -26 60 -46 60 -4 0 -15 -10 -23 -21z"/>
<path d="M3563 4114 c-7 -18 28 -69 48 -69 21 0 23 44 3 66 -21 23 -42 25 -51
3z"/>
<path d="M2712 4504 c-25 -17 -29 -56 -8 -73 11 -10 21 -9 45 4 36 18 42 58
12 75 -25 13 -22 13 -49 -6z"/>
<path d="M2621 4216 c-19 -29 -25 -43 -14 -33 11 9 23 17 26 17 4 0 7 -8 7
-17 1 -31 30 17 30 48 0 44 -12 40 -49 -15z"/>
<path d="M2005 3646 c33 -13 85 -34 115 -46 66 -26 91 -23 221 24 110 41 98
47 -25 11 -111 -32 -154 -31 -256 5 -100 35 -142 39 -55 6z"/>
<path d="M2767 3636 c27 -23 80 -113 71 -122 -3 -2 -19 16 -37 40 -18 24 -48
52 -67 62 -29 16 -39 17 -80 6 -42 -11 -112 -48 -190 -98 -15 -11 -25 -13 -21
-6 15 23 -5 12 -36 -20 -17 -18 -27 -27 -23 -20 13 21 -9 13 -23 -9 -10 -17
-15 -19 -21 -9 -11 18 -2 39 34 79 24 26 26 31 10 22 -30 -15 -73 -67 -80 -98
-4 -13 -1 -36 5 -49 14 -32 14 -34 -2 -34 -8 0 -22 9 -33 21 -23 26 -23 82 0
129 l17 35 -20 -23 c-26 -30 -44 -97 -36 -131 8 -32 33 -61 62 -72 l22 -8 -29
-63 c-30 -64 -52 -138 -65 -218 -11 -65 4 -43 24 37 10 37 25 82 34 98 l17 30
-5 -40 -5 -40 15 30 c8 17 14 36 15 44 0 23 29 -20 30 -44 0 -11 -9 -33 -20
-50 -11 -16 -20 -34 -20 -39 0 -15 42 27 51 52 l9 23 32 -24 c64 -48 101 -61
191 -66 48 -3 87 -5 87 -3 0 2 -14 9 -31 16 l-31 13 48 13 c41 12 53 11 93 -3
46 -16 46 -16 22 4 -27 22 -75 24 -151 8 -28 -6 -67 -8 -85 -5 -33 6 -95 49
-95 65 0 4 21 3 48 -2 34 -7 63 -6 107 4 l60 14 -97 5 c-144 8 -130 20 23 20
103 0 140 -3 155 -15 10 -8 32 -15 47 -15 29 0 113 37 104 46 -3 3 -18 -1 -34
-9 -63 -33 -86 -31 -139 11 -77 62 -110 75 -171 70 -41 -4 -63 -12 -95 -38
-37 -29 -39 -30 -18 -6 45 50 110 86 155 86 42 0 119 -33 159 -68 18 -16 18
-16 7 6 -6 12 -22 29 -35 37 -42 28 -145 63 -177 61 l-32 -2 23 18 c27 22 23
22 -23 3 -63 -26 -54 -16 27 31 129 76 168 71 285 -33 l63 -57 -7 35 c-4 19
-14 52 -22 74 -8 22 -16 56 -17 75 -4 45 -29 93 -62 119 -37 29 -52 26 -17 -3z
m-24 -54 c29 -19 77 -79 77 -95 0 -6 -13 9 -30 31 -16 23 -47 50 -67 61 -21
11 -31 20 -23 20 8 1 27 -7 43 -17z m-10 -39 c-7 -2 -19 -2 -25 0 -7 3 -2 5
12 5 14 0 19 -2 13 -5z m-223 -303 c0 -11 -7 -20 -15 -20 -15 0 -21 21 -8 33
12 13 23 7 23 -13z m130 10 c0 -5 -4 -10 -10 -10 -5 0 -10 5 -10 10 0 6 5 10
10 10 6 0 10 -4 10 -10z m25 -10 c3 -5 1 -10 -4 -10 -6 0 -11 5 -11 10 0 6 2
10 4 10 3 0 8 -4 11 -10z"/>
<path d="M2880 3320 c0 -5 -14 -25 -31 -45 -36 -41 -24 -48 15 -9 22 23 36 64
21 64 -3 0 -5 -4 -5 -10z"/>
<path d="M2853 3173 c9 -2 23 -2 30 0 6 3 -1 5 -18 5 -16 0 -22 -2 -12 -5z"/>
<path d="M2741 3166 c7 -8 151 -37 156 -32 2 2 -11 9 -29 14 -40 13 -135 26
-127 18z"/>
<path d="M2883 3077 c15 -20 34 -52 42 -69 13 -29 14 -30 15 -9 0 30 -35 88
-63 103 -19 10 -19 7 6 -25z"/>
<path d="M2766 3055 c4 -8 11 -15 16 -15 6 0 5 6 -2 15 -7 8 -14 15 -16 15 -2
0 -1 -7 2 -15z"/>
<path d="M2957 3015 c7 -49 13 -58 13 -19 0 16 -5 36 -10 44 -6 10 -7 2 -3
-25z"/>
<path d="M3167 3355 c10 -13 22 -25 27 -25 5 0 -1 11 -14 25 -30 32 -36 32
-13 0z"/>
<path d="M3255 3380 c10 -11 20 -20 23 -20 3 0 -3 9 -13 20 -10 11 -20 20 -23
20 -3 0 3 -9 13 -20z"/>
<path d="M1802 3325 c0 -16 2 -22 5 -12 2 9 2 23 0 30 -3 6 -5 -1 -5 -18z"/>
<path d="M1781 3084 c-12 -15 -21 -30 -21 -35 0 -4 -3 -16 -6 -26 -4 -11 0 -8
11 7 10 14 29 37 43 53 20 21 22 27 10 27 -9 0 -26 -12 -37 -26z"/>
<path d="M3170 2774 c0 -12 9 -32 19 -45 17 -21 20 -22 26 -7 4 11 -2 27 -19
45 -24 26 -26 27 -26 7z"/>
<path d="M3238 2779 c-3 -8 -1 -25 5 -39 7 -18 11 -21 14 -9 5 22 -12 66 -19
48z"/>
<path d="M2215 1970 c-10 -11 -16 -22 -13 -25 3 -3 13 6 22 20 20 30 16 32 -9
5z"/>
<path d="M2817 1545 c-20 -14 -37 -28 -37 -31 0 -7 59 29 72 44 16 18 7 15
-35 -13z"/>
<path d="M2357 1020 c-47 -52 -78 -122 -76 -174 1 -35 1 -33 23 45 9 33 35 82
61 118 25 33 43 61 41 61 -2 0 -24 -23 -49 -50z"/>
<path d="M3765 1788 c11 -18 16 -43 14 -72 -3 -32 -1 -42 7 -35 23 19 37 66
25 86 -6 10 -11 13 -11 5 0 -7 -12 0 -26 15 l-25 28 16 -27z"/>
<path d="M3609 1372 c-58 -89 -93 -152 -85 -152 4 0 116 172 135 208 7 13 11
25 9 27 -2 2 -29 -35 -59 -83z"/>
<path d="M1676 883 c-8 -49 -7 -113 3 -136 4 -10 7 25 8 77 1 53 0 96 -1 96
-2 0 -6 -17 -10 -37z"/>
<path d="M3990 1301 c-77 -56 -191 -171 -255 -256 -100 -133 -169 -315 -182
-474 -6 -78 -5 -84 11 -78 10 4 20 7 22 7 2 0 4 35 4 78 0 246 141 487 426
729 66 56 54 54 -26 -6z"/>
<path d="M3930 1213 c-122 -125 -254 -350 -284 -485 -16 -71 -31 -208 -23
-208 3 0 32 12 64 26 54 24 61 31 106 107 51 88 167 253 232 331 95 114 285
236 420 271 l60 15 -55 -6 c-63 -6 -146 -37 -227 -85 -73 -44 -230 -194 -330
-315 -73 -89 -78 -94 -81 -68 -9 75 65 288 137 392 63 91 64 92 54 92 -4 0
-37 -30 -73 -67z"/>
<path d="M4515 1178 c-131 -24 -334 -165 -525 -365 -103 -108 -179 -203 -163
-203 5 0 65 50 133 111 314 279 523 396 616 345 16 -8 42 -26 58 -40 l28 -24
-73 -52 c-41 -28 -130 -87 -199 -131 -69 -43 -136 -89 -150 -100 l-25 -21 25
14 c205 118 468 273 478 281 10 8 9 14 -3 33 -8 13 -15 36 -15 51 0 82 -73
122 -185 101z"/>
<path d="M1452 1037 c-1 -16 -24 -65 -52 -110 -51 -85 -104 -211 -96 -231 2
-6 5 -4 5 5 1 20 84 191 122 251 22 34 29 56 26 80 -3 30 -4 31 -5 5z"/>
<path d="M3321 941 c-14 -25 1 -61 24 -61 16 0 50 30 57 51 7 20 28 0 28 -27
0 -18 -42 -66 -168 -192 -171 -169 -305 -318 -247 -273 48 37 276 251 326 306
133 145 142 197 36 211 -39 6 -46 4 -56 -15z"/>
<path d="M4304 911 c-38 -26 -76 -56 -84 -67 -16 -20 6 -6 114 73 80 59 55 54
-30 -6z"/>
</g>
</svg>