<?xml version="1.0" standalone="no"?>
<!DOCTYPE svg PUBLIC "-//W3C//DTD SVG 20010904//EN"
 "http://www.w3.org/TR/2001/REC-SVG-20010904/DTD/svg10.dtd">
<svg version="1.0" xmlns="http://www.w3.org/2000/svg"
 width="512.000000pt" height="512.000000pt" viewBox="0 0 512.000000 512.000000"
 preserveAspectRatio="xMidYMid meet">
<metadata>
Created by potrace 1.16, written by Peter Selinger 2001-2019
</metadata>
<g transform="translate(0.000000,512.000000) scale(0.100000,-0.100000)"
fill="#000000" stroke="none">
<path d="M2701 4756 c-9 -11 -39 -12 -144 -8 -121 4 -143 2 -235 -22 -97 -25
-214 -75 -276 -119 l-28 -20 -47 53 -48 54 -34 -14 c-50 -21 -177 -154 -228
-237 -23 -40 -66 -132 -95 -205 -104 -264 -163 -348 -294 -416 -87 -45 -104
-61 -126 -114 -20 -46 -6 -98 35 -132 51 -43 117 -39 304 17 121 36 153 42
232 42 99 0 109 -5 134 -64 12 -31 -4 -84 -42 -131 -34 -43 -54 -96 -63 -172
-7 -54 -11 -61 -69 -113 -73 -67 -165 -115 -219 -115 -32 0 -38 3 -38 21 0 12
15 36 34 55 38 38 32 49 -19 40 -61 -12 -105 -88 -90 -155 14 -65 112 -121
190 -108 19 3 35 4 35 3 0 -2 -11 -28 -24 -57 -14 -30 -29 -89 -35 -132 -12
-88 -35 -138 -83 -183 -58 -55 -114 -78 -195 -78 l-72 0 22 -24 c35 -38 74
-53 151 -59 l71 -6 -22 -71 c-12 -39 -24 -83 -27 -98 -5 -24 -22 -33 -163 -88
-224 -89 -214 -82 -207 -130 9 -57 -34 -139 -146 -278 -49 -61 -90 -113 -90
-115 0 -2 42 17 93 42 50 25 138 65 194 89 176 75 199 98 219 227 12 71 44
165 58 165 1 0 -5 -24 -15 -52 -10 -29 -19 -75 -19 -103 0 -80 -16 -117 -84
-196 -64 -75 -106 -144 -106 -175 0 -9 -13 -33 -29 -53 -44 -56 -88 -140 -106
-205 -35 -120 -5 -293 65 -381 39 -48 99 -95 131 -102 l26 -5 -30 -29 c-25
-26 -29 -35 -24 -66 8 -47 46 -85 85 -87 17 -1 28 -4 26 -8 -9 -14 -77 -20
-112 -10 -32 10 -34 10 -20 -5 24 -24 99 -28 137 -8 50 26 78 108 46 135 -13
11 -14 10 -9 -4 9 -24 -24 -56 -56 -56 -27 0 -40 15 -40 47 0 9 24 42 54 73
74 77 92 137 76 248 -19 129 13 234 115 373 45 64 62 94 124 232 22 48 42 87
45 87 3 0 3 -15 0 -32 -14 -71 -60 -168 -131 -270 -40 -59 -85 -138 -99 -175
-29 -77 -29 -125 -1 -433 13 -135 21 -181 46 -249 29 -78 100 -213 119 -225 5
-3 -2 36 -15 87 -35 141 -55 277 -48 326 6 37 17 54 66 103 68 67 79 89 79
162 0 30 6 60 15 72 17 23 19 67 4 96 -23 44 18 98 47 61 18 -23 18 -88 0
-105 -27 -28 -46 -78 -46 -125 0 -51 -12 -76 -73 -156 -42 -55 -62 -136 -52
-206 7 -47 43 -141 54 -141 3 0 19 57 35 128 16 70 36 143 44 162 16 35 16 35
23 -80 6 -92 33 -267 43 -277 1 -1 0 81 -2 182 -3 133 -1 185 7 185 6 0 11
-10 11 -22 0 -27 61 -150 75 -152 19 -2 16 55 -6 112 -34 87 -33 216 3 297 23
53 27 57 31 35 31 -147 52 -221 80 -282 49 -105 71 -130 46 -53 -42 125 -101
395 -86 395 2 0 18 -23 35 -50 17 -28 38 -50 46 -50 9 0 31 -14 51 -31 l36
-32 -24 64 c-13 35 -46 99 -74 142 l-50 78 20 70 c11 38 21 68 22 67 7 -8 98
-240 133 -338 l41 -116 -39 -96 c-58 -140 -89 -267 -95 -383 l-5 -100 19 87
c41 186 132 415 230 579 63 107 146 219 161 219 5 0 11 -13 15 -30 4 -16 10
-30 13 -30 4 0 34 24 67 53 48 43 481 376 568 437 18 13 17 9 -9 -37 -16 -29
-67 -106 -112 -170 -90 -127 -133 -204 -151 -270 -11 -41 -67 -121 -330 -478
-69 -93 -153 -211 -186 -260 -69 -104 -140 -235 -105 -195 123 141 188 183
429 277 106 42 331 106 340 98 2 -2 -15 -43 -38 -90 -22 -47 -41 -90 -41 -95
0 -5 32 4 71 21 40 16 101 34 137 39 78 13 104 25 168 83 55 49 110 81 124 72
6 -3 10 -20 10 -38 l0 -31 58 55 c65 63 120 109 131 109 4 0 12 -19 18 -42 7
-24 26 -60 43 -81 l32 -37 69 63 c38 35 89 91 113 124 46 63 114 121 226 192
36 22 61 41 56 41 -18 0 -177 -80 -212 -107 -32 -24 -37 -25 -29 -8 19 46 46
128 42 131 -1 2 -55 -46 -119 -106 l-116 -109 -6 31 c-11 57 -7 108 9 108 8 0
20 -10 26 -22 12 -22 13 -21 25 15 7 20 27 58 45 83 30 44 33 46 69 40 36 -6
38 -4 87 62 27 37 87 122 132 190 45 67 112 154 149 194 37 39 63 69 57 66 -5
-3 -41 -25 -79 -48 -38 -23 -84 -44 -102 -47 -32 -5 -33 -6 -28 -52 5 -36 1
-55 -18 -90 -29 -54 -41 -59 -56 -26 -15 33 -15 61 0 88 7 13 11 53 9 97 -2
69 1 81 33 145 61 120 60 119 170 123 108 4 179 -12 265 -59 l53 -30 -33 58
c-45 81 -65 110 -120 174 l-48 57 57 16 c73 21 87 29 70 43 -7 5 -49 24 -93
42 -44 17 -134 61 -200 96 -66 36 -187 100 -270 142 l-150 77 74 8 c111 12
226 69 257 129 15 29 15 30 -5 20 -57 -31 -145 11 -257 123 -85 84 -83 82
-159 287 -5 13 3 17 44 21 64 6 124 45 151 98 29 56 26 93 -11 132 -23 25 -28
27 -19 10 15 -31 4 -61 -27 -73 -36 -13 -124 -10 -153 6 -30 16 -22 21 63 32
l58 8 -35 42 c-20 22 -73 66 -118 97 -101 67 -159 125 -193 191 -37 74 -34
107 18 158 26 26 59 48 87 56 73 22 195 24 327 7 157 -21 192 -21 200 1 19 48
-81 263 -190 409 -137 184 -305 319 -532 429 -215 104 -545 178 -584 131z
m175 -31 c192 -33 413 -124 596 -245 102 -67 234 -193 312 -298 70 -93 160
-257 171 -312 6 -29 -2 -20 -46 50 -174 281 -375 465 -644 590 -166 77 -426
145 -527 138 -47 -3 -34 22 -108 -216 -40 -126 -92 -211 -157 -253 -38 -25
-42 -30 -20 -25 15 4 27 2 27 -3 0 -14 -60 -58 -104 -76 -43 -18 -66 -14 -66
11 0 10 -3 15 -6 11 -9 -8 24 -103 41 -117 10 -9 20 -7 39 5 l26 17 0 -36 c0
-22 5 -36 13 -36 23 0 77 40 97 72 24 39 81 213 139 423 23 83 46 156 50 163
14 22 224 -18 391 -75 183 -62 347 -169 511 -333 103 -103 249 -293 235 -307
-11 -11 -52 26 -144 130 -214 241 -341 345 -506 413 -106 44 -132 43 -38 -1
105 -49 205 -118 250 -173 57 -70 59 -77 11 -49 -45 26 -195 90 -239 101 -14
4 7 -10 45 -31 63 -35 185 -112 185 -118 0 -1 -46 15 -102 36 -56 22 -104 39
-106 39 -2 0 11 -12 28 -26 17 -15 30 -28 28 -29 -2 -2 -34 7 -73 21 -103 35
-120 29 -40 -14 70 -38 195 -119 195 -127 0 -3 -26 7 -57 21 -126 57 -181 68
-101 21 24 -14 54 -37 68 -51 22 -24 16 -23 -70 18 -107 50 -167 71 -225 81
l-40 6 49 -27 49 -26 -29 -24 c-26 -22 -36 -24 -94 -20 l-65 5 33 -16 c17 -9
32 -20 32 -24 0 -14 -74 -69 -140 -103 -73 -39 -166 -72 -255 -91 -42 -9 -51
-14 -29 -14 74 -2 298 73 399 135 52 31 57 32 36 10 -58 -62 -300 -152 -436
-163 -62 -5 -73 -3 -98 17 -55 43 -104 184 -141 405 -13 76 -20 93 -42 110
-96 72 -132 105 -196 180 -39 47 -77 85 -82 85 -19 0 -106 -75 -151 -131 -44
-53 -67 -96 -198 -369 -89 -185 -158 -260 -289 -315 -44 -18 -51 -12 -10 9
138 71 232 195 323 423 49 123 109 231 172 310 60 75 129 133 158 133 9 0 34
-21 55 -47 74 -93 167 -183 230 -224 l64 -41 0 -49 c0 -38 4 -51 22 -63 63
-45 226 24 273 114 8 16 37 94 64 173 87 256 82 252 257 222z m-269 -1 l61 -7
-18 -40 c-12 -27 -31 -47 -53 -59 -75 -38 -147 -156 -147 -241 0 -39 -17 -75
-37 -80 -10 -3 -35 -8 -56 -12 -36 -6 -37 -5 -32 17 9 36 -13 157 -40 216 -14
30 -38 71 -55 92 -16 21 -30 40 -30 43 0 9 151 56 210 66 71 11 122 13 197 5z
m-707 -301 c54 -101 195 -423 184 -423 -5 0 -172 340 -212 433 -29 66 -10 59
28 -10z m-103 -273 c-4 -91 -24 -159 -64 -224 l-24 -41 48 50 c27 28 61 66 77
85 l27 35 -17 -35 c-45 -93 -146 -210 -223 -259 -44 -28 -101 -49 -101 -37 0
3 29 49 64 103 35 54 82 143 104 198 23 55 41 96 42 90 0 -20 -40 -176 -55
-211 -29 -70 -7 -45 33 38 45 92 72 197 73 285 0 49 2 54 11 33 5 -14 8 -63 5
-110z m335 -341 c-51 -10 -142 -50 -180 -79 -15 -12 -39 -37 -54 -57 -17 -23
-28 -30 -28 -20 0 26 91 111 149 140 40 19 69 27 105 26 l51 -1 -43 -9z m952
-24 c128 -33 87 -42 -62 -13 -30 5 -102 13 -160 17 l-107 8 135 2 c93 1 154
-4 194 -14z m-51 -41 c60 -15 172 -65 192 -85 8 -8 -177 53 -285 94 -34 13 36
6 93 -9z m-160 -50 c40 -9 95 -27 123 -39 49 -22 51 -25 66 -81 21 -77 33
-187 33 -299 0 -77 -4 -96 -25 -133 -20 -36 -26 -40 -31 -25 -6 15 -8 13 -8
-7 -2 -71 -102 -124 -188 -101 -21 6 -64 26 -96 45 -31 19 -57 31 -57 27 0 -8
154 -186 171 -197 7 -4 19 3 30 17 l19 24 -1 -40 c0 -22 -3 -58 -7 -79 l-7
-40 -44 50 c-24 27 -63 78 -86 114 -56 86 -100 126 -166 151 -91 35 -95 35
-134 -4 -44 -44 -46 -66 -2 -33 60 46 118 23 103 -40 -5 -20 -13 -24 -44 -24
-36 0 -56 -10 -131 -65 -48 -35 -76 -32 -122 14 -42 41 -49 74 -24 107 14 19
14 18 15 -3 0 -13 4 -23 8 -23 4 0 13 57 20 126 8 90 18 139 33 169 21 42 22
42 68 38 34 -3 42 -2 31 6 -8 6 -25 11 -38 11 -15 0 -22 5 -19 13 11 32 107
-4 121 -46 9 -23 6 -31 -21 -60 -18 -18 -38 -55 -47 -86 -24 -83 -18 -95 10
-17 23 66 47 106 66 106 4 0 8 -7 8 -15 0 -11 8 -13 30 -8 23 4 50 -3 108 -30
42 -20 91 -39 107 -43 l30 -7 -19 22 -19 21 74 1 c50 1 64 4 44 8 l-30 7 40
16 c35 14 44 14 74 2 45 -19 51 -17 22 6 -28 24 -62 25 -103 4 -38 -20 -122
-14 -145 9 -14 14 -12 15 23 7 38 -9 100 -4 108 9 2 3 -22 4 -55 3 -76 -5 -76
10 -1 26 75 16 144 15 162 0 12 -11 12 -10 1 4 -7 9 -10 22 -6 28 3 5 -2 10
-13 10 -10 0 -27 9 -38 21 -25 27 -51 41 -94 49 l-35 6 39 17 c67 29 102 21
165 -37 l34 -31 -7 41 c-13 87 -48 178 -81 211 -29 29 -39 33 -87 33 -65 0
-152 -39 -214 -96 l-39 -36 60 33 c124 68 149 79 188 79 22 0 50 -8 66 -19 29
-21 87 -118 77 -128 -3 -4 -6 -1 -6 5 0 22 -76 63 -118 65 -35 1 -54 -7 -124
-56 -129 -88 -196 -108 -232 -68 -23 25 -31 82 -17 123 10 30 9 31 -4 14 -24
-31 -29 -82 -13 -131 14 -42 14 -45 -3 -45 -9 0 -27 12 -39 28 -19 23 -21 35
-16 87 4 41 3 55 -4 45 -5 -8 -10 -10 -10 -4 0 5 -7 19 -15 30 -13 17 -13 15
-4 -20 20 -73 -9 -166 -52 -166 -17 0 -20 4 -15 23 22 78 13 127 -27 149 -20
10 -20 10 1 -17 22 -28 28 -70 14 -91 -14 -21 -52 -34 -78 -28 -14 4 -54 29
-88 56 -33 28 -72 54 -85 59 -36 14 -77 1 -106 -33 -20 -23 -25 -26 -25 -11 0
21 36 83 59 100 35 27 89 10 166 -51 64 -52 73 -52 25 -2 -25 26 -60 56 -78
68 -88 54 24 83 227 57 75 -9 98 -8 181 9 122 26 294 28 393 6z m275 -160 c37
-58 45 -81 67 -197 33 -182 37 -198 42 -193 2 2 -7 70 -22 151 -14 81 -24 149
-22 151 10 10 28 -29 51 -107 14 -46 54 -140 91 -209 36 -69 63 -115 60 -102
-11 38 4 24 51 -48 45 -70 67 -94 40 -42 -8 15 -33 54 -55 87 -22 32 -38 61
-35 64 18 18 113 -123 139 -208 8 -28 1 -25 -63 27 -23 19 -45 32 -49 28 -11
-11 51 -79 115 -126 34 -25 98 -72 143 -105 44 -33 108 -80 142 -104 l62 -44
-49 7 c-73 11 -310 101 -404 154 -199 111 -283 222 -306 402 -6 43 -5 43 17
-20 13 -36 32 -81 42 -100 20 -39 118 -140 154 -160 22 -11 21 -8 -11 36 -81
111 -146 276 -183 463 -9 46 -23 102 -31 123 -28 79 -43 138 -35 138 4 0 26
-30 49 -66z m87 -5 c59 -60 131 -119 145 -119 4 0 -22 29 -59 65 l-66 66 50
-19 c31 -11 69 -37 101 -68 27 -28 75 -67 105 -86 64 -41 129 -96 129 -109 0
-11 -68 -11 -95 1 -17 7 -14 9 15 10 l35 1 -37 14 c-20 7 -60 29 -90 47 -29
19 -79 47 -111 63 -32 16 -76 44 -99 64 -41 35 -98 106 -98 123 0 18 18 5 75
-53z m-1172 -96 l32 -16 -33 -9 c-25 -7 -37 -18 -48 -44 -18 -44 -35 -40 -54
14 -13 39 -13 43 5 57 26 19 59 19 98 -2z m-214 -49 c-27 -61 -60 -116 -66
-110 -12 12 29 116 53 135 15 12 28 21 30 21 1 0 -6 -21 -17 -46z m31 -101
c-16 -88 -47 -141 -129 -224 -93 -93 -161 -129 -241 -129 -63 0 -122 30 -129
65 -3 19 -2 18 21 -3 52 -48 132 -50 220 -6 68 34 69 48 1 16 -65 -30 -163
-37 -185 -13 -11 11 -6 12 29 9 23 -2 40 -1 37 1 -2 3 21 15 53 27 141 53 169
67 193 90 l25 25 -37 -16 c-57 -23 -65 -18 -21 14 79 57 151 171 154 244 1 16
4 13 10 -11 6 -21 6 -53 -1 -89z m855 67 l16 -30 -43 1 c-37 1 -39 2 -14 8 27
5 28 7 12 20 -13 11 -14 16 -4 22 17 12 16 13 33 -21z m105 -2 c0 -16 -25 -8
-38 12 -11 18 -10 19 13 8 14 -6 25 -15 25 -20z m473 -20 c28 -60 93 -138 151
-180 63 -45 59 -33 -13 40 -36 37 -79 91 -94 120 -47 87 1 55 56 -38 15 -25
40 -61 58 -80 l31 -35 -30 45 c-58 90 -58 98 -2 47 107 -96 202 -128 283 -94
l38 16 -18 -30 c-49 -84 -178 -108 -285 -53 -85 44 -166 152 -198 265 -13 44
-4 35 23 -23z m-1398 -65 c-4 -46 -9 -82 -11 -80 -3 3 -2 47 2 98 4 52 9 88
12 81 2 -8 1 -52 -3 -99z m225 92 c-6 -8 -9 -19 -5 -25 11 -17 -51 -11 -66 7
-12 14 -12 16 1 11 9 -3 24 0 35 8 26 20 52 19 35 -1z m84 -35 c-13 -13 -146
-50 -181 -50 l-28 -1 25 -14 c14 -8 40 -14 59 -15 49 0 29 -13 -32 -21 -41 -5
-47 -8 -29 -14 18 -6 20 -10 11 -21 -22 -27 73 -17 135 15 51 25 55 26 41 7
-8 -12 -24 -38 -35 -58 -27 -50 -56 -68 -108 -68 -54 0 -98 29 -119 78 -12 29
-12 42 -1 84 14 57 44 84 80 72 30 -9 133 -6 161 6 30 12 33 12 21 0z m-804
-197 c-14 -9 -28 -22 -32 -27 -5 -8 -8 -7 -8 1 0 13 38 43 54 43 6 0 -1 -8
-14 -17z m419 -89 c-12 -64 -47 -144 -82 -184 -12 -14 -2 -7 21 15 50 46 70
80 89 150 l13 50 -6 -58 c-9 -96 -31 -134 -142 -251 -71 -75 -73 -76 -97 -60
-17 11 -27 31 -35 67 -18 85 -1 118 109 207 51 41 102 88 113 103 11 15 22 26
24 24 2 -2 -1 -30 -7 -63z m1328 -185 c20 -73 13 -100 -34 -126 -71 -40 -163
-38 -163 3 0 16 2 15 20 -1 24 -22 24 -15 5 49 -22 73 -18 77 15 19 17 -29 33
-53 35 -53 3 0 -6 30 -20 66 -35 93 -31 101 12 21 20 -37 37 -66 39 -64 2 2
-5 25 -15 53 -37 98 -37 101 -2 63 l32 -34 -21 35 c-26 45 -26 59 1 29 16 -19
19 -20 15 -6 -3 11 -9 31 -12 45 l-5 27 16 -25 c12 -18 14 -19 10 -5 -4 11 -9
40 -12 65 l-5 45 37 -74 c20 -41 43 -100 52 -132z m-987 178 c0 -12 -86 -143
-118 -180 -16 -18 -17 -18 -23 0 -4 10 -8 38 -8 63 -1 26 -9 59 -21 78 l-20
32 40 -26 c27 -18 40 -34 40 -50 0 -38 18 -37 34 1 29 68 76 119 76 82z m481
-26 c39 -39 51 -68 25 -58 -8 3 -31 9 -50 13 -34 6 -36 8 -36 45 0 22 5 39 11
39 6 0 29 -17 50 -39z m885 21 c25 -18 123 -227 111 -239 -13 -12 -63 62 -93
137 -19 47 -37 91 -41 98 -6 13 6 16 23 4z m-877 -149 c41 -34 44 -35 23 -9
-62 80 51 11 145 -88 80 -85 134 -116 203 -116 45 0 121 28 134 49 4 6 12 11
18 11 24 0 -47 -60 -89 -76 -80 -31 -168 -6 -282 78 -48 36 -52 38 -46 17 12
-38 53 -87 98 -117 36 -24 50 -27 126 -27 78 0 90 3 135 30 44 28 66 56 95
125 10 24 10 23 4 -5 -11 -53 -41 -101 -93 -148 -60 -54 -122 -77 -204 -77
-109 1 -194 55 -283 181 -60 86 -74 101 -66 67 6 -23 6 -23 -22 2 l-29 25 22
-37 c12 -21 19 -38 16 -38 -12 0 -114 113 -114 126 0 19 20 17 43 -3 19 -17
20 -17 14 6 -5 21 11 51 27 51 3 0 21 -14 41 -31 l35 -31 -15 36 c-14 33 -14
36 1 36 9 0 38 -17 63 -37z m-677 -70 c7 -9 6 -20 -6 -38 -21 -32 -51 -34 -42
-2 4 12 12 47 19 77 l12 55 3 -40 c2 -22 8 -45 14 -52z m187 70 c-13 -15 -12
-15 8 -5 24 13 44 16 28 4 -5 -4 -19 -18 -30 -31 l-20 -24 41 23 c26 15 47 21
59 16 13 -4 15 -10 8 -14 -6 -4 -44 -59 -86 -123 -94 -146 -143 -185 -252
-203 -38 -6 -38 -5 22 24 57 28 123 88 123 111 0 6 -21 -8 -46 -30 -85 -74
-197 -99 -280 -62 -40 18 -118 80 -111 87 2 3 26 -5 52 -17 38 -17 61 -20 106
-16 82 7 132 39 216 137 66 77 141 140 166 140 5 0 3 -7 -4 -17z m-338 -94
c-16 -45 -14 -51 12 -38 18 10 17 6 -8 -21 l-30 -32 33 7 c17 3 32 4 32 0 0
-12 -85 -45 -117 -45 l-33 0 34 45 c19 24 45 63 57 85 26 46 36 46 20 -1z
m-269 -60 c-3 -74 -7 -89 -28 -115 -19 -21 -24 -24 -19 -9 4 11 11 47 16 80
10 62 29 140 32 134 1 -2 1 -43 -1 -90z m808 36 c5 3 10 14 10 23 1 14 5 12
21 -7 24 -29 13 -41 -38 -41 -39 0 -48 12 -32 42 l12 22 8 -23 c5 -12 13 -19
19 -16z m1056 -104 c-11 -39 -26 -138 -27 -180 0 -41 -1 -44 -11 -21 -5 14
-14 68 -18 120 -4 52 -11 108 -15 124 l-8 28 42 -27 c27 -19 40 -33 37 -44z
m-932 21 c68 -27 38 -35 -96 -26 -96 6 -108 5 -126 -12 -20 -19 -18 -19 106
-18 79 0 135 5 149 12 35 19 48 14 27 -10 l-19 -22 26 16 c24 15 29 15 48 2
28 -20 27 -30 -6 -61 -46 -42 -65 -45 -132 -18 -74 30 -140 32 -200 5 -57 -26
-63 -25 -85 10 -22 39 -16 47 73 100 57 35 74 40 126 40 34 0 81 -8 109 -18z
m1004 -67 c22 -25 59 -83 82 -128 37 -72 41 -77 36 -43 -3 21 -19 68 -36 104
-30 65 -32 81 -8 66 7 -4 19 -9 28 -10 8 -1 62 -15 119 -33 64 -19 127 -31
165 -32 l61 -1 -34 -14 c-65 -29 -138 -38 -197 -25 -47 11 -58 18 -85 57 -38
55 -48 51 -19 -6 12 -23 30 -75 40 -115 10 -40 30 -95 43 -122 53 -104 53
-213 2 -350 -48 -126 -27 -277 54 -403 56 -86 73 -133 73 -199 0 -71 -24 -114
-111 -197 -99 -94 -117 -137 -107 -253 3 -42 9 -89 12 -106 l5 -30 -25 30
c-76 88 -59 261 38 393 20 27 43 67 52 88 33 79 10 236 -46 324 -76 118 -115
266 -128 480 l-6 115 -9 -65 c-10 -77 5 -237 32 -331 19 -67 38 -105 97 -199
59 -94 37 -86 -27 10 -34 50 -63 89 -66 86 -6 -5 -1 -14 75 -162 46 -87 60
-156 45 -214 -10 -34 -10 -33 -23 40 -13 75 -44 143 -143 314 -94 160 -123
313 -99 516 36 308 57 460 63 460 4 0 25 -20 47 -45z m-1878 -5 c0 -10 -14
-30 -31 -44 -29 -25 -29 -26 -8 -26 22 0 22 -1 -6 -30 -16 -17 -54 -43 -83
-57 -45 -22 -70 -27 -146 -28 l-91 -3 55 17 c30 10 66 23 80 31 37 19 161 114
189 144 26 27 41 26 41 -4z m1625 -138 c64 -257 69 -351 26 -477 -16 -46 -32
-106 -36 -132 l-6 -48 20 35 c10 19 25 55 32 80 17 60 26 68 34 30 4 -17 24
-73 45 -125 92 -226 94 -391 5 -570 -66 -135 -168 -234 -273 -266 -58 -17 -76
-1 -41 37 l24 26 -52 -27 c-64 -31 -167 -55 -246 -55 -66 0 -67 -9 -6 -41 42
-21 44 -39 5 -39 -15 0 -33 13 -51 36 -15 20 -41 42 -57 48 -27 12 -28 14 -12
27 12 10 48 14 128 14 104 0 115 2 178 32 77 36 153 102 186 162 l23 41 -62
-59 c-33 -32 -88 -75 -121 -94 -64 -38 -177 -71 -224 -65 -25 3 -18 8 57 45
49 24 106 62 132 87 53 51 106 151 147 275 45 139 55 201 40 261 l-12 52 -23
-56 c-30 -74 -90 -174 -164 -274 -78 -106 -107 -162 -122 -242 -7 -36 -19 -72
-27 -80 -12 -13 -14 -5 -10 60 6 97 28 145 132 289 45 64 100 145 121 181 21
36 47 73 58 83 19 17 19 18 -3 68 -45 105 -37 269 21 438 28 80 40 185 30 256
-7 46 -6 63 4 74 11 11 14 2 20 -54 10 -93 2 -164 -34 -278 -28 -89 -53 -240
-38 -226 4 3 11 38 17 77 5 40 24 119 41 175 33 110 39 175 25 276 -6 46 -5
62 3 57 6 -4 11 0 11 11 1 42 28 -21 55 -125z m-1577 55 c-6 -17 -31 -63 -55
-102 -85 -134 -187 -310 -200 -345 -6 -19 -12 -62 -12 -95 1 -66 0 -69 35 63
9 31 41 91 80 149 36 52 76 116 90 142 l25 46 -6 -100 c-13 -208 -46 -315
-140 -455 l-34 -51 44 36 c53 44 119 128 140 179 9 22 25 115 36 209 27 236
56 354 74 304 3 -7 -3 -65 -15 -127 -25 -144 -25 -158 3 -90 13 30 28 64 35
75 22 37 12 0 -19 -74 -17 -41 -42 -129 -55 -195 -31 -158 -65 -226 -158 -314
-54 -51 -100 -82 -196 -132 -91 -47 -140 -79 -181 -120 -78 -78 -98 -120 -22
-49 55 53 195 137 177 107 -31 -52 -98 -149 -124 -180 -37 -44 -34 -47 18 -14
50 32 108 96 167 186 68 104 72 68 7 -63 -28 -56 -70 -145 -94 -197 -43 -94
-43 -96 -43 -209 0 -104 -1 -111 -12 -75 -16 54 -16 164 1 210 7 22 27 63 44
92 18 28 29 52 26 52 -3 0 -33 -28 -68 -62 -34 -35 -95 -92 -133 -128 -58 -53
-74 -74 -86 -115 l-14 -50 -17 54 c-45 152 16 343 157 483 47 47 62 68 50 68
-10 0 -29 -7 -41 -16 -12 -8 -22 -12 -22 -8 0 23 62 91 131 144 43 34 79 62
79 63 0 1 -7 24 -15 51 -35 114 -19 160 114 330 24 31 41 59 38 62 -3 3 -26
-13 -51 -36 l-46 -42 16 53 c37 123 48 143 93 168 43 24 94 69 143 129 33 41
51 35 36 -11z m1417 -40 c4 -13 5 -46 3 -73 l-3 -49 -28 59 c-27 58 -47 74
-27 22 5 -15 10 -35 10 -44 -1 -9 -10 5 -20 32 -11 28 -18 51 -17 52 4 3 62
22 69 23 4 1 10 -9 13 -22z m-1065 11 c0 -2 -9 -32 -20 -66 -11 -35 -20 -94
-21 -130 -1 -37 -4 -92 -8 -122 l-6 -55 -35 70 c-28 58 -34 84 -38 152 -6 106
1 133 33 133 22 0 24 -2 15 -26 -12 -30 -12 -160 -1 -189 4 -11 7 19 7 70 -1
108 6 138 36 153 23 10 38 14 38 10z m304 -113 c-45 -137 -54 -247 -47 -527 4
-115 8 -207 9 -205 2 2 15 42 29 89 13 48 40 125 60 172 47 113 69 223 62 306
-10 115 -23 119 -22 8 0 -91 -3 -112 -29 -176 -16 -40 -33 -69 -37 -65 -23 23
-41 141 -36 233 5 84 45 262 63 279 3 3 3 -32 0 -79 -4 -63 -3 -75 4 -45 5 22
9 57 9 77 1 20 6 40 11 43 6 3 10 3 10 -2 0 -4 19 -75 41 -158 l39 -150 -5 95
c-3 52 -8 115 -11 140 l-5 45 21 -40 c11 -22 28 -47 36 -55 15 -13 16 -13 10
10 -5 19 -2 17 13 -10 11 -19 39 -55 62 -80 39 -43 40 -43 21 -10 -38 65 -52
95 -52 110 0 8 9 1 19 -17 11 -17 41 -51 67 -75 86 -79 127 -203 104 -315 -21
-102 -49 -141 -168 -238 -88 -72 -138 -123 -176 -180 -14 -22 -26 -35 -26 -29
0 33 37 107 80 164 128 165 157 235 143 345 l-7 60 -7 -68 c-10 -95 -43 -155
-148 -270 -114 -126 -162 -214 -171 -312 l-6 -70 -32 65 c-17 36 -47 124 -66
195 -19 72 -49 166 -67 210 -64 157 -48 256 85 514 40 78 59 89 33 19 -21 -58
-37 -141 -36 -186 0 -37 0 -37 14 13 18 67 47 140 80 200 28 50 56 88 61 82 2
-2 -13 -52 -32 -112z m516 40 c0 -34 -3 -84 -7 -111 -6 -47 -7 -48 -15 -19 -4
17 -11 69 -15 117 -6 85 -6 87 16 81 19 -5 21 -12 21 -68z m-820 -40 c-23 -72
-28 -81 -24 -45 5 47 46 160 51 144 2 -5 -10 -50 -27 -99z m977 50 c19 -52 27
-164 16 -194 -8 -21 -11 -14 -16 40 -9 101 -25 128 -20 34 7 -122 -17 -244
-67 -348 -24 -48 -45 -86 -47 -83 -3 2 1 15 8 28 8 14 14 64 16 128 1 74 7
117 19 145 9 22 19 67 21 100 l3 60 -13 -46 c-7 -25 -23 -61 -35 -80 l-22 -34
0 80 c0 44 -3 111 -7 148 l-6 68 68 -3 68 -3 14 -40z m-186 -215 c27 -73 32
-99 33 -180 1 -85 -2 -102 -28 -157 -15 -34 -39 -72 -53 -85 l-25 -23 20 35
c60 104 68 257 18 365 -15 32 -44 82 -65 110 -21 27 -44 61 -51 75 l-13 25 27
-24 c14 -14 42 -48 63 -78 20 -29 37 -53 39 -53 1 0 -4 21 -12 47 -15 51 -18
101 -7 130 5 12 10 -1 15 -42 4 -33 21 -98 39 -145z m236 108 c-2 -13 -4 -5
-4 17 -1 22 1 32 4 23 2 -10 2 -28 0 -40z m732 -68 c22 -47 26 -68 26 -146 0
-88 -2 -94 -45 -180 -37 -74 -46 -84 -48 -63 -2 15 9 56 25 90 25 58 27 76 28
179 0 98 -3 122 -22 165 -31 67 1 28 36 -45z m247 -51 c110 -63 197 -105 249
-123 15 -6 -3 -16 -77 -45 -120 -48 -236 -124 -350 -231 -49 -45 -88 -78 -88
-73 0 22 50 86 127 161 87 86 85 90 -16 46 -30 -14 -55 -23 -57 -21 -2 2 9 32
23 67 38 91 37 192 0 274 -15 32 -27 60 -27 62 0 3 59 -29 216 -117z m-2000
-14 c-35 -112 -32 -124 10 -41 19 37 37 66 40 64 2 -3 -8 -38 -23 -79 -36
-101 -39 -241 -6 -309 l22 -45 -4 55 -4 55 9 -45 c6 -25 8 -51 5 -59 -3 -7 0
-20 6 -27 6 -8 9 -14 5 -14 -3 0 -21 24 -41 53 -44 66 -69 163 -60 226 4 25 8
75 9 111 1 43 10 85 26 125 36 86 39 38 6 -70z m-241 60 c-4 -30 -4 -67 0 -82
6 -26 7 -27 18 -8 10 18 12 16 18 -20 5 -28 1 -57 -12 -96 -10 -31 -21 -76
-24 -100 -4 -38 -4 -40 5 -14 5 17 25 55 44 85 46 72 48 40 4 -61 -29 -67 -32
-82 -29 -159 2 -47 4 -115 4 -152 1 -51 4 -63 12 -50 6 10 9 69 7 140 -2 106
0 127 18 162 23 46 35 53 19 13 -6 -16 -12 -87 -13 -159 -2 -112 -6 -137 -25
-176 -27 -57 -111 -138 -177 -171 -62 -32 -120 -94 -133 -144 -12 -43 -4 -82
29 -159 26 -59 22 -107 -11 -143 -28 -30 -34 -20 -20 31 9 31 9 51 2 71 -6 15
-13 27 -16 27 -2 0 0 -12 5 -26 13 -32 13 -61 1 -49 -14 16 -42 124 -51 195
l-7 65 -2 -65 c0 -39 7 -93 19 -135 25 -88 25 -126 0 -156 l-19 -24 -1 37 c0
20 -7 67 -16 105 -32 136 -4 277 77 392 86 121 159 246 159 270 0 35 17 15 30
-34 8 -35 9 -31 6 35 l-5 75 21 -45 c30 -64 34 -119 13 -161 -16 -30 -16 -32
-2 -20 38 31 13 -8 -40 -63 -37 -38 -47 -51 -27 -38 41 28 103 97 114 128 18
47 11 118 -21 205 -42 115 -48 197 -20 287 11 38 21 89 21 112 0 41 18 130 27
130 2 0 1 -25 -2 -55z m-641 -223 c-11 -9 -31 -24 -45 -33 -39 -27 -18 -30 50
-8 35 10 66 17 69 15 9 -9 -10 -97 -21 -100 -15 -4 -196 -71 -219 -81 -13 -5
-11 5 12 47 16 29 32 72 36 95 6 41 8 43 63 62 70 24 82 25 55 3z m1965 -439
c-21 -67 -56 -127 -128 -223 -41 -53 -80 -118 -92 -151 -12 -32 -32 -65 -44
-73 -22 -14 -22 -14 5 53 40 98 51 116 125 216 37 50 84 123 104 163 37 74 52
82 30 15z m-1027 -41 c52 -57 95 -124 134 -206 l35 -74 -27 -44 c-15 -23 -49
-82 -74 -130 l-46 -88 -28 108 c-55 207 -66 268 -68 347 -2 133 15 153 74 87z
m1459 -236 c-45 -93 -121 -188 -252 -317 l-118 -116 25 -19 c18 -13 27 -32 31
-61 12 -88 -66 -180 -172 -204 -45 -10 -58 -9 -85 5 -42 20 -43 20 -30 -5 7
-11 10 -22 8 -24 -11 -9 -68 -35 -68 -30 0 3 11 28 25 55 18 36 25 65 25 108
0 36 6 66 15 78 13 17 14 14 15 -39 0 -51 4 -62 29 -88 34 -34 60 -36 117 -10
66 30 106 109 84 166 l-10 26 -26 -20 c-15 -12 -31 -21 -37 -21 -20 0 -47 -33
-47 -58 0 -21 -2 -22 -15 -12 -8 7 -15 20 -15 30 0 23 38 70 56 70 8 0 19 11
24 25 5 13 61 74 124 136 135 130 232 254 284 360 30 62 38 72 40 52 2 -14
-10 -53 -27 -87z m-1820 43 c-7 -29 -7 -59 0 -88 14 -62 4 -95 -47 -152 -53
-59 -59 -54 -8 7 49 61 54 100 19 168 -25 50 -30 54 -49 44 -74 -38 -99 -97
-67 -159 30 -56 27 -83 -4 -34 -51 83 -19 168 82 219 37 18 47 20 38 6 -3 -5
-1 -10 4 -10 6 0 11 6 11 13 0 14 21 39 27 33 2 -2 -1 -23 -6 -47z m-521 -312
c40 -135 37 -172 -15 -181 -50 -10 -86 11 -113 64 -28 54 -26 127 5 168 23 31
87 77 89 65 1 -4 17 -57 34 -116z m1547 72 c-14 -33 -57 -81 -57 -64 0 11 64
104 68 100 2 -1 -3 -18 -11 -36z m238 -196 c0 -44 5 -66 22 -89 20 -27 21 -35
10 -63 -14 -38 -2 -64 32 -69 24 -4 61 23 61 43 0 14 49 49 57 41 11 -11 -9
-60 -37 -87 -23 -23 -37 -29 -74 -29 -59 0 -82 29 -72 90 4 29 1 50 -10 73
-21 40 -24 108 -5 130 7 10 14 17 15 17 0 0 1 -26 1 -57z m795 -28 c11 -13 8
-21 -16 -46 -40 -43 -78 -61 -93 -46 -25 25 -3 64 54 95 27 16 40 15 55 -3z
m-919 -23 c-5 -10 -27 -26 -48 -35 -21 -8 -83 -34 -138 -57 -55 -23 -115 -50
-133 -61 -19 -11 3 16 55 65 69 66 92 82 105 75 28 -15 91 -10 128 10 19 10
36 19 38 20 1 0 -2 -7 -7 -17z m769 -158 c0 -40 -20 -36 -40 8 -29 63 -25 77
10 43 17 -16 30 -39 30 -51z"/>
<path d="M3010 3360 c-9 -6 -10 -10 -3 -10 6 0 15 5 18 10 8 12 4 12 -15 0z"/>
<path d="M2983 3293 c9 -2 23 -2 30 0 6 3 -1 5 -18 5 -16 0 -22 -2 -12 -5z"/>
<path d="M3011 3170 c14 -31 19 -36 19 -24 0 6 -7 19 -16 30 -14 18 -14 18 -3
-6z"/>
<path d="M3286 3050 c12 -48 63 -145 94 -180 34 -38 30 -23 -7 26 -12 16 -39
64 -58 105 -20 41 -33 63 -29 49z"/>
<path d="M1716 2938 c-55 -56 -83 -105 -91 -160 -5 -29 -3 -28 18 17 14 28 50
79 81 114 51 59 65 81 50 81 -3 0 -29 -24 -58 -52z"/>
<path d="M2739 2672 c21 -30 68 -70 101 -86 8 -4 2 3 -15 15 -16 13 -48 41
-69 63 -35 36 -37 37 -17 8z"/>
<path d="M3520 2433 c0 -6 7 -42 16 -80 12 -52 15 -96 10 -188 -6 -144 4 -174
27 -76 21 85 21 150 2 224 -15 58 -54 143 -55 120z"/>
<path d="M3638 2219 c4 -66 -8 -172 -33 -291 -7 -37 14 -16 30 30 23 66 29
213 12 282 l-14 55 5 -76z"/>
<path d="M3413 2050 c0 -30 2 -43 4 -27 2 15 2 39 0 55 -2 15 -4 2 -4 -28z"/>
<path d="M3631 1799 c1 -19 5 -47 10 -64 5 -20 6 -9 2 30 -6 66 -14 88 -12 34z"/>
<path d="M3752 1498 c6 -13 17 -45 24 -73 10 -39 12 -44 13 -20 1 29 -32 115
-44 115 -3 0 0 -10 7 -22z"/>
<path d="M1475 2461 c-6 -5 -30 -16 -55 -25 -25 -8 -37 -15 -27 -16 23 0 83
25 91 39 9 13 4 14 -9 2z"/>
<path d="M3206 2520 c3 -25 12 -97 21 -160 23 -168 21 -279 -5 -371 -25 -87
-29 -144 -17 -279 10 -118 -5 -176 -70 -275 -24 -38 -42 -71 -39 -74 12 -12
94 92 114 147 24 63 29 149 16 292 -7 73 -5 93 13 146 41 124 43 143 20 297
-20 141 -63 363 -53 277z"/>
<path d="M3337 1750 c12 -71 7 -238 -10 -317 -21 -94 -80 -221 -146 -307 -29
-37 -50 -70 -48 -72 7 -8 106 67 135 102 113 137 158 368 104 539 -28 90 -45
117 -35 55z"/>
<path d="M1362 1930 c0 -25 4 -56 8 -70 7 -20 8 -17 8 20 0 25 -4 56 -8 70 -7
20 -8 17 -8 -20z"/>
<path d="M1531 1961 c-2 -31 -82 -150 -148 -221 l-68 -74 49 34 c84 60 185
210 173 258 -3 11 -5 12 -6 3z"/>
<path d="M1139 1420 c-70 -61 -108 -139 -114 -237 l-5 -68 19 86 c23 108 30
119 109 202 76 78 71 88 -9 17z"/>
<path d="M2590 2260 c6 -11 13 -20 16 -20 2 0 0 9 -6 20 -6 11 -13 20 -16 20
-2 0 0 -9 6 -20z"/>
<path d="M2151 2055 c-1 -11 21 -98 48 -195 27 -96 52 -184 55 -195 3 -11 4 7
2 40 -5 82 -104 411 -105 350z"/>
<path d="M2550 1995 c-6 -19 -39 -77 -72 -128 -55 -85 -57 -89 -23 -57 20 19
48 53 61 76 28 47 59 132 51 140 -3 3 -10 -11 -17 -31z"/>
<path d="M2946 2149 c-8 -42 0 -50 9 -9 4 17 5 34 2 36 -2 3 -7 -10 -11 -27z"/>
<path d="M1795 2080 c-9 -16 -13 -30 -11 -30 3 0 12 14 21 30 9 17 13 30 11
30 -3 0 -12 -13 -21 -30z"/>
<path d="M1539 1343 c-13 -16 -12 -17 4 -4 9 7 17 15 17 17 0 8 -8 3 -21 -13z"/>
<path d="M1505 1289 c-9 -17 -15 -34 -13 -39 2 -5 11 9 20 30 20 47 15 53 -7
9z"/>
<path d="M4173 1447 c-61 -50 -117 -116 -145 -170 l-20 -40 30 21 c45 32 144
143 170 190 13 23 22 42 20 42 -2 -1 -26 -20 -55 -43z"/>
<path d="M4357 1436 c-80 -35 -211 -115 -203 -124 3 -2 22 6 42 19 20 12 87
49 148 81 125 65 130 75 13 24z"/>
<path d="M2498 1181 c-36 -10 -86 -30 -110 -44 -47 -27 -149 -128 -110 -108
12 7 90 34 172 61 125 42 230 90 230 106 0 11 -124 0 -182 -15z"/>
<path d="M2373 985 c-27 -19 -37 -61 -22 -97 21 -51 97 -50 124 2 20 38 19 52
-6 84 -23 30 -63 34 -96 11z m78 -21 c17 -21 0 -49 -32 -49 -24 0 -36 23 -25
51 7 19 40 18 57 -2z"/>
<path d="M2220 710 c-22 -22 -27 -69 -8 -88 7 -7 24 -12 40 -12 20 0 31 8 43
30 8 16 15 34 15 40 0 15 -38 50 -55 50 -8 0 -24 -9 -35 -20z m40 -30 c0 -5
-4 -10 -10 -10 -5 0 -10 5 -10 10 0 6 5 10 10 10 6 0 10 -4 10 -10z"/>
<path d="M2770 588 c-261 -99 -422 -172 -476 -213 -18 -15 -18 -15 1 -8 10 4
46 20 80 36 33 16 107 49 165 72 58 24 137 57 175 73 128 53 169 83 55 40z"/>
</g>
</svg>