<?xml version="1.0" standalone="no"?>
<!DOCTYPE svg PUBLIC "-//W3C//DTD SVG 20010904//EN"
 "http://www.w3.org/TR/2001/REC-SVG-20010904/DTD/svg10.dtd">
<svg version="1.0" xmlns="http://www.w3.org/2000/svg"
 width="512.000000pt" height="512.000000pt" viewBox="0 0 512.000000 512.000000"
 preserveAspectRatio="xMidYMid meet">
<metadata>
Created by potrace 1.16, written by Peter Selinger 2001-2019
</metadata>
<g transform="translate(0.000000,512.000000) scale(0.100000,-0.100000)"
fill="#000000" stroke="none">
<path d="M2543 4886 c-74 -18 -157 -62 -192 -101 -16 -19 -48 -66 -71 -104
-43 -74 -77 -101 -128 -101 -34 0 -57 23 -107 108 -46 80 -83 105 -148 99 -62
-5 -195 -71 -295 -146 -101 -77 -273 -252 -413 -421 -61 -74 -156 -180 -210
-236 -93 -95 -99 -104 -99 -142 0 -74 3 -75 390 -137 154 -25 216 -38 235 -53
6 -4 15 -20 20 -37 6 -16 25 -39 42 -50 30 -19 32 -24 33 -77 0 -31 5 -69 10
-84 8 -19 8 -30 0 -38 -16 -16 -12 -68 10 -111 24 -48 25 -73 3 -104 -38 -55
-33 -157 11 -216 21 -28 22 -36 17 -144 l-6 -114 -48 -30 c-46 -28 -49 -28
-98 -17 -58 14 -111 55 -139 109 -15 28 -19 32 -20 15 -2 -101 125 -246 253
-290 l48 -16 -74 -78 c-86 -90 -111 -142 -122 -265 -11 -119 -52 -185 -116
-185 -17 0 -28 -6 -31 -18 -4 -15 3 -18 58 -20 35 -2 73 2 86 9 37 19 170 120
165 126 -6 6 -60 -21 -115 -59 l-42 -29 30 48 c17 26 54 69 83 94 56 50 59 71
7 44 -52 -27 -31 3 34 49 47 34 59 38 66 26 21 -33 11 -65 -25 -84 -19 -10
-42 -27 -51 -38 -17 -18 -16 -18 25 -3 42 14 42 14 36 -8 -7 -20 -22 -42 -97
-137 -31 -40 -58 -109 -58 -151 0 -22 -10 -35 -46 -61 -51 -36 -103 -102 -134
-169 l-20 -44 5 50 c7 66 34 119 97 189 45 51 40 66 -6 20 -9 -8 -16 -11 -16
-6 0 6 23 36 51 67 29 30 50 57 48 60 -2 2 -24 -11 -49 -29 -34 -25 -58 -57
-98 -130 -66 -120 -79 -180 -56 -256 9 -30 17 -80 18 -110 l1 -55 -235 -96
c-129 -52 -255 -106 -279 -118 -97 -50 -188 -165 -205 -258 -7 -40 24 -83 60
-83 13 0 24 -2 24 -5 0 -2 -20 -33 -45 -68 -55 -80 -111 -195 -121 -250 -4
-24 -20 -59 -39 -82 -54 -68 -215 -314 -215 -330 0 -3 15 -5 33 -5 28 0 35 6
57 47 14 27 57 97 97 158 71 108 72 109 82 82 6 -16 11 -32 11 -36 0 -4 6 -15
12 -24 11 -14 13 3 13 95 0 101 3 119 27 170 50 108 112 172 132 139 3 -5 -10
-35 -29 -67 -19 -32 -45 -83 -56 -113 -23 -58 -23 -63 -18 -334 l2 -118 36 3
35 3 32 135 c30 128 75 301 89 345 16 48 -40 -34 -75 -110 -20 -44 -42 -91
-49 -105 -9 -21 -11 -11 -7 60 7 119 76 303 134 352 19 16 172 80 172 72 0 -3
-11 -25 -25 -48 -55 -94 -143 -345 -184 -526 -6 -25 -19 -75 -30 -112 l-20
-68 28 0 c28 0 29 3 54 102 14 57 37 155 51 218 14 63 36 147 49 185 l24 70 8
-89 c12 -142 0 -232 -49 -367 l-43 -119 33 0 c26 0 37 6 48 28 l15 27 1 -27
c0 -25 4 -28 35 -28 35 0 36 1 30 35 -3 19 -7 50 -10 68 -8 56 -35 429 -35
493 0 72 -12 63 145 104 138 36 269 82 362 127 87 42 116 69 51 46 -26 -9 -56
-12 -78 -8 -71 13 -167 88 -190 149 -10 28 -8 32 47 85 56 55 267 233 282 239
3 1 15 -12 25 -30 11 -18 34 -51 52 -74 l32 -40 -14 -54 c-8 -30 -14 -91 -14
-135 0 -118 -49 -362 -136 -670 -41 -148 -79 -283 -85 -299 -5 -16 -9 -31 -9
-32 0 -2 47 -4 105 -4 l105 0 2 133 c1 72 3 110 5 82 1 -27 8 -87 14 -132 l11
-83 48 0 48 0 -24 76 c-63 197 -55 381 27 702 28 108 53 199 56 202 3 3 3 -20
0 -51 -7 -78 7 -142 52 -232 l39 -77 -14 -53 c-17 -66 -17 -121 0 -172 22 -64
38 -263 26 -325 -11 -57 -20 -77 -20 -42 0 55 -44 98 -67 66 -17 -23 -17 -94
0 -94 7 0 12 14 12 35 0 19 5 35 10 35 6 0 10 -16 10 -36 l0 -35 48 3 48 3 73
171 c92 216 126 271 242 396 52 55 97 112 100 127 8 41 19 54 48 62 23 7 28 4
40 -24 14 -31 14 -33 -22 -62 -20 -16 -83 -76 -138 -132 -83 -82 -110 -117
-143 -183 -23 -45 -41 -96 -41 -113 l0 -30 25 23 c18 16 22 26 13 31 -16 10
58 132 120 195 57 58 140 126 127 104 -4 -8 -21 -33 -35 -55 -15 -22 -48 -80
-73 -130 -46 -93 -107 -162 -192 -218 -22 -15 -49 -41 -59 -58 -21 -36 -23
-36 76 32 39 27 73 47 75 45 16 -16 -59 -103 -142 -163 l-30 -22 26 -1 c14 0
44 13 65 28 64 46 64 46 53 10 -5 -18 -9 -34 -9 -35 0 -2 12 -3 28 -3 26 0 29
6 75 143 63 184 112 289 193 409 92 137 137 182 204 203 30 9 86 33 125 52
l70 35 -45 -48 c-24 -27 -75 -74 -111 -104 -80 -66 -112 -109 -38 -50 29 23
73 52 98 65 29 15 95 76 179 164 169 179 224 221 131 101 -37 -47 -87 -116
-112 -155 -25 -38 -70 -98 -99 -132 -29 -34 -120 -145 -202 -245 -194 -237
-274 -332 -328 -390 l-44 -48 33 0 c35 0 19 -17 557 593 71 81 131 147 133
147 4 0 -11 -37 -81 -193 -101 -226 -141 -300 -219 -408 -40 -55 -78 -109 -86
-119 -13 -19 -11 -20 50 -20 l64 0 24 63 c13 34 70 159 127 277 56 119 130
283 164 365 61 147 99 228 331 705 119 244 162 291 68 74 -68 -159 -117 -301
-124 -366 l-6 -53 34 80 c19 44 74 149 121 234 47 85 91 170 97 189 l12 35 31
-35 c17 -19 24 -25 16 -15 -13 17 -8 16 35 -6 28 -14 78 -33 110 -42 86 -25
88 -28 83 -105 -6 -84 -54 -179 -142 -282 -169 -198 -333 -296 -421 -251 -59
31 -7 -14 114 -99 240 -168 245 -172 219 -179 -22 -6 -22 -7 7 -18 45 -17 57
-25 78 -53 29 -38 16 -84 -50 -181 -46 -69 -89 -125 -246 -324 -7 -10 3 -13
44 -13 l54 0 105 152 c133 192 153 229 153 293 1 66 -22 106 -87 155 -30 22
-57 44 -61 50 -5 9 136 223 154 234 6 4 380 -180 394 -194 5 -4 -28 -52 -73
-106 -142 -172 -235 -329 -304 -516 l-25 -68 38 0 38 0 37 97 c53 135 122 254
244 416 l103 137 37 -20 c20 -12 52 -34 71 -49 l33 -27 -83 -55 c-96 -62 -206
-168 -274 -264 -49 -68 -135 -213 -135 -227 0 -5 13 -8 30 -8 25 0 33 7 51 42
100 196 298 442 388 483 39 17 40 17 69 -4 44 -31 154 -81 179 -81 12 0 24 -4
27 -9 6 -8 -27 -28 -212 -129 -66 -35 -79 -54 -21 -28 19 8 94 38 168 67 l133
52 27 -33 c83 -103 147 -254 139 -325 l-4 -35 88 0 c86 0 88 1 84 23 -13 61
-16 117 -8 117 6 0 31 -24 56 -52 l46 -53 0 71 c0 89 -32 192 -102 326 -50 95
-51 98 -33 118 36 40 15 108 -57 186 -27 29 -42 55 -43 75 -2 17 -12 43 -22
58 -24 32 -205 155 -382 258 l-134 79 -1 119 c-1 113 -3 124 -32 186 -22 46
-56 91 -108 145 -42 42 -76 81 -76 86 0 4 -16 26 -35 47 l-36 39 36 12 c54 18
51 29 -8 23 -52 -5 -56 -4 -94 31 -38 34 -40 39 -36 80 7 60 -27 168 -72 229
-20 26 -58 63 -85 83 -48 35 -50 38 -50 85 0 78 -30 128 -135 224 -51 47 -116
119 -145 160 l-51 75 50 103 c61 123 85 218 77 301 -6 60 -42 140 -82 186 -18
21 -21 33 -17 70 5 43 8 47 67 82 76 46 200 80 414 113 183 29 206 37 222 74
24 58 -51 218 -193 411 -90 123 -304 335 -437 434 -278 206 -521 297 -795 295
-71 0 -153 -6 -182 -13z m377 -39 c54 -13 53 -14 -90 -13 -153 0 -218 -11
-306 -49 -84 -37 -131 -88 -181 -195 -61 -132 -101 -170 -178 -170 -48 0 -76
29 -139 143 -27 48 -66 103 -87 122 -33 30 -41 32 -73 25 -70 -16 -189 -90
-356 -223 l-75 -60 70 72 c90 93 180 161 279 211 129 66 172 54 248 -67 44
-70 78 -93 134 -93 55 0 96 32 153 119 77 118 136 161 260 187 79 16 259 12
341 -9z m130 -61 c85 -15 201 -61 305 -119 275 -155 635 -529 715 -744 11 -30
19 -57 17 -59 -2 -2 -91 80 -198 183 -198 189 -389 343 -562 449 -199 123
-421 234 -500 248 -33 6 -41 3 -66 -21 -23 -24 -30 -43 -40 -113 -30 -202
-104 -303 -225 -303 -49 0 -166 28 -166 39 0 3 9 17 19 30 28 35 57 175 52
244 -1 13 -2 13 -11 0 -8 -12 -10 -12 -10 -1 0 8 24 37 53 66 55 56 124 88
220 104 81 14 314 12 397 -3z m-136 -105 c109 -47 295 -149 426 -235 138 -91
320 -241 526 -434 100 -93 196 -178 213 -188 35 -21 43 -49 11 -41 -10 3 -21
0 -23 -6 -9 -27 -66 15 -227 169 -309 294 -522 467 -720 585 -110 65 -269 139
-299 139 -23 0 -37 -32 -56 -133 -28 -151 -89 -239 -203 -293 -69 -33 -162
-40 -355 -26 l-128 9 -38 37 c-58 57 -90 124 -127 269 l-34 132 4 -130 c5
-166 28 -246 85 -298 34 -30 51 -37 137 -52 165 -29 171 -45 28 -74 -229 -48
-413 -152 -510 -287 -26 -36 -44 -68 -40 -71 4 -4 14 4 23 18 9 13 44 51 78
84 203 198 483 274 782 211 73 -16 297 -85 291 -91 -1 -1 -43 6 -93 16 -279
57 -554 43 -780 -42 -100 -37 -228 -133 -287 -213 l-28 -39 0 35 c0 19 9 61
20 93 11 32 20 75 20 97 0 49 -18 50 -85 2 -107 -76 -116 -79 -267 -79 -158 0
-178 8 -137 52 14 16 69 85 121 154 120 157 226 270 323 344 68 52 95 78 63
59 -132 -77 -249 -192 -410 -400 -157 -202 -190 -239 -211 -231 -29 11 -19 53
25 104 23 26 94 113 159 193 64 80 150 177 190 216 130 125 356 297 434 330
55 22 81 18 108 -18 38 -52 104 -179 133 -254 38 -104 85 -145 177 -159 59 -9
60 -1 2 18 -66 23 -109 60 -144 126 -17 32 -31 62 -31 65 0 3 22 -17 48 -44
46 -48 51 -50 101 -50 40 0 70 -9 125 -36 83 -40 164 -53 219 -35 50 17 124
85 152 141 23 45 55 184 55 238 0 29 26 62 48 62 8 0 56 -18 106 -39z m71
-100 c126 -61 308 -182 450 -300 155 -129 349 -314 423 -405 l64 -77 -44 7
c-23 3 -158 35 -298 70 -140 34 -309 74 -375 89 -66 14 -144 32 -173 41 -51
15 -53 17 -33 31 31 21 51 66 51 115 0 26 -19 95 -46 173 -36 98 -47 143 -45
182 1 28 -3 54 -9 58 -6 4 -10 -5 -10 -20 0 -22 -3 -26 -17 -20 -10 4 -31 10
-48 14 -23 5 -32 14 -37 36 -5 21 -6 16 -3 -18 2 -26 -1 -49 -5 -52 -5 -3 -6
-22 -4 -43 l5 -37 -16 35 c-12 26 -14 39 -6 52 6 10 11 43 11 74 l0 57 33 -7
c17 -3 77 -28 132 -55z m-614 -8 c-12 -20 -14 -14 -5 12 4 9 9 14 11 11 3 -2
0 -13 -6 -23z m-31 -85 c-27 -73 -63 -106 -125 -114 -35 -5 -46 -4 -41 4 4 7
17 12 30 12 38 0 100 53 126 108 31 66 37 60 10 -10z m563 26 c9 -10 -25 -74
-40 -74 -14 0 -19 61 -6 73 8 9 38 9 46 1z m51 -100 c23 -88 21 -163 -6 -204
-13 -19 -30 -35 -38 -38 -8 -2 -5 3 6 12 12 9 27 30 33 47 l11 31 -29 -31
c-22 -23 -38 -31 -64 -31 -48 0 -67 22 -67 76 0 54 20 95 58 122 15 12 37 37
47 56 11 20 22 32 26 28 3 -4 13 -34 23 -68z m-164 -52 c-28 -107 -9 -173 54
-191 l31 -9 -32 -1 c-83 -2 -117 133 -65 263 25 63 33 20 12 -62z m-70 -177
c0 -14 6 -40 14 -58 24 -58 71 -92 189 -138 267 -101 517 -240 517 -286 0 -11
-19 -4 -72 26 -231 131 -582 283 -788 342 l-114 33 55 11 c65 13 139 47 164
75 24 27 35 25 35 -5z m-105 -332 c132 -19 343 -75 398 -106 27 -15 50 -40 71
-77 34 -61 38 -115 22 -271 -8 -67 -6 -83 18 -151 31 -90 36 -206 10 -266 -17
-43 -67 -97 -106 -118 -46 -24 -43 -16 16 46 31 32 63 75 71 94 16 38 19 98 6
131 -7 16 -9 13 -15 -20 -11 -56 -30 -88 -76 -127 -44 -39 -97 -58 -157 -58
-38 0 -41 -2 -67 -54 -21 -42 -28 -73 -33 -145 -3 -50 -9 -91 -14 -91 -10 0
-54 58 -133 178 -80 121 -177 229 -224 249 -30 12 -37 12 -58 -2 -26 -17 -58
-71 -49 -84 3 -5 18 4 34 20 35 34 50 36 85 8 20 -16 26 -29 26 -60 0 -44 -4
-46 -48 -24 -27 14 -35 14 -66 1 -20 -8 -51 -26 -68 -39 -18 -14 -43 -28 -55
-31 -33 -10 -91 18 -99 48 -7 29 -34 36 -34 9 0 -14 -2 -14 -20 2 -24 22 -25
43 -4 73 20 29 42 28 50 -3 16 -64 36 16 59 234 19 185 19 182 -11 226 -21 32
-24 42 -15 62 15 33 13 102 -4 138 -13 30 -13 30 -14 -25 -1 -58 -13 -91 -25
-71 -4 6 -11 9 -16 6 -5 -3 -12 0 -16 6 -5 8 -2 10 7 4 8 -4 1 4 -16 18 -16
14 -48 35 -70 47 l-40 22 45 -41 c55 -51 42 -49 -107 15 -56 24 -109 44 -118
44 -17 0 -61 -41 -82 -75 -11 -20 -11 -20 -8 0 27 143 37 160 125 199 180 81
509 105 825 59z m572 -247 c42 -82 72 -114 137 -146 33 -16 52 -29 41 -29 -30
0 -88 30 -128 66 -35 31 -58 69 -91 147 -14 35 -14 37 0 25 8 -7 27 -36 41
-63z m46 -6 c8 -11 16 -18 19 -15 3 3 31 -22 62 -56 57 -61 67 -85 24 -57 -53
36 -152 148 -129 148 5 0 16 -9 24 -20z m-1400 -82 c37 -11 51 -28 22 -28 -35
0 -74 -31 -95 -75 -26 -55 -21 -69 10 -25 50 71 147 81 263 27 99 -46 101 -49
93 -155 -14 -187 -17 -202 -38 -202 -11 0 -33 -13 -48 -30 -30 -32 -80 -146
-80 -183 0 -20 3 -19 21 11 12 17 24 32 27 32 4 -1 25 -16 47 -35 38 -33 39
-35 15 -35 -48 0 -102 -22 -139 -56 -21 -19 -41 -34 -45 -34 -3 0 -6 14 -6 31
0 78 -21 122 -91 190 -102 98 -115 145 -83 284 l17 70 -27 66 c-29 72 -32 107
-13 131 30 39 59 42 150 16z m1409 -120 c37 -32 24 -38 -15 -8 -14 11 -32 41
-41 67 -22 65 -19 78 5 18 11 -27 34 -62 51 -77z m83 28 c22 -8 32 -15 23 -15
-42 -2 -107 40 -130 84 -6 11 7 4 28 -17 22 -21 57 -44 79 -52z m-83 -100 c36
-22 29 -33 -10 -17 -16 7 -36 27 -45 47 -24 49 -21 66 4 23 12 -20 35 -44 51
-53z m-1588 -31 c7 -29 7 -29 -12 -11 -23 20 -36 61 -26 78 8 13 28 -22 38
-67z m1796 60 c75 -39 86 -170 26 -315 -42 -104 -104 -221 -125 -237 -28 -23
-73 -11 -93 24 -28 47 -25 225 4 244 5 3 3 26 -4 52 -12 45 -11 48 30 130 32
63 51 88 75 100 41 20 51 20 87 2z m-200 -89 c0 -2 -7 -7 -16 -10 -8 -3 -12
-2 -9 4 6 10 25 14 25 6z m-1595 -286 c5 -9 4 -11 -3 -6 -18 11 -33 82 -25
113 6 24 8 18 14 -33 3 -33 9 -66 14 -74z m936 -166 c21 -28 39 -53 39 -56 0
-2 -28 9 -62 26 -57 28 -70 31 -164 31 -101 0 -103 0 -90 20 10 15 27 21 67
23 58 3 76 13 90 51 l10 24 35 -34 c19 -19 53 -57 75 -85z m-786 11 c9 -23 15
-57 13 -76 -3 -32 -4 -33 -15 -13 -7 12 -21 54 -32 94 -20 71 -20 72 -1 55 11
-10 27 -36 35 -60z m1372 3 c-3 -8 -6 -5 -6 6 -1 11 2 17 5 13 3 -3 4 -12 1
-19z m-253 -73 c0 -52 -7 -83 -25 -120 l-24 -50 -6 30 c-21 97 1 220 38 213
15 -3 18 -14 17 -73z m233 -36 c-6 -71 -40 -165 -56 -155 -5 3 -20 -3 -34 -14
-90 -71 -234 -87 -339 -38 -32 15 -80 48 -108 74 -50 46 -120 134 -120 149 0
5 42 -32 93 -82 110 -106 176 -143 269 -149 65 -3 61 -2 -29 17 -68 13 -154
71 -218 146 -52 61 -47 59 49 -20 87 -71 149 -99 229 -105 76 -5 137 13 188
55 44 37 61 77 60 144 0 40 4 57 11 53 7 -4 9 -31 5 -75z m-1447 40 c-11 -19
-10 -21 5 -15 15 5 16 4 5 -9 -20 -24 -33 -3 -19 29 7 14 14 24 16 22 3 -2 -1
-14 -7 -27z m1418 -5 c-4 -3 -12 5 -18 18 -12 22 -12 22 6 6 10 -10 15 -20 12
-24z m-1183 -74 c-143 -136 -223 -167 -345 -136 -35 9 -65 15 -67 12 -11 -11
85 -36 137 -36 101 0 166 34 309 164 46 42 91 76 100 76 27 -1 -170 -185 -235
-219 -53 -29 -55 -31 -24 -26 53 8 136 68 228 164 46 47 79 76 73 65 -6 -12
-45 -57 -88 -101 -96 -98 -185 -147 -248 -138 -31 5 -37 4 -25 -5 25 -19 -122
-3 -182 20 -29 11 -69 34 -88 51 -31 27 -31 28 -5 11 26 -17 46 -19 135 -18
93 1 111 4 156 28 28 15 76 50 106 77 50 46 132 101 150 101 4 0 -35 -40 -87
-90z m496 13 c36 -55 44 -71 25 -53 -28 26 -86 107 -86 122 0 18 12 5 61 -69z
m50 0 c20 -26 44 -61 54 -76 10 -15 20 -25 23 -22 3 2 27 -16 54 -41 56 -53
100 -73 181 -84 104 -15 208 11 271 69 16 15 27 20 24 11 -9 -32 -96 -78 -170
-91 -125 -21 -249 13 -345 96 -48 41 -184 223 -150 201 12 -9 38 -37 58 -63z
m-234 -16 c21 -22 11 -31 -32 -31 -41 0 -50 7 -37 30 6 11 11 13 16 5 4 -6 16
-11 27 -11 19 0 19 1 5 22 -9 12 -16 34 -15 48 1 21 2 20 11 -10 5 -19 17 -43
25 -53z m143 -2 c46 -51 48 -54 11 -20 -23 22 -52 54 -63 70 -25 35 -20 30 52
-50z m-669 16 c-29 -41 -25 -52 5 -16 l26 30 -18 -32 c-18 -32 -44 -45 -44
-22 0 12 38 69 46 69 3 0 -4 -13 -15 -29z m1752 -241 c143 -307 170 -386 173
-501 1 -78 5 -93 38 -156 40 -76 77 -117 175 -190 35 -26 76 -64 90 -83 19
-26 21 -31 5 -18 -11 10 -50 27 -86 38 -57 17 -73 28 -111 73 -24 28 -52 66
-60 82 -9 17 -16 23 -17 14 0 -8 15 -41 34 -72 l34 -57 -28 15 c-39 20 -78 70
-112 141 -32 68 -43 120 -58 279 -8 89 -20 137 -62 260 -28 82 -58 169 -66
193 -8 23 -16 41 -18 39 -2 -2 21 -85 51 -186 54 -177 62 -218 85 -406 6 -49
20 -110 31 -134 26 -59 18 -63 -15 -7 -47 80 -66 135 -86 254 -11 65 -31 169
-45 232 -13 63 -36 180 -49 260 -14 80 -29 156 -32 170 -16 60 21 -9 129 -240z
m-244 177 c1 -5 -3 -5 -9 -2 -5 3 -10 16 -9 28 0 21 1 21 9 2 5 -11 9 -24 9
-28z m31 -117 c14 -43 23 -99 26 -165 2 -55 8 -129 14 -165 5 -36 14 -95 20
-131 5 -36 10 -95 9 -130 l-1 -64 -21 60 c-16 46 -21 85 -21 169 l0 109 -14
-59 c-17 -73 -10 -176 18 -262 20 -64 28 -223 12 -248 -4 -7 -7 29 -8 80 0 50
-6 102 -11 116 -8 19 -10 0 -6 -76 4 -63 2 -108 -5 -120 -8 -15 -11 -4 -11 51
0 39 -7 105 -16 148 -8 43 -15 98 -15 122 0 24 -4 47 -10 50 -15 9 -12 -52 6
-169 24 -150 16 -268 -24 -349 -17 -35 -41 -72 -52 -82 -19 -17 -19 -15 4 36
37 79 49 150 42 249 -21 320 -27 261 47 460 13 36 27 79 30 95 6 26 4 25 -13
-10 -11 -22 -17 -29 -12 -15 4 14 7 75 7 135 -1 94 -5 121 -28 186 -15 41 -27
80 -27 85 1 23 41 -48 60 -106z m-909 77 c30 -13 64 -28 76 -33 15 -6 -50 -10
-187 -12 -116 -2 -210 1 -210 5 0 5 15 15 34 21 19 7 40 19 46 27 21 26 176
20 241 -8z m859 -126 c37 -117 18 -247 -49 -345 -54 -78 -71 -125 -70 -196 0
-36 6 -81 13 -100 12 -33 13 -30 12 50 0 73 3 94 27 144 33 72 42 70 17 -4
-15 -44 -19 -84 -20 -195 0 -182 -29 -298 -94 -371 -11 -13 -37 -44 -56 -69
-36 -47 -91 -97 -145 -131 -18 -11 4 18 52 69 135 143 160 223 148 473 -8 177
-2 206 62 290 77 101 98 156 97 254 0 59 -7 103 -22 145 -37 106 -36 103 -13
75 12 -14 30 -54 41 -89z m460 29 c11 -15 23 -43 26 -62 6 -29 2 -26 -31 27
-20 33 -46 71 -58 84 l-22 25 32 -23 c18 -12 41 -35 53 -51z m19 -114 c13 -17
12 -17 -10 -5 -33 17 -159 144 -159 160 0 12 140 -116 169 -155z m-1132 100
c33 -35 35 -42 29 -83 -8 -57 -20 -80 -59 -103 -55 -34 -114 -22 -166 34 -30
32 -22 44 13 20 34 -22 40 -15 26 33 -10 38 -10 38 42 85 29 26 49 48 45 48
-4 0 -38 -15 -75 -34 -64 -33 -72 -35 -188 -37 -130 -4 -137 -2 -173 50 l-19
26 245 0 244 0 36 -39z m-521 -13 c33 -44 35 -52 30 -96 l-5 -48 29 21 c18 13
30 16 30 10 0 -18 -60 -70 -80 -70 -36 0 -79 79 -80 147 0 34 18 83 31 83 5 0
24 -21 45 -47z m1130 -70 c17 -60 14 -125 -8 -168 -11 -21 -13 -11 -13 73 0
53 -3 112 -7 130 -13 55 10 27 28 -35z m-1431 -33 c-12 -35 -16 -78 -14 -153
2 -94 0 -107 -19 -132 -26 -32 -28 -26 -7 15 13 25 13 38 4 76 -15 59 -5 151
23 216 27 62 36 47 13 -22z m97 43 c-6 -10 -20 -27 -33 -38 -24 -21 -19 -9 15
37 21 30 34 31 18 1z m1285 -15 c-3 -7 -5 -2 -5 12 0 14 2 19 5 13 2 -7 2 -19
0 -25z m-1441 -4 c-3 -9 -6 -21 -6 -28 0 -7 -16 -20 -35 -29 -19 -9 -55 -35
-80 -58 -25 -23 -45 -39 -45 -35 0 30 58 96 125 144 36 26 49 28 41 6z m1078
-14 c14 -17 31 -50 38 -73 18 -59 15 -194 -5 -237 l-16 -35 7 45 c10 66 6 183
-8 227 -7 21 -23 53 -37 71 -30 41 -13 42 21 2z m292 -22 c11 -22 13 -44 8
-86 l-7 -57 -23 85 c-13 47 -24 88 -24 92 0 17 32 -7 46 -34z m-1231 -40 c-12
-35 -26 -83 -29 -108 -6 -44 -6 -44 14 15 12 33 30 71 41 85 l20 25 -20 -40
c-35 -73 -54 -152 -43 -183 10 -26 10 -26 12 13 1 22 6 49 11 60 7 16 8 14 4
-10 -3 -16 -6 -51 -7 -77 -1 -27 -4 -48 -5 -48 -1 0 -12 18 -23 40 -27 52 -26
133 1 207 19 51 36 83 44 83 1 0 -8 -28 -20 -62z m1090 1 c21 -63 17 -205 -8
-263 -19 -44 -33 -44 -17 0 26 68 23 232 -6 308 -5 13 -4 17 4 13 6 -4 18 -30
27 -58z m745 1 c56 -21 101 -51 94 -62 -4 -7 -2 -8 5 -4 14 9 115 -94 141
-144 10 -20 21 -53 25 -73 l7 -37 -30 11 c-19 7 -32 19 -36 35 -17 68 -102
158 -184 197 -51 24 -60 32 -93 91 l-22 40 29 -20 c16 -11 45 -26 64 -34z
m-645 -44 c8 -27 14 -75 14 -105 l-1 -56 -8 47 c-5 25 -16 73 -25 105 -9 32
-18 67 -21 78 -11 44 26 -19 41 -69z m-666 37 l21 -38 -25 30 c-23 28 -31 45
-21 45 2 0 14 -17 25 -37z m-683 -25 c-3 -17 -7 -32 -9 -33 -53 -30 -114 -76
-138 -104 -28 -34 -29 -34 -19 -8 17 48 70 117 112 148 52 37 62 37 54 -3z
m577 -128 c1 -41 -7 -91 -21 -134 -14 -42 -22 -95 -23 -140 l0 -71 -28 85
c-16 47 -26 89 -23 94 3 5 0 6 -6 2 -6 -3 -22 12 -36 36 -35 58 -33 41 5 -35
21 -44 24 -55 10 -37 -12 14 -30 43 -41 65 -26 53 -25 35 5 -81 14 -54 23 -99
21 -101 -11 -11 -70 168 -74 224 -4 54 0 71 25 125 17 35 40 74 52 88 16 19
13 7 -14 -50 -19 -41 -35 -86 -34 -100 0 -17 4 -11 13 20 10 38 69 140 81 140
2 0 -8 -21 -22 -46 -30 -53 -36 -134 -14 -197 19 -56 24 -39 10 37 -14 76 -5
121 37 176 14 19 24 28 21 20 -42 -115 -42 -115 -22 -216 21 -107 35 -107 33
1 -1 62 -2 65 -7 25 l-6 -45 -8 34 c-13 61 -6 113 31 221 9 28 35 -73 35 -140z
m32 116 c32 -75 36 -123 19 -199 -9 -39 -17 -81 -17 -92 -1 -11 -6 -23 -11
-27 -6 -3 -13 -53 -16 -110 l-7 -103 -1 110 c-1 65 4 139 13 180 17 78 19 180
6 238 -11 46 -4 48 14 3z m-362 -38 c-34 -68 -44 -193 -19 -251 8 -21 10 -35
5 -31 -34 21 -52 159 -28 221 12 34 58 113 65 113 2 0 -8 -24 -23 -52z m411
-2 c32 -67 10 -224 -35 -252 -9 -5 -10 -2 -4 12 39 95 44 162 16 241 -20 58
-5 57 23 -1z m-324 -3 c-29 -32 -60 -90 -60 -110 0 -4 13 14 29 39 42 67 54
67 23 1 -34 -74 -37 -158 -6 -220 29 -58 13 -55 -24 5 -69 106 -61 218 21 294
43 41 55 34 17 -9z m438 -29 c12 -18 13 -18 8 4 -6 29 0 28 19 -5 15 -27 16
-27 11 -4 -5 22 -4 23 11 8 38 -37 10 -144 -62 -232 l-23 -30 15 65 c18 79 12
165 -16 223 l-20 42 22 -26 c12 -14 28 -35 35 -45z m197 16 c18 -36 25 -64 24
-102 l-1 -53 -9 45 c-5 25 -18 66 -29 92 -35 81 -24 95 15 18z m1080 -58 c-7
-7 -34 18 -47 42 -8 16 -3 14 21 -8 17 -16 29 -32 26 -34z m-1136 -32 c0 -53
-17 -107 -50 -155 -31 -45 -44 -45 -18 0 27 46 49 128 50 190 1 64 17 32 18
-35z m165 -98 c-21 -57 -27 -49 -9 13 8 26 16 76 17 109 l2 61 3 -70 c3 -48
-1 -83 -13 -113z m-117 61 c-3 -10 -5 -4 -5 12 0 17 2 24 5 18 2 -7 2 -21 0
-30z m583 17 c-6 -11 -13 -20 -16 -20 -2 0 0 9 6 20 6 11 13 20 16 20 2 0 0
-9 -6 -20z m571 -103 c20 -14 61 -37 92 -50 71 -32 84 -53 15 -27 -137 54
-190 92 -212 155 -5 14 3 10 31 -16 21 -19 54 -47 74 -62z m14 48 l20 -16 -20
10 c-11 5 -29 17 -40 26 l-20 16 20 -10 c11 -5 29 -17 40 -26z m-2098 -42
c-35 -48 -118 -131 -101 -103 18 32 127 161 131 156 3 -3 -11 -27 -30 -53z
m1692 -113 c0 -47 -2 -102 -6 -123 l-6 -39 -16 49 c-11 31 -13 50 -6 55 5 4
12 49 14 100 5 113 19 84 20 -42z m-1629 49 c0 -62 2 -70 15 -59 13 11 15 7
16 -26 l1 -39 13 30 c8 17 14 42 15 58 0 40 16 33 24 -10 10 -63 7 -92 -14
-135 -11 -23 -20 -44 -20 -47 0 -12 64 57 81 89 l20 35 -6 -40 c-3 -22 -12
-87 -21 -145 -28 -184 -1 -320 89 -456 26 -38 54 -80 63 -94 9 -14 -15 7 -54
47 -80 81 -131 175 -156 288 l-16 70 4 -75 c5 -83 9 -113 16 -120 3 -3 17 -29
32 -59 l28 -55 -36 35 c-31 28 -34 30 -24 10 7 -14 33 -46 58 -73 52 -56 40
-65 -17 -13 -46 42 -114 168 -136 251 -8 32 -15 90 -16 129 0 58 -2 66 -11 45
-12 -31 -16 -142 -5 -195 11 -58 -9 -22 -28 51 -30 114 -22 204 31 339 5 13
-2 8 -19 -11 -38 -45 -67 -112 -67 -158 0 -48 -17 -38 -23 14 -3 19 -3 -3 0
-50 2 -47 6 -101 8 -120 l5 -35 -15 32 c-21 46 -29 158 -16 228 14 74 62 175
110 229 l36 41 -42 -33 c-24 -19 -58 -52 -78 -74 -43 -51 -46 -37 -4 25 29 44
135 147 152 147 4 0 7 -32 7 -71z m1255 -127 c-1 -169 -3 -192 -23 -242 -46
-116 -111 -197 -237 -295 -44 -35 -91 -75 -105 -90 -14 -15 -38 -36 -54 -48
-24 -17 -21 -10 17 37 26 31 47 62 47 68 0 6 3 9 6 5 9 -9 82 43 137 99 41 41
117 171 117 199 0 17 -55 -43 -147 -163 -96 -123 -127 -150 -80 -70 24 43 94
231 117 318 7 25 15 88 19 140 l7 95 13 -60 c12 -55 11 -141 -4 -191 -3 -10
10 12 30 51 19 38 35 79 35 90 0 11 4 26 9 33 23 37 28 -95 6 -159 l-15 -44
20 25 c29 36 48 110 60 235 10 95 19 155 24 155 0 0 1 -84 1 -188z m955 51
c47 -30 110 -84 121 -105 9 -17 -7 -11 -82 29 -52 27 -134 65 -184 83 -106 39
-135 56 -135 80 0 15 16 12 128 -27 70 -24 138 -51 152 -60z m-803 -20 c-2
-16 -4 -3 -4 27 0 30 2 43 4 28 2 -16 2 -40 0 -55z m658 -2 c80 -31 137 -60
122 -61 -17 0 -152 33 -182 46 -37 15 -95 61 -95 75 0 5 17 1 38 -10 20 -10
73 -33 117 -50z m-1100 -141 c0 -89 -2 -99 -37 -170 -48 -96 -122 -186 -190
-228 -29 -19 -81 -51 -115 -72 -73 -46 -106 -91 -139 -192 l-24 -73 4 56 c10
130 55 197 186 275 44 26 80 49 80 51 0 2 -32 -13 -71 -32 -79 -40 -148 -99
-173 -148 l-17 -32 7 35 c12 64 65 159 140 255 85 107 113 162 114 220 1 34 2
37 11 21 17 -29 4 -102 -25 -147 -22 -33 -24 -38 -8 -30 23 12 96 90 113 122
7 13 18 49 25 79 l11 55 8 -47 c4 -27 4 -63 1 -82 -9 -49 -63 -123 -133 -181
-32 -27 -77 -65 -99 -83 -33 -28 -29 -27 26 9 214 139 276 261 214 423 -14 38
18 5 36 -37 l19 -41 7 63 c10 95 29 51 29 -69z m464 -31 c2 -205 -138 -383
-432 -553 -93 -53 -115 -80 -143 -175 -36 -122 -55 -171 -66 -171 -6 0 -7 8
-3 18 12 27 57 193 53 197 -2 2 -28 -3 -58 -10 -30 -7 -66 -16 -80 -19 -44
-10 -50 -20 -89 -150 l-39 -128 -84 -86 c-95 -98 -151 -175 -199 -277 l-32
-70 -8 63 c-4 35 -15 85 -24 112 -15 47 -15 49 11 114 30 75 28 92 -16 157
-16 24 -30 47 -30 52 0 4 18 -2 41 -14 57 -28 159 -49 251 -49 l76 0 27 118
c42 185 39 181 155 202 83 15 99 22 141 61 20 19 63 49 95 68 180 104 278 187
356 301 61 89 81 158 81 280 0 77 3 94 8 65 4 -22 8 -70 8 -106z m605 92 c3
-4 56 -37 118 -71 186 -104 265 -201 276 -338 5 -61 4 -66 -11 -54 -9 8 -28
49 -42 91 -32 98 -63 134 -207 243 -116 88 -170 138 -150 138 6 0 13 -4 16 -9z
m-1734 -6 c0 -2 -7 -30 -15 -62 -22 -84 -19 -109 23 -200 l38 -81 -4 83 c-4
81 9 155 29 155 5 0 7 -22 3 -52 -4 -38 0 -77 15 -134 15 -59 19 -98 15 -145
-3 -38 0 -93 9 -136 11 -59 11 -71 1 -62 -35 29 -91 133 -120 223 -35 108 -45
95 -19 -22 10 -45 38 -107 80 -182 65 -115 89 -190 83 -252 -3 -30 -5 -28 -16
22 -15 64 -59 146 -112 211 -58 69 -117 165 -134 217 -46 140 -40 318 13 367
19 16 19 15 4 -27 -15 -44 -12 -113 6 -146 7 -12 8 -4 4 25 -8 62 4 106 43
157 30 39 54 58 54 41z m331 -42 c-10 -16 -52 -59 -91 -98 -40 -38 -78 -83
-85 -100 l-13 -30 -1 27 c-2 49 18 76 109 152 51 42 94 76 97 76 2 0 -5 -12
-16 -27z m1645 -14 c161 -60 269 -207 248 -337 l-7 -47 -12 80 c-14 96 -41
151 -94 197 -39 34 -67 49 -191 107 -51 25 -58 30 -30 25 19 -4 58 -15 86 -25z
m-2506 -19 c0 -19 -8 -37 -22 -48 -92 -73 -108 -95 -144 -187 -7 -18 -8 -17
-11 7 -6 36 12 98 39 138 20 30 121 120 133 120 3 0 5 -14 5 -30z m696 -13
c-27 -40 -59 -216 -37 -203 4 3 6 -6 3 -19 -8 -42 -20 -18 -27 54 -6 58 -4 76
14 117 22 48 50 88 58 80 3 -2 -3 -15 -11 -29z m163 -8 c-22 -38 -159 -178
-159 -161 0 14 165 202 178 202 2 0 -7 -18 -19 -41z m-134 -19 c-39 -40 -55
-46 -38 -15 9 15 61 55 73 55 2 0 -13 -18 -35 -40z m-755 -82 c-31 -47 -80
-150 -80 -169 0 -8 -7 -24 -15 -35 -15 -18 -15 -15 -10 36 8 71 37 131 81 170
45 39 51 38 24 -2z m926 -15 c-8 -16 -38 -53 -67 -83 -33 -36 -45 -44 -33 -25
15 26 104 133 112 134 1 1 -4 -11 -12 -26z m-747 -198 c12 -27 36 -68 53 -90
l31 -40 -41 39 c-70 66 -100 161 -84 264 6 45 7 43 13 -38 4 -55 14 -103 28
-135z m1327 153 c-9 -18 -28 -46 -42 -63 l-25 -30 26 45 c14 25 31 55 37 68 6
12 13 20 15 18 3 -2 -2 -19 -11 -38z m917 -9 c35 -18 67 -51 67 -68 0 -10 -3
-12 -8 -5 -4 6 -28 25 -54 43 -27 17 -48 34 -48 36 0 9 21 5 43 -6z m-1681
-85 c-14 -36 -28 -61 -30 -55 -4 11 43 121 52 121 2 0 -8 -30 -22 -66z m412
-76 c-27 -47 -85 -126 -100 -138 -16 -13 13 32 80 123 20 28 33 37 20 15z
m-447 -20 c-3 -8 -6 -5 -6 6 -1 11 2 17 5 13 3 -3 4 -12 1 -19z m2163 -197
c169 -85 336 -180 388 -219 17 -13 32 -32 32 -42 0 -37 -142 -134 -224 -154
-41 -10 -106 15 -231 90 -61 36 -205 112 -320 169 -116 57 -221 115 -234 129
l-24 26 41 47 c23 27 60 76 83 109 l42 61 146 -69 c80 -38 216 -104 301 -147z
m-2978 129 c-45 -36 -53 -39 -71 -28 -26 16 -72 1 -87 -30 -9 -18 -13 -20 -17
-9 -9 24 25 46 119 76 49 16 93 29 98 30 5 1 -14 -17 -42 -39z m1103 -6 c-11
-8 -58 -40 -104 -69 -55 -36 -76 -46 -60 -29 13 14 58 46 99 70 75 44 102 56
65 28z m-1175 -41 c0 -12 -43 -53 -57 -53 -13 0 -18 41 -6 53 8 9 63 9 63 0z
m-120 -25 c0 -12 8 -30 17 -40 14 -15 15 -23 5 -36 -6 -9 -18 -31 -26 -48 -10
-23 -24 -34 -52 -42 -22 -5 -118 -38 -214 -71 -128 -45 -188 -61 -227 -61 -50
0 -53 2 -53 25 0 32 79 111 150 149 45 25 367 144 393 145 4 1 7 -9 7 -21z
m2750 -201 c253 -128 360 -189 404 -230 58 -55 109 -77 182 -77 74 0 194 29
265 65 l53 27 54 -57 c54 -56 55 -57 36 -76 -57 -57 -275 -87 -389 -54 -85 24
-129 49 -225 125 -94 74 -208 140 -442 256 -146 73 -156 80 -142 95 19 21 11
24 204 -74z m-2742 12 c2 -9 -24 -23 -80 -42 -46 -16 -145 -53 -221 -83 -207
-82 -287 -93 -287 -40 0 22 5 24 73 29 56 4 117 21 282 80 116 42 215 75 220
73 6 -1 11 -9 13 -17z m899 -90 c-3 -26 -15 -66 -27 -88 -19 -38 -22 -40 -47
-30 -40 15 -45 20 -33 34 6 7 26 45 46 85 30 63 37 70 50 59 12 -10 15 -25 11
-60z m218 0 c11 -32 -5 -138 -23 -156 -13 -13 -30 -14 -94 -9 -42 4 -87 10
-98 14 -20 7 -20 9 9 36 29 27 29 28 36 6 10 -32 25 -21 79 58 50 74 79 91 91
51z m-1086 -85 l36 -17 -125 -29 c-68 -15 -133 -31 -143 -34 -19 -6 -19 -5 -1
26 14 24 40 42 99 70 74 34 81 36 89 19 5 -10 25 -26 45 -35z m3599 -1 c-2
-21 -14 -32 -48 -49 -83 -41 -99 -40 -45 3 28 22 56 47 64 56 20 25 33 21 29
-10z m-374 -111 c-13 -3 -84 34 -84 43 0 2 22 -6 49 -18 27 -12 43 -23 35 -25z"/>
<path d="M1817 4386 c-4 -63 -4 -142 0 -177 l8 -64 6 55 c10 81 10 288 1 294
-5 3 -12 -46 -15 -108z"/>
<path d="M3660 3936 c0 -7 63 -44 113 -65 68 -29 64 0 -5 32 -52 25 -108 42
-108 33z"/>
<path d="M2410 3796 c-25 -6 -54 -18 -65 -24 l-20 -13 20 5 c11 3 40 10 65 17
25 7 101 13 169 13 79 1 110 4 85 8 -62 11 -205 8 -254 -6z"/>
<path d="M1930 3780 c47 -4 98 -13 114 -19 16 -6 31 -10 33 -8 2 3 -14 12 -37
21 -27 10 -67 16 -118 15 l-77 -2 85 -7z"/>
<path d="M2860 3737 c0 -3 18 -34 40 -68 40 -63 51 -65 26 -6 -12 29 -66 89
-66 74z"/>
<path d="M2675 3690 c-38 -9 -189 -66 -216 -81 -32 -17 -32 -5 -2 32 30 36 26
34 -58 -22 -31 -21 -60 -46 -63 -56 -6 -15 -8 -15 -16 -3 -6 8 -10 31 -11 50
l-1 35 -15 -35 c-24 -56 2 -140 44 -140 8 0 3 -14 -16 -41 -33 -45 -52 -116
-50 -187 2 -32 3 -38 6 -17 8 58 33 132 54 158 26 35 52 36 43 3 -3 -15 2 -39
15 -65 23 -44 81 -115 88 -107 3 3 -9 29 -26 59 -17 30 -31 61 -31 69 0 28 83
105 125 117 89 24 157 7 249 -63 48 -36 88 -45 116 -25 11 8 7 9 -17 4 -29 -6
-39 0 -105 61 -127 117 -136 134 -64 134 49 0 117 -32 179 -85 22 -19 42 -33
44 -31 7 6 -52 117 -87 164 -31 44 -96 82 -135 81 -11 -1 -33 -5 -50 -9z"/>
<path d="M2207 3661 c-9 -45 -9 -153 1 -169 5 -7 26 -22 48 -33 33 -17 36 -17
17 -2 -31 25 -44 66 -52 158 -5 67 -8 74 -14 46z"/>
<path d="M2503 3410 c-45 -23 -74 -50 -54 -50 7 0 30 9 52 21 23 11 42 19 43
17 1 -2 6 -17 13 -35 l11 -31 -37 13 c-38 13 -91 10 -91 -6 0 -5 8 -10 18 -10
9 -1 26 -3 37 -4 86 -13 379 -3 450 15 35 8 31 9 -30 5 -66 -5 -74 -3 -151 36
-104 53 -194 63 -261 29z m223 -66 c-30 -21 -35 -17 -23 16 10 27 13 28 27 14
13 -14 13 -17 -4 -30z"/>
<path d="M2857 3300 c-63 -12 -53 -19 20 -13 46 4 77 1 92 -7 14 -7 21 -8 17
-1 -6 9 -73 33 -86 30 -3 -1 -22 -5 -43 -9z"/>
<path d="M2545 3286 c22 -8 63 -14 90 -14 l50 1 -60 7 c-33 4 -73 10 -90 13
-20 4 -16 2 10 -7z"/>
<path d="M2494 3261 c22 -25 89 -56 139 -65 23 -4 61 -1 103 10 36 9 79 14 95
12 21 -3 26 -1 18 8 -16 19 -60 23 -102 8 -66 -23 -134 -18 -207 17 -52 24
-61 26 -46 10z"/>
<path d="M1865 3409 c-17 -4 -50 -27 -73 -49 -42 -41 -43 -42 -15 -39 15 2 49
-3 74 -10 35 -10 66 -10 129 -3 154 19 138 -9 -20 -34 l-85 -13 67 3 c37 2 65
0 62 -5 -10 -17 -89 -31 -143 -25 -44 5 -52 4 -38 -5 11 -6 45 -13 78 -16 84
-8 145 18 202 84 17 20 17 23 3 46 -9 13 -38 36 -65 51 -51 27 -115 33 -176
15z m15 -43 c0 -8 3 -21 6 -30 4 -10 1 -16 -9 -16 -20 0 -40 27 -33 45 7 19
36 20 36 1z m160 -5 c8 -16 6 -21 -11 -26 -26 -9 -33 -2 -24 24 8 26 21 27 35
2z"/>
<path d="M1798 3283 c7 -3 16 -2 19 1 4 3 -2 6 -13 5 -11 0 -14 -3 -6 -6z"/>
<path d="M3372 3305 c-77 -65 -113 -163 -77 -211 15 -19 20 -80 9 -108 -3 -9
-15 -16 -25 -16 -31 0 -21 -40 13 -53 13 -4 34 9 73 47 52 51 55 57 54 103 0
36 -3 43 -9 28 -5 -11 -9 -29 -10 -40 0 -11 -8 -29 -16 -40 -15 -19 -15 -18
-9 15 4 25 0 46 -15 75 -26 50 -25 53 5 47 31 -5 33 13 5 43 l-20 21 29 28
c16 16 34 25 39 22 13 -8 39 -79 47 -130 11 -68 28 -25 24 62 -4 68 -8 84 -28
106 -31 33 -51 33 -89 1z"/>
<path d="M2570 2586 c0 -2 8 -10 18 -17 15 -13 16 -12 3 4 -13 16 -21 21 -21
13z"/>
<path d="M3481 2084 c0 -11 3 -14 6 -6 3 7 2 16 -1 19 -3 4 -6 -2 -5 -13z"/>
<path d="M3072 1505 c-17 -37 -14 -45 4 -12 9 16 14 31 11 33 -2 2 -9 -7 -15
-21z"/>
<path d="M3031 2345 c0 -5 7 -26 14 -45 12 -32 14 -33 14 -9 1 14 -6 34 -14
45 -8 10 -14 15 -14 9z"/>
<path d="M2201 2144 c0 -11 3 -14 6 -6 3 7 2 16 -1 19 -3 4 -6 -2 -5 -13z"/>
<path d="M1816 1813 c-6 -14 -5 -15 5 -6 7 7 10 15 7 18 -3 3 -9 -2 -12 -12z"/>
<path d="M2030 1206 c0 -11 30 -66 36 -66 2 0 -3 15 -12 33 -19 36 -24 44 -24
33z"/>
<path d="M3928 1173 c-23 -28 -48 -71 -48 -83 0 -6 11 -22 25 -35 19 -20 34
-25 75 -25 91 0 117 57 56 123 -38 42 -82 50 -108 20z m73 -4 c25 -13 39 -49
28 -71 -11 -21 -65 -33 -83 -19 -21 17 -25 58 -9 81 16 22 35 25 64 9z"/>
<path d="M3722 1432 c-4 -83 -120 -349 -178 -407 -21 -22 -30 -33 -19 -25 121
86 210 264 202 406 -2 42 -4 52 -5 26z"/>
<path d="M3492 1073 c-33 -16 -72 -76 -59 -89 10 -10 51 21 86 65 35 44 27 51
-27 24z"/>
<path d="M1380 1035 c-7 -8 -22 -15 -34 -15 -19 -1 -18 -3 12 -30 39 -36 51
-38 45 -6 -3 13 0 33 6 45 9 17 9 21 -2 21 -8 0 -20 -7 -27 -15z"/>
<path d="M2825 707 c-77 -78 -187 -186 -245 -240 l-105 -98 85 61 c93 66 327
296 379 373 17 26 31 47 29 47 -2 -1 -66 -65 -143 -143z"/>
<path d="M1784 755 c3 -22 8 -80 11 -130 4 -49 13 -115 21 -146 12 -50 12 -61
-2 -94 -18 -43 -12 -85 17 -111 19 -17 20 -17 34 2 20 26 19 68 -4 112 -23 45
-38 120 -46 227 -7 95 9 84 23 -16 l10 -64 1 53 c1 39 -6 65 -24 100 -14 26
-25 54 -25 62 0 8 -5 22 -11 30 -7 11 -9 5 -5 -25z m66 -426 c0 -16 -4 -29 -9
-29 -11 0 -21 38 -14 56 8 22 23 6 23 -27z"/>
<path d="M1216 614 c-117 -26 -169 -47 -183 -74 -7 -14 -13 -53 -13 -87 0 -69
23 -107 71 -118 53 -13 116 74 90 123 -15 29 -64 46 -90 32 -12 -6 -21 -13
-21 -16 0 -2 9 0 19 6 27 14 71 -4 71 -29 0 -49 -110 -83 -118 -37 -7 32 20
96 47 115 14 10 76 37 136 59 114 42 111 51 -9 26z"/>
<path d="M3370 615 c0 -6 117 -92 144 -107 18 -10 18 -8 -2 19 -12 16 -27 35
-34 41 -17 13 -108 53 -108 47z"/>
<path d="M3024 488 c-59 -89 -133 -246 -179 -379 -39 -113 -38 -109 -26 -109
4 0 30 53 56 118 26 64 84 188 127 276 44 87 77 160 75 163 -3 2 -26 -29 -53
-69z"/>
<path d="M1417 427 c-39 -101 -90 -292 -84 -311 2 -6 23 47 46 119 43 132 83
277 77 282 -2 2 -19 -39 -39 -90z"/>
<path d="M3414 384 c-33 -16 -64 -61 -64 -91 0 -30 42 -63 78 -63 23 0 44 11
72 36 49 44 53 82 14 113 -31 25 -58 26 -100 5z m84 -10 c12 -8 22 -26 22 -38
0 -21 -6 -24 -47 -29 -27 -2 -56 -8 -65 -12 -14 -6 -18 -2 -18 17 0 31 43 72
80 77 3 1 16 -6 28 -15z"/>
<path d="M4290 233 c-99 -59 -239 -174 -261 -215 -9 -16 -5 -18 29 -18 36 0
43 5 85 58 59 74 123 141 167 175 45 34 37 34 -20 0z"/>
<path d="M4709 202 c-13 -10 -83 -49 -156 -87 -213 -110 -246 -154 -55 -74
123 51 179 83 220 128 46 50 41 71 -9 33z"/>
<path d="M496 148 c-17 -9 -71 -94 -81 -125 -5 -18 -2 -23 12 -23 11 0 27 18
43 47 29 54 50 67 50 29 0 -46 17 -76 45 -76 14 0 25 2 25 3 0 2 -9 30 -20 62
-11 32 -20 66 -20 76 0 18 -27 22 -54 7z"/>
</g>
</svg>